STARTFONT 2.1
COMMENT
COMMENT Converted from OpenType font "notosans_regular.ttf" by "otf2bdf 3.0".
COMMENT
FONT -FreeType-Noto Sans-Medium-R-Normal--19-140-100-100-P-98-ISO10646-1
SIZE 14 100 100
FONTBOUNDINGBOX 66 34 -12 -8
STARTPROPERTIES 19
FOUNDRY "FreeType"
FAMILY_NAME "Noto Sans"
WEIGHT_NAME "Medium"
SLANT "R"
SETWIDTH_NAME "Normal"
ADD_STYLE_NAME ""
PIXEL_SIZE 19
POINT_SIZE 140
RESOLUTION_X 100
RESOLUTION_Y 100
SPACING "P"
AVERAGE_WIDTH 98
CHARSET_REGISTRY "ISO10646"
CHARSET_ENCODING "1"
FONT_ASCENT 20
FONT_DESCENT 5
COPYRIGHT "Copyright 2015-2021 Google LLC. All Rights Reserved."
_OTF_FONTFILE "notosans_regular.ttf"
_OTF_PSNAME "NotoSans-Regular"
ENDPROPERTIES
CHARS 3053
STARTCHAR 0000
ENCODING 0
SWIDTH 0 0
DWIDTH 0 0
BBX 0 0 0 0
BITMAP
ENDCHAR
STARTCHAR 000D
ENCODING 13
SWIDTH 257 0
DWIDTH 5 0
BBX 0 0 0 0
BITMAP
ENDCHAR
STARTCHAR 0020
ENCODING 32
SWIDTH 257 0
DWIDTH 5 0
BBX 0 0 0 0
BITMAP
ENDCHAR
STARTCHAR 0021
ENCODING 33
SWIDTH 257 0
DWIDTH 5 0
BBX 3 14 1 0
BITMAP
60
60
60
40
40
40
40
40
40
40
00
00
E0
E0
ENDCHAR
STARTCHAR 0022
ENCODING 34
SWIDTH 360 0
DWIDTH 7 0
BBX 6 5 1 9
BITMAP
CC
CC
C8
48
48
ENDCHAR
STARTCHAR 0023
ENCODING 35
SWIDTH 617 0
DWIDTH 12 0
BBX 12 14 0 0
BITMAP
0440
0440
0C40
0CC0
7FF0
7FF0
0880
1880
1980
FFE0
1100
1100
3100
3300
ENDCHAR
STARTCHAR 0024
ENCODING 36
SWIDTH 565 0
DWIDTH 11 0
BBX 9 16 1 -1
BITMAP
0800
0800
3F00
7B00
C800
C800
E800
7C00
1F00
0980
0980
0980
EF00
FE00
0800
0800
ENDCHAR
STARTCHAR 0025
ENCODING 37
SWIDTH 822 0
DWIDTH 16 0
BBX 14 14 1 0
BITMAP
7020
C860
CC40
8CC0
8C80
8D90
C978
7B4C
3244
04C4
0CC4
0844
184C
1038
ENDCHAR
STARTCHAR 0026
ENCODING 38
SWIDTH 720 0
DWIDTH 14 0
BBX 13 14 1 0
BITMAP
1E00
3300
6100
6300
3300
3E00
1C00
7C30
E730
C3A0
C1E0
C0E0
63F0
3F38
ENDCHAR
STARTCHAR 0027
ENCODING 39
SWIDTH 205 0
DWIDTH 4 0
BBX 2 5 1 9
BITMAP
C0
C0
C0
40
40
ENDCHAR
STARTCHAR 0028
ENCODING 40
SWIDTH 257 0
DWIDTH 5 0
BBX 4 17 1 -3
BITMAP
30
20
60
40
C0
C0
C0
C0
C0
C0
C0
C0
C0
40
60
20
30
ENDCHAR
STARTCHAR 0029
ENCODING 41
SWIDTH 257 0
DWIDTH 5 0
BBX 4 17 1 -3
BITMAP
C0
C0
60
60
20
30
30
30
30
30
30
30
30
60
60
40
C0
ENDCHAR
STARTCHAR 002A
ENCODING 42
SWIDTH 514 0
DWIDTH 10 0
BBX 9 9 1 6
BITMAP
1800
1800
0800
CB80
FF80
1C00
3400
6600
2200
ENDCHAR
STARTCHAR 002B
ENCODING 43
SWIDTH 565 0
DWIDTH 11 0
BBX 9 10 1 2
BITMAP
0800
0800
0800
0800
FF80
FF80
0800
0800
0800
0800
ENDCHAR
STARTCHAR 002C
ENCODING 44
SWIDTH 257 0
DWIDTH 5 0
BBX 3 5 1 -3
BITMAP
60
C0
C0
80
80
ENDCHAR
STARTCHAR 002D
ENCODING 45
SWIDTH 308 0
DWIDTH 6 0
BBX 4 2 1 4
BITMAP
F0
F0
ENDCHAR
STARTCHAR 002E
ENCODING 46
SWIDTH 257 0
DWIDTH 5 0
BBX 3 2 1 0
BITMAP
E0
E0
ENDCHAR
STARTCHAR 002F
ENCODING 47
SWIDTH 360 0
DWIDTH 7 0
BBX 7 14 0 0
BITMAP
06
06
0C
0C
08
18
18
10
30
30
60
60
40
C0
ENDCHAR
STARTCHAR 0030
ENCODING 48
SWIDTH 565 0
DWIDTH 11 0
BBX 9 14 1 0
BITMAP
3E00
7700
4100
C180
C180
C180
C180
C180
C180
C180
C180
4100
6300
3E00
ENDCHAR
STARTCHAR 0031
ENCODING 49
SWIDTH 565 0
DWIDTH 11 0
BBX 5 14 2 0
BITMAP
18
38
F8
98
18
18
18
18
18
18
18
18
18
18
ENDCHAR
STARTCHAR 0032
ENCODING 50
SWIDTH 565 0
DWIDTH 11 0
BBX 9 14 1 0
BITMAP
3E00
E700
0100
0180
0100
0300
0300
0600
0C00
1800
3000
6000
FF80
FF80
ENDCHAR
STARTCHAR 0033
ENCODING 51
SWIDTH 565 0
DWIDTH 11 0
BBX 9 14 1 0
BITMAP
7E00
E700
0100
0180
0100
0300
3C00
3F00
0180
0180
0180
0180
C300
FE00
ENDCHAR
STARTCHAR 0034
ENCODING 52
SWIDTH 565 0
DWIDTH 11 0
BBX 11 14 0 0
BITMAP
0180
0380
0780
0580
0980
1980
3180
2180
6180
FFE0
FFE0
0180
0180
0180
ENDCHAR
STARTCHAR 0035
ENCODING 53
SWIDTH 565 0
DWIDTH 11 0
BBX 9 14 1 0
BITMAP
7F00
7F00
4000
4000
4000
4800
7F00
0380
0180
0180
0180
0180
C700
FE00
ENDCHAR
STARTCHAR 0036
ENCODING 54
SWIDTH 565 0
DWIDTH 11 0
BBX 9 14 1 0
BITMAP
1F00
3800
6000
6000
C000
CE00
FF00
E180
C180
C080
C180
4180
7300
3E00
ENDCHAR
STARTCHAR 0037
ENCODING 55
SWIDTH 565 0
DWIDTH 11 0
BBX 9 14 1 0
BITMAP
FF80
FF80
0180
0300
0300
0200
0600
0400
0C00
0C00
1800
1800
3000
3000
ENDCHAR
STARTCHAR 0038
ENCODING 56
SWIDTH 565 0
DWIDTH 11 0
BBX 9 14 1 0
BITMAP
3E00
6300
C180
C180
4100
7300
3C00
3F00
6380
C180
C180
C180
6380
3E00
ENDCHAR
STARTCHAR 0039
ENCODING 57
SWIDTH 565 0
DWIDTH 11 0
BBX 9 14 1 0
BITMAP
3E00
6700
C100
C180
C180
C180
C180
7F80
3D80
0180
0100
0300
0600
7C00
ENDCHAR
STARTCHAR 003A
ENCODING 58
SWIDTH 257 0
DWIDTH 5 0
BBX 3 11 1 0
BITMAP
40
E0
60
00
00
00
00
00
00
E0
E0
ENDCHAR
STARTCHAR 003B
ENCODING 59
SWIDTH 257 0
DWIDTH 5 0
BBX 3 14 1 -3
BITMAP
40
E0
60
00
00
00
00
00
00
C0
C0
C0
80
80
ENDCHAR
STARTCHAR 003C
ENCODING 60
SWIDTH 565 0
DWIDTH 11 0
BBX 9 9 1 2
BITMAP
0080
0380
0E00
3800
E000
E000
3800
0E00
0380
ENDCHAR
STARTCHAR 003D
ENCODING 61
SWIDTH 565 0
DWIDTH 11 0
BBX 9 5 1 4
BITMAP
FF80
0000
0000
FF80
FF80
ENDCHAR
STARTCHAR 003E
ENCODING 62
SWIDTH 565 0
DWIDTH 11 0
BBX 9 10 1 2
BITMAP
8000
E000
3800
0E00
0380
0180
0E00
3800
E000
8000
ENDCHAR
STARTCHAR 003F
ENCODING 63
SWIDTH 411 0
DWIDTH 8 0
BBX 7 14 1 0
BITMAP
F8
CC
06
06
06
0C
18
30
20
20
00
00
70
70
ENDCHAR
STARTCHAR 0040
ENCODING 64
SWIDTH 874 0
DWIDTH 17 0
BBX 15 16 1 -2
BITMAP
03E0
0E38
300C
2006
43E2
4622
CC22
CC62
CC62
CC62
C6E4
4398
6000
3000
1FF0
07C0
ENDCHAR
STARTCHAR 0041
ENCODING 65
SWIDTH 617 0
DWIDTH 12 0
BBX 12 14 0 0
BITMAP
0600
0700
0F00
0D00
0980
1980
1880
10C0
3FC0
3FE0
6060
6020
4030
C030
ENDCHAR
STARTCHAR 0042
ENCODING 66
SWIDTH 617 0
DWIDTH 12 0
BBX 10 14 2 0
BITMAP
FE00
FF80
C180
C180
C180
C180
FE00
C700
C180
C0C0
C0C0
C180
C780
FE00
ENDCHAR
STARTCHAR 0043
ENCODING 67
SWIDTH 617 0
DWIDTH 12 0
BBX 10 14 1 0
BITMAP
0FC0
3DC0
7000
6000
4000
C000
C000
C000
C000
C000
6000
7000
3840
1FC0
ENDCHAR
STARTCHAR 0044
ENCODING 68
SWIDTH 720 0
DWIDTH 14 0
BBX 11 14 2 0
BITMAP
FE00
FF80
C1C0
C0C0
C060
C060
C060
C060
C060
C060
C0C0
C1C0
FF80
FE00
ENDCHAR
STARTCHAR 0045
ENCODING 69
SWIDTH 514 0
DWIDTH 10 0
BBX 8 14 2 0
BITMAP
FF
FF
C0
C0
C0
C0
FE
FE
C0
C0
C0
C0
FF
FF
ENDCHAR
STARTCHAR 0046
ENCODING 70
SWIDTH 514 0
DWIDTH 10 0
BBX 8 14 2 0
BITMAP
FF
FF
C0
C0
C0
C0
C0
FE
C0
C0
C0
C0
C0
C0
ENDCHAR
STARTCHAR 0047
ENCODING 71
SWIDTH 720 0
DWIDTH 14 0
BBX 12 14 1 0
BITMAP
0FE0
3EE0
3000
6000
4000
C000
C000
C1F0
C030
C030
6030
7030
3C70
0FF0
ENDCHAR
STARTCHAR 0048
ENCODING 72
SWIDTH 720 0
DWIDTH 14 0
BBX 11 14 2 0
BITMAP
C060
C060
C060
C060
C060
C060
FFE0
FFE0
C060
C060
C060
C060
C060
C060
ENDCHAR
STARTCHAR 0049
ENCODING 73
SWIDTH 308 0
DWIDTH 6 0
BBX 5 14 1 0
BITMAP
F8
60
60
60
60
60
60
60
60
60
60
60
60
F8
ENDCHAR
STARTCHAR 004A
ENCODING 74
SWIDTH 257 0
DWIDTH 5 0
BBX 6 18 -2 -4
BITMAP
0C
0C
0C
0C
0C
0C
0C
0C
0C
0C
0C
0C
0C
0C
08
18
F8
60
ENDCHAR
STARTCHAR 004B
ENCODING 75
SWIDTH 617 0
DWIDTH 12 0
BBX 10 14 2 0
BITMAP
C180
C180
C300
C600
CC00
D800
F800
F800
CC00
C600
C600
C300
C180
C0C0
ENDCHAR
STARTCHAR 004C
ENCODING 76
SWIDTH 514 0
DWIDTH 10 0
BBX 8 14 2 0
BITMAP
C0
C0
C0
C0
C0
C0
C0
C0
C0
C0
C0
C0
FF
FF
ENDCHAR
STARTCHAR 004D
ENCODING 77
SWIDTH 874 0
DWIDTH 17 0
BBX 14 14 2 0
BITMAP
E01C
E01C
A03C
B02C
B02C
906C
D84C
C8CC
CCCC
CC8C
C58C
C70C
C70C
C30C
ENDCHAR
STARTCHAR 004E
ENCODING 78
SWIDTH 720 0
DWIDTH 14 0
BBX 11 14 2 0
BITMAP
C060
E060
E060
B060
9860
9860
CC60
C660
C660
C360
C1E0
C1E0
C0E0
C060
ENDCHAR
STARTCHAR 004F
ENCODING 79
SWIDTH 771 0
DWIDTH 15 0
BBX 13 14 1 0
BITMAP
0FC0
3CE0
7030
6030
C018
C018
C018
C018
C018
C018
6030
6030
38E0
1FC0
ENDCHAR
STARTCHAR 0050
ENCODING 80
SWIDTH 565 0
DWIDTH 11 0
BBX 9 14 2 0
BITMAP
FC00
FF00
C300
C180
C180
C180
C300
FE00
F800
C000
C000
C000
C000
C000
ENDCHAR
STARTCHAR 0051
ENCODING 81
SWIDTH 771 0
DWIDTH 15 0
BBX 13 17 1 -3
BITMAP
0FC0
3CE0
7030
6030
C018
C018
C018
C018
C018
C018
6030
6030
38E0
1FC0
01C0
00E0
0070
ENDCHAR
STARTCHAR 0052
ENCODING 82
SWIDTH 617 0
DWIDTH 12 0
BBX 9 14 2 0
BITMAP
FC00
FF00
C380
C180
C180
C180
C300
FE00
C400
C600
C300
C300
C180
C180
ENDCHAR
STARTCHAR 0053
ENCODING 83
SWIDTH 514 0
DWIDTH 10 0
BBX 9 14 1 0
BITMAP
3F00
7700
C000
C000
C000
6000
3C00
0E00
0300
0180
0180
0180
C700
FE00
ENDCHAR
STARTCHAR 0054
ENCODING 84
SWIDTH 514 0
DWIDTH 10 0
BBX 11 14 0 0
BITMAP
FFE0
FFE0
0400
0400
0400
0400
0400
0400
0400
0400
0400
0400
0400
0400
ENDCHAR
STARTCHAR 0055
ENCODING 85
SWIDTH 720 0
DWIDTH 14 0
BBX 10 14 2 0
BITMAP
C040
C040
C040
C040
C040
C040
C040
C040
C040
C040
C040
C0C0
7180
3F00
ENDCHAR
STARTCHAR 0056
ENCODING 86
SWIDTH 565 0
DWIDTH 11 0
BBX 12 14 0 0
BITMAP
C030
C060
6060
6040
20C0
30C0
3080
1180
1980
1900
0B00
0F00
0E00
0600
ENDCHAR
STARTCHAR 0057
ENCODING 87
SWIDTH 925 0
DWIDTH 18 0
BBX 18 14 0 0
BITMAP
C0C0C0
40C080
61E180
61E180
612180
232100
333300
333300
321300
161A00
1E1E00
1C0E00
0C0E00
0C0C00
ENDCHAR
STARTCHAR 0058
ENCODING 88
SWIDTH 565 0
DWIDTH 11 0
BBX 11 14 0 0
BITMAP
6060
60C0
3080
1180
1B00
0E00
0600
0E00
0B00
1900
3180
20C0
60C0
C060
ENDCHAR
STARTCHAR 0059
ENCODING 89
SWIDTH 565 0
DWIDTH 11 0
BBX 11 14 0 0
BITMAP
C060
60C0
60C0
3180
3180
1B00
1B00
0E00
0400
0400
0400
0400
0400
0400
ENDCHAR
STARTCHAR 005A
ENCODING 90
SWIDTH 565 0
DWIDTH 11 0
BBX 9 14 1 0
BITMAP
FF80
FF80
0300
0300
0600
0400
0C00
1800
1000
3000
6000
4000
FF80
FF80
ENDCHAR
STARTCHAR 005B
ENCODING 91
SWIDTH 308 0
DWIDTH 6 0
BBX 4 17 2 -3
BITMAP
F0
F0
80
80
80
80
80
80
80
80
80
80
80
80
80
80
F0
ENDCHAR
STARTCHAR 005C
ENCODING 92
SWIDTH 360 0
DWIDTH 7 0
BBX 7 14 0 0
BITMAP
C0
40
60
60
30
30
10
18
18
08
0C
0C
06
06
ENDCHAR
STARTCHAR 005D
ENCODING 93
SWIDTH 308 0
DWIDTH 6 0
BBX 5 17 0 -3
BITMAP
F8
F8
18
18
18
18
18
18
18
18
18
18
18
18
18
18
F8
ENDCHAR
STARTCHAR 005E
ENCODING 94
SWIDTH 565 0
DWIDTH 11 0
BBX 9 9 1 5
BITMAP
0800
1C00
1400
3600
2200
6300
4100
C180
8080
ENDCHAR
STARTCHAR 005F
ENCODING 95
SWIDTH 411 0
DWIDTH 8 0
BBX 9 1 0 -3
BITMAP
FF80
ENDCHAR
STARTCHAR 0060
ENCODING 96
SWIDTH 257 0
DWIDTH 5 0
BBX 3 3 1 12
BITMAP
C0
60
20
ENDCHAR
STARTCHAR 0061
ENCODING 97
SWIDTH 514 0
DWIDTH 10 0
BBX 8 11 1 0
BITMAP
1C
7F
03
01
01
7F
E1
C1
C3
C7
7D
ENDCHAR
STARTCHAR 0062
ENCODING 98
SWIDTH 565 0
DWIDTH 11 0
BBX 9 15 2 0
BITMAP
8000
8000
8000
8000
8C00
BE00
C300
C180
8180
8180
8180
C180
C100
E300
BE00
ENDCHAR
STARTCHAR 0063
ENCODING 99
SWIDTH 462 0
DWIDTH 9 0
BBX 8 11 1 0
BITMAP
0C
3E
60
C0
C0
C0
C0
C0
40
73
3F
ENDCHAR
STARTCHAR 0064
ENCODING 100
SWIDTH 565 0
DWIDTH 11 0
BBX 9 15 1 0
BITMAP
0080
0080
0080
0080
1880
7E80
6180
C180
C080
C080
C080
C180
C180
6380
3E80
ENDCHAR
STARTCHAR 0065
ENCODING 101
SWIDTH 514 0
DWIDTH 10 0
BBX 9 11 1 0
BITMAP
0C00
3F00
6300
C180
C180
FF80
C000
C000
4000
7180
3F80
ENDCHAR
STARTCHAR 0066
ENCODING 102
SWIDTH 308 0
DWIDTH 6 0
BBX 8 15 0 0
BITMAP
0F
1E
30
30
30
FC
30
30
30
30
30
30
30
30
30
ENDCHAR
STARTCHAR 0067
ENCODING 103
SWIDTH 565 0
DWIDTH 11 0
BBX 9 16 1 -5
BITMAP
1800
3E80
6180
C180
C080
C080
C080
C080
C180
6380
3E80
0080
0180
0180
7F00
1C00
ENDCHAR
STARTCHAR 0068
ENCODING 104
SWIDTH 617 0
DWIDTH 12 0
BBX 8 15 2 0
BITMAP
80
80
80
80
8C
BF
C3
C1
81
81
81
81
81
81
81
ENDCHAR
STARTCHAR 0069
ENCODING 105
SWIDTH 257 0
DWIDTH 5 0
BBX 1 14 2 0
BITMAP
80
80
00
00
80
80
80
80
80
80
80
80
80
80
ENDCHAR
STARTCHAR 006A
ENCODING 106
SWIDTH 257 0
DWIDTH 5 0
BBX 4 19 -1 -5
BITMAP
10
10
00
00
10
10
10
10
10
10
10
10
10
10
10
10
10
F0
E0
ENDCHAR
STARTCHAR 006B
ENCODING 107
SWIDTH 514 0
DWIDTH 10 0
BBX 8 15 2 0
BITMAP
80
80
80
80
80
86
8C
98
B0
F0
D8
8C
8C
86
83
ENDCHAR
STARTCHAR 006C
ENCODING 108
SWIDTH 257 0
DWIDTH 5 0
BBX 1 15 2 0
BITMAP
80
80
80
80
80
80
80
80
80
80
80
80
80
80
80
ENDCHAR
STARTCHAR 006D
ENCODING 109
SWIDTH 925 0
DWIDTH 18 0
BBX 15 11 2 0
BITMAP
0C30
BEFC
C38C
C306
8306
8306
8306
8306
8306
8306
8306
ENDCHAR
STARTCHAR 006E
ENCODING 110
SWIDTH 617 0
DWIDTH 12 0
BBX 8 11 2 0
BITMAP
0C
BF
C3
C1
81
81
81
81
81
81
81
ENDCHAR
STARTCHAR 006F
ENCODING 111
SWIDTH 565 0
DWIDTH 11 0
BBX 10 11 1 0
BITMAP
0C00
3F00
6180
C080
C0C0
C0C0
C0C0
C0C0
4180
6380
3F00
ENDCHAR
STARTCHAR 0070
ENCODING 112
SWIDTH 565 0
DWIDTH 11 0
BBX 9 16 2 -5
BITMAP
0C00
BE00
C300
C180
8180
8180
8180
C180
C100
E300
BE00
8000
8000
8000
8000
8000
ENDCHAR
STARTCHAR 0071
ENCODING 113
SWIDTH 565 0
DWIDTH 11 0
BBX 9 16 1 -5
BITMAP
1800
3E80
6180
C180
C080
C080
C080
C180
C180
6380
3E80
0080
0080
0080
0080
0080
ENDCHAR
STARTCHAR 0072
ENCODING 114
SWIDTH 411 0
DWIDTH 8 0
BBX 6 11 2 0
BITMAP
0C
BC
E0
C0
80
80
80
80
80
80
80
ENDCHAR
STARTCHAR 0073
ENCODING 115
SWIDTH 462 0
DWIDTH 9 0
BBX 7 11 1 0
BITMAP
18
7E
C0
C0
E0
38
0E
02
02
86
FC
ENDCHAR
STARTCHAR 0074
ENCODING 116
SWIDTH 360 0
DWIDTH 7 0
BBX 7 13 0 0
BITMAP
30
30
30
FE
30
30
30
30
30
30
30
30
1E
ENDCHAR
STARTCHAR 0075
ENCODING 117
SWIDTH 617 0
DWIDTH 12 0
BBX 8 10 2 0
BITMAP
81
81
81
81
81
81
81
83
C7
7D
ENDCHAR
STARTCHAR 0076
ENCODING 118
SWIDTH 462 0
DWIDTH 9 0
BBX 10 10 0 0
BITMAP
C0C0
6180
6180
6100
3300
3300
1200
1E00
1C00
0C00
ENDCHAR
STARTCHAR 0077
ENCODING 119
SWIDTH 771 0
DWIDTH 15 0
BBX 15 10 0 0
BITMAP
C386
4386
6284
66CC
26CC
3448
3468
3C78
1838
1830
ENDCHAR
STARTCHAR 0078
ENCODING 120
SWIDTH 514 0
DWIDTH 10 0
BBX 9 10 1 0
BITMAP
C300
6200
2600
3C00
1800
1C00
3400
6600
C300
C180
ENDCHAR
STARTCHAR 0079
ENCODING 121
SWIDTH 462 0
DWIDTH 9 0
BBX 10 15 0 -5
BITMAP
C0C0
6180
6180
2100
3300
3300
1200
1E00
0E00
0C00
0C00
0800
1800
F000
E000
ENDCHAR
STARTCHAR 007A
ENCODING 122
SWIDTH 462 0
DWIDTH 9 0
BBX 7 10 1 0
BITMAP
FE
06
0C
08
18
30
60
60
C0
FE
ENDCHAR
STARTCHAR 007B
ENCODING 123
SWIDTH 360 0
DWIDTH 7 0
BBX 6 17 1 -3
BITMAP
0C
3C
30
30
30
30
30
60
C0
60
30
30
30
30
30
38
1C
ENDCHAR
STARTCHAR 007C
ENCODING 124
SWIDTH 514 0
DWIDTH 10 0
BBX 1 20 5 -5
BITMAP
80
80
80
80
80
80
80
80
80
80
80
80
80
80
80
80
80
80
80
80
ENDCHAR
STARTCHAR 007D
ENCODING 125
SWIDTH 360 0
DWIDTH 7 0
BBX 6 17 1 -3
BITMAP
C0
E0
20
20
20
20
30
30
0C
38
30
20
20
20
20
60
C0
ENDCHAR
STARTCHAR 007E
ENCODING 126
SWIDTH 565 0
DWIDTH 11 0
BBX 9 2 1 6
BITMAP
F880
9F80
ENDCHAR
STARTCHAR 00A0
ENCODING 160
SWIDTH 257 0
DWIDTH 5 0
BBX 0 0 0 0
BITMAP
ENDCHAR
STARTCHAR 00A1
ENCODING 161
SWIDTH 257 0
DWIDTH 5 0
BBX 3 15 1 -4
BITMAP
40
E0
60
00
00
40
40
40
40
40
40
40
60
60
60
ENDCHAR
STARTCHAR 00A2
ENCODING 162
SWIDTH 565 0
DWIDTH 11 0
BBX 7 14 2 0
BITMAP
08
08
7E
60
C0
C0
C0
C0
C0
C0
60
3E
08
08
ENDCHAR
STARTCHAR 00A3
ENCODING 163
SWIDTH 565 0
DWIDTH 11 0
BBX 9 14 1 0
BITMAP
1F00
3980
2000
2000
2000
2000
FE00
FE00
2000
2000
2000
6000
FF80
FF80
ENDCHAR
STARTCHAR 00A4
ENCODING 164
SWIDTH 565 0
DWIDTH 11 0
BBX 9 8 1 2
BITMAP
DD80
7F00
6100
4100
4100
4100
7700
DD80
ENDCHAR
STARTCHAR 00A5
ENCODING 165
SWIDTH 565 0
DWIDTH 11 0
BBX 11 14 0 0
BITMAP
C060
60C0
20C0
3180
1100
1B00
0A00
3F80
3F80
0400
3F80
3F80
0400
0400
ENDCHAR
STARTCHAR 00A6
ENCODING 166
SWIDTH 514 0
DWIDTH 10 0
BBX 1 20 5 -5
BITMAP
80
80
80
80
80
80
80
80
00
00
00
00
80
80
80
80
80
80
80
80
ENDCHAR
STARTCHAR 00A7
ENCODING 167
SWIDTH 462 0
DWIDTH 9 0
BBX 8 15 1 0
BITMAP
3E
66
C0
40
78
7E
C2
C3
63
7E
1E
03
03
C6
FC
ENDCHAR
STARTCHAR 00A8
ENCODING 168
SWIDTH 565 0
DWIDTH 11 0
BBX 5 2 3 12
BITMAP
C8
88
ENDCHAR
STARTCHAR 00A9
ENCODING 169
SWIDTH 822 0
DWIDTH 16 0
BBX 14 14 1 0
BITMAP
0FC0
3030
6018
47C8
CC04
8804
8804
8804
8804
CC04
47C8
6018
3030
0FC0
ENDCHAR
STARTCHAR 00AA
ENCODING 170
SWIDTH 308 0
DWIDTH 6 0
BBX 5 7 1 7
BITMAP
F0
08
08
F8
88
98
60
ENDCHAR
STARTCHAR 00AB
ENCODING 171
SWIDTH 462 0
DWIDTH 9 0
BBX 8 8 1 1
BITMAP
33
22
66
CC
CC
66
33
11
ENDCHAR
STARTCHAR 00AC
ENCODING 172
SWIDTH 565 0
DWIDTH 11 0
BBX 9 6 1 2
BITMAP
FF80
FF80
0080
0080
0080
0080
ENDCHAR
STARTCHAR 00AD
ENCODING 173
SWIDTH 308 0
DWIDTH 6 0
BBX 4 2 1 4
BITMAP
F0
F0
ENDCHAR
STARTCHAR 00AE
ENCODING 174
SWIDTH 822 0
DWIDTH 16 0
BBX 14 14 1 0
BITMAP
0FC0
3030
6018
4F88
CCC4
8CC4
8CC4
8F84
8D84
CCC4
4C48
6018
3030
0FC0
ENDCHAR
STARTCHAR 00AF
ENCODING 175
SWIDTH 462 0
DWIDTH 9 0
BBX 10 1 0 15
BITMAP
FFC0
ENDCHAR
STARTCHAR 00B0
ENCODING 176
SWIDTH 411 0
DWIDTH 8 0
BBX 6 6 1 8
BITMAP
78
CC
84
84
CC
78
ENDCHAR
STARTCHAR 00B1
ENCODING 177
SWIDTH 565 0
DWIDTH 11 0
BBX 9 12 1 0
BITMAP
0800
0800
0800
0800
FF80
FF80
0800
0800
0800
0800
0000
FF80
ENDCHAR
STARTCHAR 00B2
ENCODING 178
SWIDTH 308 0
DWIDTH 6 0
BBX 6 9 0 8
BITMAP
30
7C
04
0C
08
10
20
40
FC
ENDCHAR
STARTCHAR 00B3
ENCODING 179
SWIDTH 308 0
DWIDTH 6 0
BBX 6 9 0 8
BITMAP
30
FC
04
0C
38
0C
04
8C
F8
ENDCHAR
STARTCHAR 00B4
ENCODING 180
SWIDTH 257 0
DWIDTH 5 0
BBX 4 3 1 12
BITMAP
70
60
C0
ENDCHAR
STARTCHAR 00B5
ENCODING 181
SWIDTH 617 0
DWIDTH 12 0
BBX 8 15 2 -5
BITMAP
81
81
81
81
81
81
81
C3
C7
BD
80
80
80
80
80
ENDCHAR
STARTCHAR 00B6
ENCODING 182
SWIDTH 617 0
DWIDTH 12 0
BBX 10 17 1 -2
BITMAP
1FC0
7E40
FE40
FE40
FE40
FE40
FE40
FE40
7E40
3E40
0640
0640
0640
0640
0640
0640
0640
ENDCHAR
STARTCHAR 00B7
ENCODING 183
SWIDTH 257 0
DWIDTH 5 0
BBX 3 2 1 6
BITMAP
60
E0
ENDCHAR
STARTCHAR 00B8
ENCODING 184
SWIDTH 205 0
DWIDTH 4 0
BBX 4 5 0 -5
BITMAP
20
70
10
30
E0
ENDCHAR
STARTCHAR 00B9
ENCODING 185
SWIDTH 308 0
DWIDTH 6 0
BBX 4 8 1 8
BITMAP
70
F0
30
30
30
30
30
30
ENDCHAR
STARTCHAR 00BA
ENCODING 186
SWIDTH 360 0
DWIDTH 7 0
BBX 6 7 1 7
BITMAP
78
88
8C
8C
8C
D8
20
ENDCHAR
STARTCHAR 00BB
ENCODING 187
SWIDTH 462 0
DWIDTH 9 0
BBX 8 8 1 1
BITMAP
C8
4C
66
33
33
66
CC
88
ENDCHAR
STARTCHAR 00BC
ENCODING 188
SWIDTH 720 0
DWIDTH 14 0
BBX 13 14 1 0
BITMAP
3020
F060
B0C0
3080
3180
3100
3230
3670
0450
0C90
0990
11F8
3010
2010
ENDCHAR
STARTCHAR 00BD
ENCODING 189
SWIDTH 720 0
DWIDTH 14 0
BBX 13 14 1 0
BITMAP
6060
E040
A080
2180
2100
2320
26F8
2408
0C08
0818
1030
3060
20C0
60F8
ENDCHAR
STARTCHAR 00BE
ENCODING 190
SWIDTH 771 0
DWIDTH 15 0
BBX 15 14 0 0
BITMAP
7808
4C10
0430
0820
3860
04C0
048C
FD9C
313C
032C
064C
047E
0C0C
080C
ENDCHAR
STARTCHAR 00BF
ENCODING 191
SWIDTH 411 0
DWIDTH 8 0
BBX 8 15 0 -4
BITMAP
08
0C
0C
00
00
0C
08
18
30
60
40
C0
41
7F
1C
ENDCHAR
STARTCHAR 00C0
ENCODING 192
SWIDTH 617 0
DWIDTH 12 0
BBX 12 18 0 0
BITMAP
0C00
0600
0300
0000
0600
0700
0F00
0D00
0980
1980
1880
10C0
3FC0
3FE0
6060
6020
4030
C030
ENDCHAR
STARTCHAR 00C1
ENCODING 193
SWIDTH 617 0
DWIDTH 12 0
BBX 12 18 0 0
BITMAP
0180
0300
0600
0000
0600
0700
0F00
0D00
0980
1980
1880
10C0
3FC0
3FE0
6060
6020
4030
C030
ENDCHAR
STARTCHAR 00C2
ENCODING 194
SWIDTH 617 0
DWIDTH 12 0
BBX 12 18 0 0
BITMAP
0700
0D00
1080
0000
0600
0700
0F00
0D00
0980
1980
1880
10C0
3FC0
3FE0
6060
6020
4030
C030
ENDCHAR
STARTCHAR 00C3
ENCODING 195
SWIDTH 617 0
DWIDTH 12 0
BBX 12 18 0 0
BITMAP
0C40
1F80
1180
0000
0600
0700
0F00
0D00
0980
1980
1880
10C0
3FC0
3FE0
6060
6020
4030
C030
ENDCHAR
STARTCHAR 00C4
ENCODING 196
SWIDTH 617 0
DWIDTH 12 0
BBX 12 18 0 0
BITMAP
0980
1980
0000
0000
0600
0700
0F00
0D00
0980
1980
1880
10C0
3FC0
3FE0
6060
6020
4030
C030
ENDCHAR
STARTCHAR 00C5
ENCODING 197
SWIDTH 617 0
DWIDTH 12 0
BBX 12 17 0 0
BITMAP
0700
0900
0900
0700
0700
0F00
0D00
0980
1980
1880
10C0
3FC0
3FE0
6060
6020
4030
C030
ENDCHAR
STARTCHAR 00C6
ENCODING 198
SWIDTH 874 0
DWIDTH 17 0
BBX 16 14 0 0
BITMAP
03FF
03FF
0640
0640
0C40
0C40
087F
187F
1FC0
3FC0
2040
6040
607F
C07F
ENDCHAR
STARTCHAR 00C7
ENCODING 199
SWIDTH 617 0
DWIDTH 12 0
BBX 10 19 1 -5
BITMAP
0FC0
3DC0
7000
6000
4000
C000
C000
C000
C000
C000
6000
7000
3840
1FC0
0200
0700
0100
0300
0E00
ENDCHAR
STARTCHAR 00C8
ENCODING 200
SWIDTH 514 0
DWIDTH 10 0
BBX 8 18 2 0
BITMAP
30
18
08
00
FF
FF
C0
C0
C0
C0
FE
FE
C0
C0
C0
C0
FF
FF
ENDCHAR
STARTCHAR 00C9
ENCODING 201
SWIDTH 514 0
DWIDTH 10 0
BBX 8 18 2 0
BITMAP
0C
08
10
00
FF
FF
C0
C0
C0
C0
FE
FE
C0
C0
C0
C0
FF
FF
ENDCHAR
STARTCHAR 00CA
ENCODING 202
SWIDTH 514 0
DWIDTH 10 0
BBX 8 18 2 0
BITMAP
38
2C
42
00
FF
FF
C0
C0
C0
C0
FE
FE
C0
C0
C0
C0
FF
FF
ENDCHAR
STARTCHAR 00CB
ENCODING 203
SWIDTH 514 0
DWIDTH 10 0
BBX 8 18 2 0
BITMAP
24
66
00
00
FF
FF
C0
C0
C0
C0
FE
FE
C0
C0
C0
C0
FF
FF
ENDCHAR
STARTCHAR 00CC
ENCODING 204
SWIDTH 308 0
DWIDTH 6 0
BBX 5 18 1 0
BITMAP
C0
60
30
00
F8
60
60
60
60
60
60
60
60
60
60
60
60
F8
ENDCHAR
STARTCHAR 00CD
ENCODING 205
SWIDTH 308 0
DWIDTH 6 0
BBX 5 18 1 0
BITMAP
18
30
60
00
F8
60
60
60
60
60
60
60
60
60
60
60
60
F8
ENDCHAR
STARTCHAR 00CE
ENCODING 206
SWIDTH 308 0
DWIDTH 6 0
BBX 7 18 0 0
BITMAP
38
6C
C6
00
7C
30
30
30
30
30
30
30
30
30
30
30
30
7C
ENDCHAR
STARTCHAR 00CF
ENCODING 207
SWIDTH 308 0
DWIDTH 6 0
BBX 5 18 1 0
BITMAP
88
98
00
00
F8
60
60
60
60
60
60
60
60
60
60
60
60
F8
ENDCHAR
STARTCHAR 00D0
ENCODING 208
SWIDTH 720 0
DWIDTH 14 0
BBX 12 14 1 0
BITMAP
7F00
7FC0
60E0
6060
6030
6030
FC30
FC30
6030
6030
6060
60E0
7FC0
7F00
ENDCHAR
STARTCHAR 00D1
ENCODING 209
SWIDTH 720 0
DWIDTH 14 0
BBX 11 18 2 0
BITMAP
1880
3F80
2300
0000
C060
E060
E060
B060
9860
9860
CC60
C660
C660
C360
C1E0
C1E0
C0E0
C060
ENDCHAR
STARTCHAR 00D2
ENCODING 210
SWIDTH 771 0
DWIDTH 15 0
BBX 13 18 1 0
BITMAP
0600
0600
0100
0000
0FC0
3CE0
7030
6030
C018
C018
C018
C018
C018
C018
6030
6030
38E0
1FC0
ENDCHAR
STARTCHAR 00D3
ENCODING 211
SWIDTH 771 0
DWIDTH 15 0
BBX 13 18 1 0
BITMAP
0180
0300
0200
0000
0FC0
3CE0
7030
6030
C018
C018
C018
C018
C018
C018
6030
6030
38E0
1FC0
ENDCHAR
STARTCHAR 00D4
ENCODING 212
SWIDTH 771 0
DWIDTH 15 0
BBX 13 18 1 0
BITMAP
0700
0D80
18C0
0000
0FC0
3CE0
7030
6030
C018
C018
C018
C018
C018
C018
6030
6030
38E0
1FC0
ENDCHAR
STARTCHAR 00D5
ENCODING 213
SWIDTH 771 0
DWIDTH 15 0
BBX 13 18 1 0
BITMAP
0C40
1FC0
1180
0000
0FC0
3CE0
7030
6030
C018
C018
C018
C018
C018
C018
6030
6030
38E0
1FC0
ENDCHAR
STARTCHAR 00D6
ENCODING 214
SWIDTH 771 0
DWIDTH 15 0
BBX 13 18 1 0
BITMAP
0880
0C80
0000
0000
0FC0
3CE0
7030
6030
C018
C018
C018
C018
C018
C018
6030
6030
38E0
1FC0
ENDCHAR
STARTCHAR 00D7
ENCODING 215
SWIDTH 565 0
DWIDTH 11 0
BBX 9 8 1 3
BITMAP
4180
6300
3600
1C00
1C00
3600
6300
C180
ENDCHAR
STARTCHAR 00D8
ENCODING 216
SWIDTH 771 0
DWIDTH 15 0
BBX 13 14 1 0
BITMAP
0FF0
3DE0
7070
60F0
C198
C118
C318
C618
C418
CC18
7830
7030
38E0
7FC0
ENDCHAR
STARTCHAR 00D9
ENCODING 217
SWIDTH 720 0
DWIDTH 14 0
BBX 10 18 2 0
BITMAP
1800
0C00
0400
0000
C040
C040
C040
C040
C040
C040
C040
C040
C040
C040
C040
C0C0
7180
3F00
ENDCHAR
STARTCHAR 00DA
ENCODING 218
SWIDTH 720 0
DWIDTH 14 0
BBX 10 18 2 0
BITMAP
0700
0600
0C00
0000
C040
C040
C040
C040
C040
C040
C040
C040
C040
C040
C040
C0C0
7180
3F00
ENDCHAR
STARTCHAR 00DB
ENCODING 219
SWIDTH 720 0
DWIDTH 14 0
BBX 10 18 2 0
BITMAP
0E00
1A00
2100
0000
C040
C040
C040
C040
C040
C040
C040
C040
C040
C040
C040
C0C0
7180
3F00
ENDCHAR
STARTCHAR 00DC
ENCODING 220
SWIDTH 720 0
DWIDTH 14 0
BBX 10 18 2 0
BITMAP
1200
3300
0000
0000
C040
C040
C040
C040
C040
C040
C040
C040
C040
C040
C040
C0C0
7180
3F00
ENDCHAR
STARTCHAR 00DD
ENCODING 221
SWIDTH 565 0
DWIDTH 11 0
BBX 11 18 0 0
BITMAP
0300
0600
0C00
0000
C060
60C0
60C0
3180
3180
1B00
1B00
0E00
0400
0400
0400
0400
0400
0400
ENDCHAR
STARTCHAR 00DE
ENCODING 222
SWIDTH 565 0
DWIDTH 11 0
BBX 9 14 2 0
BITMAP
C000
C000
C000
FE00
C300
C180
C180
C180
C300
DF00
FC00
C000
C000
C000
ENDCHAR
STARTCHAR 00DF
ENCODING 223
SWIDTH 617 0
DWIDTH 12 0
BBX 9 15 2 0
BITMAP
3C00
FF00
C300
8300
8300
8E00
8C00
8C00
8E00
8700
8180
8080
8080
9180
9F00
ENDCHAR
STARTCHAR 00E0
ENCODING 224
SWIDTH 514 0
DWIDTH 10 0
BBX 8 15 1 0
BITMAP
30
18
08
00
1C
7F
03
01
01
7F
E1
C1
C3
C7
7D
ENDCHAR
STARTCHAR 00E1
ENCODING 225
SWIDTH 514 0
DWIDTH 10 0
BBX 8 15 1 0
BITMAP
06
0C
08
00
1C
7F
03
01
01
7F
E1
C1
C3
C7
7D
ENDCHAR
STARTCHAR 00E2
ENCODING 226
SWIDTH 514 0
DWIDTH 10 0
BBX 8 15 1 0
BITMAP
1C
1C
22
00
1C
7F
03
01
01
7F
E1
C1
C3
C7
7D
ENDCHAR
STARTCHAR 00E3
ENCODING 227
SWIDTH 514 0
DWIDTH 10 0
BBX 8 14 1 0
BITMAP
79
4E
00
1C
7F
03
01
01
7F
E1
C1
C3
C7
7D
ENDCHAR
STARTCHAR 00E4
ENCODING 228
SWIDTH 514 0
DWIDTH 10 0
BBX 8 14 1 0
BITMAP
36
22
00
1C
7F
03
01
01
7F
E1
C1
C3
C7
7D
ENDCHAR
STARTCHAR 00E5
ENCODING 229
SWIDTH 514 0
DWIDTH 10 0
BBX 8 16 1 0
BITMAP
1C
36
26
1C
00
1C
7F
03
01
01
7F
E1
C1
C3
C7
7D
ENDCHAR
STARTCHAR 00E6
ENCODING 230
SWIDTH 822 0
DWIDTH 16 0
BBX 15 11 1 0
BITMAP
1830
7EFC
038C
0306
0306
7FFE
C300
C300
C380
C7C4
7CFC
ENDCHAR
STARTCHAR 00E7
ENCODING 231
SWIDTH 462 0
DWIDTH 9 0
BBX 8 16 1 -5
BITMAP
0C
3E
60
C0
C0
C0
C0
C0
40
73
3F
08
1C
04
0C
18
ENDCHAR
STARTCHAR 00E8
ENCODING 232
SWIDTH 514 0
DWIDTH 10 0
BBX 9 15 1 0
BITMAP
3000
1800
0C00
0000
0C00
3F00
6300
C180
C180
FF80
C000
C000
4000
7180
3F80
ENDCHAR
STARTCHAR 00E9
ENCODING 233
SWIDTH 514 0
DWIDTH 10 0
BBX 9 15 1 0
BITMAP
0600
0400
0800
0000
0C00
3F00
6300
C180
C180
FF80
C000
C000
4000
7180
3F80
ENDCHAR
STARTCHAR 00EA
ENCODING 234
SWIDTH 514 0
DWIDTH 10 0
BBX 9 15 1 0
BITMAP
1C00
1400
2200
0000
0C00
3F00
6300
C180
C180
FF80
C000
C000
4000
7180
3F80
ENDCHAR
STARTCHAR 00EB
ENCODING 235
SWIDTH 514 0
DWIDTH 10 0
BBX 9 14 1 0
BITMAP
3600
2200
0000
0C00
3F00
6300
C180
C180
FF80
C000
C000
4000
7180
3F80
ENDCHAR
STARTCHAR 00EC
ENCODING 236
SWIDTH 257 0
DWIDTH 5 0
BBX 4 15 0 0
BITMAP
C0
60
30
00
00
20
20
20
20
20
20
20
20
20
20
ENDCHAR
STARTCHAR 00ED
ENCODING 237
SWIDTH 257 0
DWIDTH 5 0
BBX 3 15 2 0
BITMAP
60
40
80
00
00
80
80
80
80
80
80
80
80
80
80
ENDCHAR
STARTCHAR 00EE
ENCODING 238
SWIDTH 257 0
DWIDTH 5 0
BBX 5 15 0 0
BITMAP
70
70
88
00
00
20
20
20
20
20
20
20
20
20
20
ENDCHAR
STARTCHAR 00EF
ENCODING 239
SWIDTH 257 0
DWIDTH 5 0
BBX 5 14 0 0
BITMAP
D8
88
00
00
20
20
20
20
20
20
20
20
20
20
ENDCHAR
STARTCHAR 00F0
ENCODING 240
SWIDTH 565 0
DWIDTH 11 0
BBX 10 15 1 0
BITMAP
1100
1F00
0E00
3B00
0100
0180
3E80
63C0
C0C0
C0C0
C0C0
C0C0
C180
6380
3F00
ENDCHAR
STARTCHAR 00F1
ENCODING 241
SWIDTH 617 0
DWIDTH 12 0
BBX 8 14 2 0
BITMAP
7A
4E
00
0C
BF
C3
C1
81
81
81
81
81
81
81
ENDCHAR
STARTCHAR 00F2
ENCODING 242
SWIDTH 565 0
DWIDTH 11 0
BBX 10 15 1 0
BITMAP
3800
1800
0C00
0000
0C00
3F00
6180
C080
C0C0
C0C0
C0C0
C0C0
4180
6380
3F00
ENDCHAR
STARTCHAR 00F3
ENCODING 243
SWIDTH 565 0
DWIDTH 11 0
BBX 10 15 1 0
BITMAP
0700
0600
0C00
0000
0C00
3F00
6180
C080
C0C0
C0C0
C0C0
C0C0
4180
6380
3F00
ENDCHAR
STARTCHAR 00F4
ENCODING 244
SWIDTH 565 0
DWIDTH 11 0
BBX 10 15 1 0
BITMAP
0C00
1E00
3300
0000
0C00
3F00
6180
C080
C0C0
C0C0
C0C0
C0C0
4180
6380
3F00
ENDCHAR
STARTCHAR 00F5
ENCODING 245
SWIDTH 565 0
DWIDTH 11 0
BBX 10 14 1 0
BITMAP
3900
6700
0000
0C00
3F00
6180
C080
C0C0
C0C0
C0C0
C0C0
4180
6380
3F00
ENDCHAR
STARTCHAR 00F6
ENCODING 246
SWIDTH 565 0
DWIDTH 11 0
BBX 10 14 1 0
BITMAP
3300
3200
0000
0C00
3F00
6180
C080
C0C0
C0C0
C0C0
C0C0
4180
6380
3F00
ENDCHAR
STARTCHAR 00F7
ENCODING 247
SWIDTH 565 0
DWIDTH 11 0
BBX 9 9 1 2
BITMAP
1C00
0800
0000
FF80
FF80
0000
0800
1C00
0800
ENDCHAR
STARTCHAR 00F8
ENCODING 248
SWIDTH 565 0
DWIDTH 11 0
BBX 10 12 1 -1
BITMAP
0C80
3F80
6380
C280
C6C0
CCC0
C8C0
D8C0
7180
7380
7F00
4000
ENDCHAR
STARTCHAR 00F9
ENCODING 249
SWIDTH 617 0
DWIDTH 12 0
BBX 8 15 2 0
BITMAP
30
30
18
00
00
81
81
81
81
81
81
81
83
C7
7D
ENDCHAR
STARTCHAR 00FA
ENCODING 250
SWIDTH 617 0
DWIDTH 12 0
BBX 8 15 2 0
BITMAP
06
0C
18
00
00
81
81
81
81
81
81
81
83
C7
7D
ENDCHAR
STARTCHAR 00FB
ENCODING 251
SWIDTH 617 0
DWIDTH 12 0
BBX 8 15 2 0
BITMAP
18
3C
66
00
00
81
81
81
81
81
81
81
83
C7
7D
ENDCHAR
STARTCHAR 00FC
ENCODING 252
SWIDTH 617 0
DWIDTH 12 0
BBX 8 14 2 0
BITMAP
66
24
00
00
81
81
81
81
81
81
81
83
C7
7D
ENDCHAR
STARTCHAR 00FD
ENCODING 253
SWIDTH 462 0
DWIDTH 9 0
BBX 10 20 0 -5
BITMAP
0300
0600
0C00
0000
0000
C0C0
6180
6180
2100
3300
3300
1200
1E00
0E00
0C00
0C00
0800
1800
F000
E000
ENDCHAR
STARTCHAR 00FE
ENCODING 254
SWIDTH 565 0
DWIDTH 11 0
BBX 9 20 2 -5
BITMAP
8000
8000
8000
8000
8C00
BE00
C300
C180
8180
8180
8180
C180
C100
E300
BE00
8000
8000
8000
8000
8000
ENDCHAR
STARTCHAR 00FF
ENCODING 255
SWIDTH 462 0
DWIDTH 9 0
BBX 10 19 0 -5
BITMAP
3300
1200
0000
0000
C0C0
6180
6180
2100
3300
3300
1200
1E00
0E00
0C00
0C00
0800
1800
F000
E000
ENDCHAR
STARTCHAR 0100
ENCODING 256
SWIDTH 617 0
DWIDTH 12 0
BBX 12 17 0 0
BITMAP
1F80
1F80
0000
0600
0700
0F00
0D00
0980
1980
1880
10C0
3FC0
3FE0
6060
6020
4030
C030
ENDCHAR
STARTCHAR 0101
ENCODING 257
SWIDTH 514 0
DWIDTH 10 0
BBX 8 13 1 0
BITMAP
3E
00
1C
7F
03
01
01
7F
E1
C1
C3
C7
7D
ENDCHAR
STARTCHAR 0102
ENCODING 258
SWIDTH 617 0
DWIDTH 12 0
BBX 12 18 0 0
BITMAP
1080
0F80
0700
0000
0600
0700
0F00
0D00
0980
1980
1880
10C0
3FC0
3FE0
6060
6020
4030
C030
ENDCHAR
STARTCHAR 0103
ENCODING 259
SWIDTH 514 0
DWIDTH 10 0
BBX 8 14 1 0
BITMAP
22
3E
00
1C
7F
03
01
01
7F
E1
C1
C3
C7
7D
ENDCHAR
STARTCHAR 0104
ENCODING 260
SWIDTH 617 0
DWIDTH 12 0
BBX 12 18 0 -4
BITMAP
0600
0700
0F00
0D00
0980
1980
1880
10C0
3FC0
3FE0
6060
6020
4030
C030
0020
0060
0060
0070
ENDCHAR
STARTCHAR 0105
ENCODING 261
SWIDTH 514 0
DWIDTH 10 0
BBX 9 15 1 -4
BITMAP
1C00
7F00
0300
0100
0100
7F00
E100
C100
C300
C700
7D00
0300
0200
0200
0380
ENDCHAR
STARTCHAR 0106
ENCODING 262
SWIDTH 617 0
DWIDTH 12 0
BBX 10 18 1 0
BITMAP
0180
0300
0600
0000
0FC0
3DC0
7000
6000
4000
C000
C000
C000
C000
C000
6000
7000
3840
1FC0
ENDCHAR
STARTCHAR 0107
ENCODING 263
SWIDTH 462 0
DWIDTH 9 0
BBX 8 15 1 0
BITMAP
06
04
08
00
0C
3E
60
C0
C0
C0
C0
C0
40
73
3F
ENDCHAR
STARTCHAR 0108
ENCODING 264
SWIDTH 617 0
DWIDTH 12 0
BBX 10 18 1 0
BITMAP
0700
0D80
18C0
0000
0FC0
3DC0
7000
6000
4000
C000
C000
C000
C000
C000
6000
7000
3840
1FC0
ENDCHAR
STARTCHAR 0109
ENCODING 265
SWIDTH 462 0
DWIDTH 9 0
BBX 8 15 1 0
BITMAP
1C
14
22
00
0C
3E
60
C0
C0
C0
C0
C0
40
73
3F
ENDCHAR
STARTCHAR 010A
ENCODING 266
SWIDTH 617 0
DWIDTH 12 0
BBX 10 18 1 0
BITMAP
0200
0600
0000
0000
0FC0
3DC0
7000
6000
4000
C000
C000
C000
C000
C000
6000
7000
3840
1FC0
ENDCHAR
STARTCHAR 010B
ENCODING 267
SWIDTH 462 0
DWIDTH 9 0
BBX 8 14 1 0
BITMAP
0C
08
00
0C
3E
60
C0
C0
C0
C0
C0
40
73
3F
ENDCHAR
STARTCHAR 010C
ENCODING 268
SWIDTH 617 0
DWIDTH 12 0
BBX 10 18 1 0
BITMAP
0980
0700
0600
0000
0FC0
3DC0
7000
6000
4000
C000
C000
C000
C000
C000
6000
7000
3840
1FC0
ENDCHAR
STARTCHAR 010D
ENCODING 269
SWIDTH 462 0
DWIDTH 9 0
BBX 8 15 1 0
BITMAP
63
36
1C
00
0C
3E
60
C0
C0
C0
C0
C0
40
73
3F
ENDCHAR
STARTCHAR 010E
ENCODING 270
SWIDTH 720 0
DWIDTH 14 0
BBX 11 18 2 0
BITMAP
3300
1E00
0C00
0000
FE00
FF80
C1C0
C0C0
C060
C060
C060
C060
C060
C060
C0C0
C1C0
FF80
FE00
ENDCHAR
STARTCHAR 010F
ENCODING 271
SWIDTH 565 0
DWIDTH 11 0
BBX 12 15 1 0
BITMAP
0090
00B0
00A0
0080
1880
7E80
6180
C180
C080
C080
C080
C180
C180
6380
3E80
ENDCHAR
STARTCHAR 0110
ENCODING 272
SWIDTH 720 0
DWIDTH 14 0
BBX 12 14 1 0
BITMAP
7F00
7FC0
60E0
6060
6030
6030
FC30
FC30
6030
6030
6060
60E0
7FC0
7F00
ENDCHAR
STARTCHAR 0111
ENCODING 273
SWIDTH 617 0
DWIDTH 12 0
BBX 11 15 1 0
BITMAP
0080
0080
1FE0
0080
0880
3E80
6180
C180
C080
C080
C080
C180
C180
6380
3E80
ENDCHAR
STARTCHAR 0112
ENCODING 274
SWIDTH 514 0
DWIDTH 10 0
BBX 8 17 2 0
BITMAP
7E
7E
00
FF
FF
C0
C0
C0
C0
FE
FE
C0
C0
C0
C0
FF
FF
ENDCHAR
STARTCHAR 0113
ENCODING 275
SWIDTH 514 0
DWIDTH 10 0
BBX 9 13 1 0
BITMAP
3E00
0000
0C00
3F00
6300
C180
C180
FF80
C000
C000
4000
7180
3F80
ENDCHAR
STARTCHAR 0114
ENCODING 276
SWIDTH 514 0
DWIDTH 10 0
BBX 8 18 2 0
BITMAP
42
7E
38
00
FF
FF
C0
C0
C0
C0
FE
FE
C0
C0
C0
C0
FF
FF
ENDCHAR
STARTCHAR 0115
ENCODING 277
SWIDTH 514 0
DWIDTH 10 0
BBX 9 14 1 0
BITMAP
2200
3E00
0000
0C00
3F00
6300
C180
C180
FF80
C000
C000
4000
7180
3F80
ENDCHAR
STARTCHAR 0116
ENCODING 278
SWIDTH 514 0
DWIDTH 10 0
BBX 8 18 2 0
BITMAP
18
18
00
00
FF
FF
C0
C0
C0
C0
FE
FE
C0
C0
C0
C0
FF
FF
ENDCHAR
STARTCHAR 0117
ENCODING 279
SWIDTH 514 0
DWIDTH 10 0
BBX 9 14 1 0
BITMAP
0C00
0800
0000
0C00
3F00
6300
C180
C180
FF80
C000
C000
4000
7180
3F80
ENDCHAR
STARTCHAR 0118
ENCODING 280
SWIDTH 514 0
DWIDTH 10 0
BBX 8 18 2 -4
BITMAP
FF
FF
C0
C0
C0
C0
FE
FE
C0
C0
C0
C0
FF
FF
06
04
0C
07
ENDCHAR
STARTCHAR 0119
ENCODING 281
SWIDTH 514 0
DWIDTH 10 0
BBX 9 15 1 -4
BITMAP
0C00
3F00
6300
C180
C180
FF80
C000
C000
4000
7180
3F80
0200
0600
0600
0700
ENDCHAR
STARTCHAR 011A
ENCODING 282
SWIDTH 514 0
DWIDTH 10 0
BBX 8 18 2 0
BITMAP
66
3C
18
00
FF
FF
C0
C0
C0
C0
FE
FE
C0
C0
C0
C0
FF
FF
ENDCHAR
STARTCHAR 011B
ENCODING 283
SWIDTH 514 0
DWIDTH 10 0
BBX 9 15 1 0
BITMAP
6300
3600
1C00
0000
0C00
3F00
6300
C180
C180
FF80
C000
C000
4000
7180
3F80
ENDCHAR
STARTCHAR 011C
ENCODING 284
SWIDTH 720 0
DWIDTH 14 0
BBX 12 18 1 0
BITMAP
0700
0580
0840
0000
0FE0
3EE0
3000
6000
4000
C000
C000
C1F0
C030
C030
6030
7030
3C70
0FF0
ENDCHAR
STARTCHAR 011D
ENCODING 285
SWIDTH 565 0
DWIDTH 11 0
BBX 9 20 1 -5
BITMAP
0C00
1E00
3300
0000
1800
3E80
6180
C180
C080
C080
C080
C080
C180
6380
3E80
0080
0180
0180
7F00
1C00
ENDCHAR
STARTCHAR 011E
ENCODING 286
SWIDTH 720 0
DWIDTH 14 0
BBX 12 18 1 0
BITMAP
0840
0F80
0700
0000
0FE0
3EE0
3000
6000
4000
C000
C000
C1F0
C030
C030
6030
7030
3C70
0FF0
ENDCHAR
STARTCHAR 011F
ENCODING 287
SWIDTH 565 0
DWIDTH 11 0
BBX 9 19 1 -5
BITMAP
2300
1E00
0000
1800
3E80
6180
C180
C080
C080
C080
C080
C180
6380
3E80
0080
0180
0180
7F00
1C00
ENDCHAR
STARTCHAR 0120
ENCODING 288
SWIDTH 720 0
DWIDTH 14 0
BBX 12 18 1 0
BITMAP
0300
0300
0000
0000
0FE0
3EE0
3000
6000
4000
C000
C000
C1F0
C030
C030
6030
7030
3C70
0FF0
ENDCHAR
STARTCHAR 0121
ENCODING 289
SWIDTH 565 0
DWIDTH 11 0
BBX 9 19 1 -5
BITMAP
0C00
0C00
0000
1800
3E80
6180
C180
C080
C080
C080
C080
C180
6380
3E80
0080
0180
0180
7F00
1C00
ENDCHAR
STARTCHAR 0122
ENCODING 290
SWIDTH 720 0
DWIDTH 14 0
BBX 12 18 1 -4
BITMAP
0FE0
3EE0
3000
6000
4000
C000
C000
C1F0
C030
C030
6030
7030
3C70
0FF0
0000
0300
0300
0200
ENDCHAR
STARTCHAR 0123
ENCODING 291
SWIDTH 565 0
DWIDTH 11 0
BBX 9 20 1 -5
BITMAP
0400
0C00
0800
0000
1800
3E80
6180
C180
C080
C080
C080
C080
C180
6380
3E80
0080
0180
0180
7F00
1C00
ENDCHAR
STARTCHAR 0124
ENCODING 292
SWIDTH 720 0
DWIDTH 14 0
BBX 11 18 2 0
BITMAP
0E00
1B00
2100
0000
C060
C060
C060
C060
C060
C060
FFE0
FFE0
C060
C060
C060
C060
C060
C060
ENDCHAR
STARTCHAR 0125
ENCODING 293
SWIDTH 617 0
DWIDTH 12 0
BBX 11 19 -1 0
BITMAP
3800
6C00
C600
0000
1000
1000
1000
1000
1180
17E0
1860
1820
1020
1020
1020
1020
1020
1020
1020
ENDCHAR
STARTCHAR 0126
ENCODING 294
SWIDTH 720 0
DWIDTH 14 0
BBX 14 14 0 0
BITMAP
3018
3018
FFFC
FFFC
3018
3018
3FF8
3FF8
3018
3018
3018
3018
3018
3018
ENDCHAR
STARTCHAR 0127
ENCODING 295
SWIDTH 617 0
DWIDTH 12 0
BBX 10 15 0 0
BITMAP
2000
2000
FE00
2000
2000
2F80
38C0
3040
2040
2040
2040
2040
2040
2040
2040
ENDCHAR
STARTCHAR 0128
ENCODING 296
SWIDTH 308 0
DWIDTH 6 0
BBX 7 18 0 0
BITMAP
62
FE
8C
00
7C
30
30
30
30
30
30
30
30
30
30
30
30
7C
ENDCHAR
STARTCHAR 0129
ENCODING 297
SWIDTH 257 0
DWIDTH 5 0
BBX 7 14 -1 0
BITMAP
72
9C
00
00
10
10
10
10
10
10
10
10
10
10
ENDCHAR
STARTCHAR 012A
ENCODING 298
SWIDTH 308 0
DWIDTH 6 0
BBX 6 17 0 0
BITMAP
FC
FC
00
7C
30
30
30
30
30
30
30
30
30
30
30
30
7C
ENDCHAR
STARTCHAR 012B
ENCODING 299
SWIDTH 257 0
DWIDTH 5 0
BBX 5 13 0 0
BITMAP
F8
00
00
20
20
20
20
20
20
20
20
20
20
ENDCHAR
STARTCHAR 012C
ENCODING 300
SWIDTH 308 0
DWIDTH 6 0
BBX 6 18 0 0
BITMAP
84
7C
38
00
7C
30
30
30
30
30
30
30
30
30
30
30
30
7C
ENDCHAR
STARTCHAR 012D
ENCODING 301
SWIDTH 257 0
DWIDTH 5 0
BBX 5 14 0 0
BITMAP
88
F8
00
00
20
20
20
20
20
20
20
20
20
20
ENDCHAR
STARTCHAR 012E
ENCODING 302
SWIDTH 308 0
DWIDTH 6 0
BBX 5 18 1 -4
BITMAP
F8
60
60
60
60
60
60
60
60
60
60
60
60
F8
30
20
20
38
ENDCHAR
STARTCHAR 012F
ENCODING 303
SWIDTH 257 0
DWIDTH 5 0
BBX 3 18 1 -4
BITMAP
40
40
00
00
40
40
40
40
40
40
40
40
40
40
C0
80
80
E0
ENDCHAR
STARTCHAR 0130
ENCODING 304
SWIDTH 308 0
DWIDTH 6 0
BBX 5 18 1 0
BITMAP
20
60
00
00
F8
60
60
60
60
60
60
60
60
60
60
60
60
F8
ENDCHAR
STARTCHAR 0131
ENCODING 305
SWIDTH 257 0
DWIDTH 5 0
BBX 1 10 2 0
BITMAP
80
80
80
80
80
80
80
80
80
80
ENDCHAR
STARTCHAR 0132
ENCODING 306
SWIDTH 565 0
DWIDTH 11 0
BBX 9 18 1 -4
BITMAP
F980
6180
6180
6180
6180
6180
6180
6180
6180
6180
6180
6180
6180
F980
0180
0180
0F00
0E00
ENDCHAR
STARTCHAR 0133
ENCODING 307
SWIDTH 514 0
DWIDTH 10 0
BBX 7 19 2 -5
BITMAP
86
84
00
00
84
84
84
84
84
84
84
84
84
84
04
04
04
3C
38
ENDCHAR
STARTCHAR 0134
ENCODING 308
SWIDTH 257 0
DWIDTH 5 0
BBX 8 22 -2 -4
BITMAP
1C
36
63
00
0C
0C
0C
0C
0C
0C
0C
0C
0C
0C
0C
0C
0C
0C
08
18
F8
60
ENDCHAR
STARTCHAR 0135
ENCODING 309
SWIDTH 257 0
DWIDTH 5 0
BBX 6 20 -1 -5
BITMAP
38
38
44
00
00
10
10
10
10
10
10
10
10
10
10
10
10
10
F0
E0
ENDCHAR
STARTCHAR 0136
ENCODING 310
SWIDTH 617 0
DWIDTH 12 0
BBX 10 18 2 -4
BITMAP
C180
C180
C300
C600
CC00
D800
F800
F800
CC00
C600
C600
C300
C180
C0C0
0000
0C00
0800
1800
ENDCHAR
STARTCHAR 0137
ENCODING 311
SWIDTH 514 0
DWIDTH 10 0
BBX 8 19 2 -4
BITMAP
80
80
80
80
80
86
8C
98
B0
F0
D8
8C
8C
86
83
00
10
30
20
ENDCHAR
STARTCHAR 0138
ENCODING 312
SWIDTH 514 0
DWIDTH 10 0
BBX 8 10 2 0
BITMAP
86
8C
98
98
B0
D8
8C
8C
86
83
ENDCHAR
STARTCHAR 0139
ENCODING 313
SWIDTH 514 0
DWIDTH 10 0
BBX 8 18 2 0
BITMAP
60
C0
80
00
C0
C0
C0
C0
C0
C0
C0
C0
C0
C0
C0
C0
FF
FF
ENDCHAR
STARTCHAR 013A
ENCODING 314
SWIDTH 257 0
DWIDTH 5 0
BBX 3 19 2 0
BITMAP
60
C0
80
00
80
80
80
80
80
80
80
80
80
80
80
80
80
80
80
ENDCHAR
STARTCHAR 013B
ENCODING 315
SWIDTH 514 0
DWIDTH 10 0
BBX 8 18 2 -4
BITMAP
C0
C0
C0
C0
C0
C0
C0
C0
C0
C0
C0
C0
FF
FF
00
18
18
10
ENDCHAR
STARTCHAR 013C
ENCODING 316
SWIDTH 257 0
DWIDTH 5 0
BBX 3 19 1 -4
BITMAP
40
40
40
40
40
40
40
40
40
40
40
40
40
40
40
00
60
40
C0
ENDCHAR
STARTCHAR 013D
ENCODING 317
SWIDTH 514 0
DWIDTH 10 0
BBX 8 14 2 0
BITMAP
C3
C2
C2
C0
C0
C0
C0
C0
C0
C0
C0
C0
FF
FF
ENDCHAR
STARTCHAR 013E
ENCODING 318
SWIDTH 257 0
DWIDTH 5 0
BBX 5 15 2 0
BITMAP
98
90
B0
80
80
80
80
80
80
80
80
80
80
80
80
ENDCHAR
STARTCHAR 013F
ENCODING 319
SWIDTH 514 0
DWIDTH 10 0
BBX 8 14 2 0
BITMAP
C0
C0
C0
C0
C0
C0
C4
CC
C0
C0
C0
C0
FF
FF
ENDCHAR
STARTCHAR 0140
ENCODING 320
SWIDTH 257 0
DWIDTH 5 0
BBX 4 15 2 0
BITMAP
80
80
80
80
80
80
80
B0
B0
80
80
80
80
80
80
ENDCHAR
STARTCHAR 0141
ENCODING 321
SWIDTH 514 0
DWIDTH 10 0
BBX 10 14 0 0
BITMAP
3000
3000
3000
3000
3000
3600
3E00
3800
F000
3000
3000
3000
3FC0
3FC0
ENDCHAR
STARTCHAR 0142
ENCODING 322
SWIDTH 257 0
DWIDTH 5 0
BBX 5 15 0 0
BITMAP
20
20
20
20
20
20
28
30
60
A0
20
20
20
20
20
ENDCHAR
STARTCHAR 0143
ENCODING 323
SWIDTH 720 0
DWIDTH 14 0
BBX 11 18 2 0
BITMAP
0300
0600
0C00
0000
C060
E060
E060
B060
9860
9860
CC60
C660
C660
C360
C1E0
C1E0
C0E0
C060
ENDCHAR
STARTCHAR 0144
ENCODING 324
SWIDTH 617 0
DWIDTH 12 0
BBX 8 15 2 0
BITMAP
06
0C
18
00
0C
BF
C3
C1
81
81
81
81
81
81
81
ENDCHAR
STARTCHAR 0145
ENCODING 325
SWIDTH 720 0
DWIDTH 14 0
BBX 11 18 2 -4
BITMAP
C060
E060
E060
B060
9860
9860
CC60
C660
C660
C360
C1E0
C1E0
C0E0
C060
0000
0600
0400
0C00
ENDCHAR
STARTCHAR 0146
ENCODING 326
SWIDTH 617 0
DWIDTH 12 0
BBX 8 15 2 -4
BITMAP
0C
BF
C3
C1
81
81
81
81
81
81
81
00
08
18
10
ENDCHAR
STARTCHAR 0147
ENCODING 327
SWIDTH 720 0
DWIDTH 14 0
BBX 11 18 2 0
BITMAP
1300
0E00
0C00
0000
C060
E060
E060
B060
9860
9860
CC60
C660
C660
C360
C1E0
C1E0
C0E0
C060
ENDCHAR
STARTCHAR 0148
ENCODING 328
SWIDTH 617 0
DWIDTH 12 0
BBX 8 15 2 0
BITMAP
42
3C
18
00
0C
BF
C3
C1
81
81
81
81
81
81
81
ENDCHAR
STARTCHAR 0149
ENCODING 329
SWIDTH 668 0
DWIDTH 13 0
BBX 12 14 0 0
BITMAP
6000
6000
4000
C180
9FE0
1C30
1830
1830
1830
1830
1830
1830
1830
1830
ENDCHAR
STARTCHAR 014A
ENCODING 330
SWIDTH 720 0
DWIDTH 14 0
BBX 11 18 2 -4
BITMAP
C060
E060
E060
B060
9860
9860
CC60
C660
C260
C360
C1E0
C0E0
C0E0
C060
0060
0060
03C0
0380
ENDCHAR
STARTCHAR 014B
ENCODING 331
SWIDTH 617 0
DWIDTH 12 0
BBX 8 16 2 -5
BITMAP
0C
BF
C3
C1
81
81
81
81
81
81
81
01
01
01
0F
0E
ENDCHAR
STARTCHAR 014C
ENCODING 332
SWIDTH 771 0
DWIDTH 15 0
BBX 13 17 1 0
BITMAP
0F80
0F80
0000
0FC0
3CE0
7030
6030
C018
C018
C018
C018
C018
C018
6030
6030
38E0
1FC0
ENDCHAR
STARTCHAR 014D
ENCODING 333
SWIDTH 565 0
DWIDTH 11 0
BBX 10 13 1 0
BITMAP
3F00
0000
0C00
3F00
6180
C080
C0C0
C0C0
C0C0
C0C0
4180
6380
3F00
ENDCHAR
STARTCHAR 014E
ENCODING 334
SWIDTH 771 0
DWIDTH 15 0
BBX 13 18 1 0
BITMAP
08C0
0F80
0700
0000
0FC0
3CE0
7030
6030
C018
C018
C018
C018
C018
C018
6030
6030
38E0
1FC0
ENDCHAR
STARTCHAR 014F
ENCODING 335
SWIDTH 565 0
DWIDTH 11 0
BBX 10 14 1 0
BITMAP
2300
1E00
0000
0C00
3F00
6180
C080
C0C0
C0C0
C0C0
C0C0
4180
6380
3F00
ENDCHAR
STARTCHAR 0150
ENCODING 336
SWIDTH 771 0
DWIDTH 15 0
BBX 13 18 1 0
BITMAP
0CC0
0980
1100
0000
0FC0
3CE0
7030
6030
C018
C018
C018
C018
C018
C018
6030
6030
38E0
1FC0
ENDCHAR
STARTCHAR 0151
ENCODING 337
SWIDTH 565 0
DWIDTH 11 0
BBX 10 15 1 0
BITMAP
1B00
3200
2600
0000
0C00
3F00
6180
C080
C0C0
C0C0
C0C0
C0C0
4180
6380
3F00
ENDCHAR
STARTCHAR 0152
ENCODING 338
SWIDTH 925 0
DWIDTH 18 0
BBX 16 14 1 0
BITMAP
0FFF
3CFF
7040
6040
C040
C040
C07F
C07F
C040
C040
6040
6040
38FF
1FFF
ENDCHAR
STARTCHAR 0153
ENCODING 339
SWIDTH 925 0
DWIDTH 18 0
BBX 16 11 1 0
BITMAP
0C18
3F7E
61C3
C1C3
C0C1
C0FF
C080
C0C0
41C0
6361
3E3F
ENDCHAR
STARTCHAR 0154
ENCODING 340
SWIDTH 617 0
DWIDTH 12 0
BBX 9 18 2 0
BITMAP
0C00
0C00
1000
0000
FC00
FF00
C380
C180
C180
C180
C300
FE00
C400
C600
C300
C300
C180
C180
ENDCHAR
STARTCHAR 0155
ENCODING 341
SWIDTH 411 0
DWIDTH 8 0
BBX 6 15 2 0
BITMAP
18
18
30
00
0C
BC
E0
C0
80
80
80
80
80
80
80
ENDCHAR
STARTCHAR 0156
ENCODING 342
SWIDTH 617 0
DWIDTH 12 0
BBX 9 18 2 -4
BITMAP
FC00
FF00
C380
C180
C180
C180
C300
FE00
C400
C600
C300
C300
C180
C180
0000
0C00
0800
1800
ENDCHAR
STARTCHAR 0157
ENCODING 343
SWIDTH 411 0
DWIDTH 8 0
BBX 7 15 1 -4
BITMAP
06
5E
70
60
40
40
40
40
40
40
40
00
60
40
C0
ENDCHAR
STARTCHAR 0158
ENCODING 344
SWIDTH 617 0
DWIDTH 12 0
BBX 9 18 2 0
BITMAP
6600
3C00
1800
0000
FC00
FF00
C380
C180
C180
C180
C300
FE00
C400
C600
C300
C300
C180
C180
ENDCHAR
STARTCHAR 0159
ENCODING 345
SWIDTH 411 0
DWIDTH 8 0
BBX 6 15 2 0
BITMAP
8C
D8
70
00
0C
BC
E0
C0
80
80
80
80
80
80
80
ENDCHAR
STARTCHAR 015A
ENCODING 346
SWIDTH 514 0
DWIDTH 10 0
BBX 9 18 1 0
BITMAP
0600
0C00
0800
0000
3F00
7700
C000
C000
C000
6000
3C00
0E00
0300
0180
0180
0180
C700
FE00
ENDCHAR
STARTCHAR 015B
ENCODING 347
SWIDTH 462 0
DWIDTH 9 0
BBX 7 15 1 0
BITMAP
0C
0C
18
00
18
7E
C0
C0
E0
38
0E
02
02
86
FC
ENDCHAR
STARTCHAR 015C
ENCODING 348
SWIDTH 514 0
DWIDTH 10 0
BBX 9 18 1 0
BITMAP
1C00
3600
6300
0000
3F00
7700
C000
C000
C000
6000
3C00
0E00
0300
0180
0180
0180
C700
FE00
ENDCHAR
STARTCHAR 015D
ENCODING 349
SWIDTH 462 0
DWIDTH 9 0
BBX 7 15 1 0
BITMAP
18
3C
64
00
18
7E
C0
C0
E0
38
0E
02
02
86
FC
ENDCHAR
STARTCHAR 015E
ENCODING 350
SWIDTH 514 0
DWIDTH 10 0
BBX 9 19 1 -5
BITMAP
3F00
7700
C000
C000
C000
6000
3C00
0E00
0300
0180
0180
0180
C700
FE00
1000
1800
0C00
0C00
3000
ENDCHAR
STARTCHAR 015F
ENCODING 351
SWIDTH 462 0
DWIDTH 9 0
BBX 7 16 1 -5
BITMAP
18
7E
C0
C0
E0
38
0E
02
02
86
FC
10
18
0C
08
30
ENDCHAR
STARTCHAR 0160
ENCODING 352
SWIDTH 514 0
DWIDTH 10 0
BBX 9 18 1 0
BITMAP
3200
1C00
1C00
0000
3F00
7700
C000
C000
C000
6000
3C00
0E00
0300
0180
0180
0180
C700
FE00
ENDCHAR
STARTCHAR 0161
ENCODING 353
SWIDTH 462 0
DWIDTH 9 0
BBX 7 15 1 0
BITMAP
46
6C
38
00
18
7E
C0
C0
E0
38
0E
02
02
86
FC
ENDCHAR
STARTCHAR 0162
ENCODING 354
SWIDTH 514 0
DWIDTH 10 0
BBX 11 19 0 -5
BITMAP
FFE0
FFE0
0400
0400
0400
0400
0400
0400
0400
0400
0400
0400
0400
0400
0400
0E00
0200
0600
0C00
ENDCHAR
STARTCHAR 0163
ENCODING 355
SWIDTH 360 0
DWIDTH 7 0
BBX 7 18 0 -5
BITMAP
30
30
30
FE
30
30
30
30
30
30
30
30
1E
08
1C
04
0C
38
ENDCHAR
STARTCHAR 0164
ENCODING 356
SWIDTH 514 0
DWIDTH 10 0
BBX 11 18 0 0
BITMAP
1300
0E00
0C00
0000
FFE0
FFE0
0400
0400
0400
0400
0400
0400
0400
0400
0400
0400
0400
0400
ENDCHAR
STARTCHAR 0165
ENCODING 357
SWIDTH 360 0
DWIDTH 7 0
BBX 9 15 0 0
BITMAP
0180
0180
3100
3000
3000
FE00
3000
3000
3000
3000
3000
3000
3000
3000
1E00
ENDCHAR
STARTCHAR 0166
ENCODING 358
SWIDTH 514 0
DWIDTH 10 0
BBX 11 14 0 0
BITMAP
FFE0
FFE0
0400
0400
0400
0400
3F80
3F80
0400
0400
0400
0400
0400
0400
ENDCHAR
STARTCHAR 0167
ENCODING 359
SWIDTH 360 0
DWIDTH 7 0
BBX 7 13 0 0
BITMAP
30
30
30
FE
30
30
FC
FC
30
30
30
30
1E
ENDCHAR
STARTCHAR 0168
ENCODING 360
SWIDTH 720 0
DWIDTH 14 0
BBX 10 18 2 0
BITMAP
1880
3F00
2300
0000
C040
C040
C040
C040
C040
C040
C040
C040
C040
C040
C040
C0C0
7180
3F00
ENDCHAR
STARTCHAR 0169
ENCODING 361
SWIDTH 617 0
DWIDTH 12 0
BBX 8 14 2 0
BITMAP
7A
4E
00
00
81
81
81
81
81
81
81
83
C7
7D
ENDCHAR
STARTCHAR 016A
ENCODING 362
SWIDTH 720 0
DWIDTH 14 0
BBX 10 17 2 0
BITMAP
3F00
3F00
0000
C040
C040
C040
C040
C040
C040
C040
C040
C040
C040
C040
C0C0
7180
3F00
ENDCHAR
STARTCHAR 016B
ENCODING 363
SWIDTH 617 0
DWIDTH 12 0
BBX 8 13 2 0
BITMAP
7E
00
00
81
81
81
81
81
81
81
83
C7
7D
ENDCHAR
STARTCHAR 016C
ENCODING 364
SWIDTH 720 0
DWIDTH 14 0
BBX 10 18 2 0
BITMAP
2100
3F00
0E00
0000
C040
C040
C040
C040
C040
C040
C040
C040
C040
C040
C040
C0C0
7180
3F00
ENDCHAR
STARTCHAR 016D
ENCODING 365
SWIDTH 617 0
DWIDTH 12 0
BBX 8 14 2 0
BITMAP
46
3C
00
00
81
81
81
81
81
81
81
83
C7
7D
ENDCHAR
STARTCHAR 016E
ENCODING 366
SWIDTH 720 0
DWIDTH 14 0
BBX 10 19 2 0
BITMAP
1E00
1200
1200
0C00
0000
C040
C040
C040
C040
C040
C040
C040
C040
C040
C040
C040
C0C0
7180
3F00
ENDCHAR
STARTCHAR 016F
ENCODING 367
SWIDTH 617 0
DWIDTH 12 0
BBX 8 16 2 0
BITMAP
18
24
24
3C
00
00
81
81
81
81
81
81
81
83
C7
7D
ENDCHAR
STARTCHAR 0170
ENCODING 368
SWIDTH 720 0
DWIDTH 14 0
BBX 10 18 2 0
BITMAP
1B00
3200
2400
0000
C040
C040
C040
C040
C040
C040
C040
C040
C040
C040
C040
C0C0
7180
3F00
ENDCHAR
STARTCHAR 0171
ENCODING 369
SWIDTH 617 0
DWIDTH 12 0
BBX 8 15 2 0
BITMAP
36
66
4C
00
00
81
81
81
81
81
81
81
83
C7
7D
ENDCHAR
STARTCHAR 0172
ENCODING 370
SWIDTH 720 0
DWIDTH 14 0
BBX 10 18 2 -4
BITMAP
C040
C040
C040
C040
C040
C040
C040
C040
C040
C040
C040
C0C0
7180
3F00
0300
0200
0200
0380
ENDCHAR
STARTCHAR 0173
ENCODING 371
SWIDTH 617 0
DWIDTH 12 0
BBX 9 14 2 -4
BITMAP
8100
8100
8100
8100
8100
8100
8100
8300
C700
7D00
0300
0200
0600
0380
ENDCHAR
STARTCHAR 0174
ENCODING 372
SWIDTH 925 0
DWIDTH 18 0
BBX 18 18 0 0
BITMAP
00C000
016000
021000
000000
C0C0C0
40C080
61E180
61E180
612180
232100
333300
333300
321300
161A00
1E1E00
1C0E00
0C0E00
0C0C00
ENDCHAR
STARTCHAR 0175
ENCODING 373
SWIDTH 771 0
DWIDTH 15 0
BBX 15 15 0 0
BITMAP
0380
03C0
0440
0000
0000
C386
4386
6284
66CC
26CC
3448
3468
3C78
1838
1830
ENDCHAR
STARTCHAR 0176
ENCODING 374
SWIDTH 565 0
DWIDTH 11 0
BBX 11 18 0 0
BITMAP
0E00
1B00
3180
0000
C060
60C0
60C0
3180
3180
1B00
1B00
0E00
0400
0400
0400
0400
0400
0400
ENDCHAR
STARTCHAR 0177
ENCODING 375
SWIDTH 462 0
DWIDTH 9 0
BBX 10 20 0 -5
BITMAP
0C00
1E00
3300
0000
0000
C0C0
6180
6180
2100
3300
3300
1200
1E00
0E00
0C00
0C00
0800
1800
F000
E000
ENDCHAR
STARTCHAR 0178
ENCODING 376
SWIDTH 565 0
DWIDTH 11 0
BBX 11 18 0 0
BITMAP
1100
1B00
0000
0000
C060
60C0
60C0
3180
3180
1B00
1B00
0E00
0400
0400
0400
0400
0400
0400
ENDCHAR
STARTCHAR 0179
ENCODING 377
SWIDTH 565 0
DWIDTH 11 0
BBX 9 18 1 0
BITMAP
0600
0C00
0800
0000
FF80
FF80
0300
0300
0600
0400
0C00
1800
1000
3000
6000
4000
FF80
FF80
ENDCHAR
STARTCHAR 017A
ENCODING 378
SWIDTH 462 0
DWIDTH 9 0
BBX 7 15 1 0
BITMAP
0C
08
18
00
00
FE
06
0C
08
18
30
60
60
C0
FE
ENDCHAR
STARTCHAR 017B
ENCODING 379
SWIDTH 565 0
DWIDTH 11 0
BBX 9 18 1 0
BITMAP
0800
0C00
0000
0000
FF80
FF80
0300
0300
0600
0400
0C00
1800
1000
3000
6000
4000
FF80
FF80
ENDCHAR
STARTCHAR 017C
ENCODING 380
SWIDTH 462 0
DWIDTH 9 0
BBX 7 14 1 0
BITMAP
18
10
00
00
FE
06
0C
08
18
30
60
60
C0
FE
ENDCHAR
STARTCHAR 017D
ENCODING 381
SWIDTH 565 0
DWIDTH 11 0
BBX 9 18 1 0
BITMAP
3200
1C00
0C00
0000
FF80
FF80
0300
0300
0600
0400
0C00
1800
1000
3000
6000
4000
FF80
FF80
ENDCHAR
STARTCHAR 017E
ENCODING 382
SWIDTH 462 0
DWIDTH 9 0
BBX 7 15 1 0
BITMAP
C6
6C
38
00
00
FE
06
0C
08
18
30
60
60
C0
FE
ENDCHAR
STARTCHAR 017F
ENCODING 383
SWIDTH 308 0
DWIDTH 6 0
BBX 5 15 2 0
BITMAP
78
F8
C0
80
80
80
80
80
80
80
80
80
80
80
80
ENDCHAR
STARTCHAR 0180
ENCODING 384
SWIDTH 565 0
DWIDTH 11 0
BBX 11 15 0 0
BITMAP
2000
2000
FF00
2000
2300
2F80
30C0
3060
2060
2060
2060
3060
3040
38C0
2F80
ENDCHAR
STARTCHAR 0181
ENCODING 385
SWIDTH 720 0
DWIDTH 14 0
BBX 13 14 0 0
BITMAP
7FC0
FFF0
D838
D818
1818
1830
1FE0
18F0
1818
1818
1818
1818
18F0
1FE0
ENDCHAR
STARTCHAR 0182
ENCODING 386
SWIDTH 565 0
DWIDTH 11 0
BBX 9 14 2 0
BITMAP
FF00
FF00
C000
C000
C000
C000
FE00
FF00
C180
C180
C180
C180
FF00
FE00
ENDCHAR
STARTCHAR 0183
ENCODING 387
SWIDTH 565 0
DWIDTH 11 0
BBX 9 15 2 0
BITMAP
FF00
FF00
8000
8000
8C00
BE00
C300
C180
8180
8180
8180
C180
C100
E300
BE00
ENDCHAR
STARTCHAR 0184
ENCODING 388
SWIDTH 617 0
DWIDTH 12 0
BBX 9 14 2 0
BITMAP
C000
C000
C000
C000
C000
C000
FE00
FF80
C180
C080
C080
C180
E380
7F00
ENDCHAR
STARTCHAR 0185
ENCODING 389
SWIDTH 565 0
DWIDTH 11 0
BBX 9 15 2 0
BITMAP
8000
8000
8000
8000
8800
BE00
C300
C180
8180
8180
8180
8180
C100
6300
3E00
ENDCHAR
STARTCHAR 0186
ENCODING 390
SWIDTH 617 0
DWIDTH 12 0
BBX 10 14 1 0
BITMAP
FE00
EF00
0180
0180
00C0
00C0
00C0
00C0
00C0
00C0
0180
0180
C700
FE00
ENDCHAR
STARTCHAR 0187
ENCODING 391
SWIDTH 617 0
DWIDTH 12 0
BBX 13 17 1 0
BITMAP
0030
0078
0060
0FE0
3DC0
7000
6000
4000
C000
C000
C000
C000
C000
6000
7000
3840
1FC0
ENDCHAR
STARTCHAR 0188
ENCODING 392
SWIDTH 462 0
DWIDTH 9 0
BBX 10 15 1 0
BITMAP
01C0
03C0
0300
0300
0F00
3E00
6000
C000
C000
C000
C000
C000
4000
7300
3F00
ENDCHAR
STARTCHAR 0189
ENCODING 393
SWIDTH 720 0
DWIDTH 14 0
BBX 12 14 1 0
BITMAP
7F00
7FC0
60E0
6060
6030
6030
FC30
FC30
6030
6030
6060
60E0
7FC0
7F00
ENDCHAR
STARTCHAR 018A
ENCODING 394
SWIDTH 771 0
DWIDTH 15 0
BBX 15 14 0 0
BITMAP
7FC0
FFF0
D818
D80C
180C
1804
1806
1806
1804
180C
180C
1818
1FF0
1FE0
ENDCHAR
STARTCHAR 018B
ENCODING 395
SWIDTH 565 0
DWIDTH 11 0
BBX 9 14 1 0
BITMAP
7F80
7F80
0180
0180
0180
0180
3F80
7980
C180
C180
C180
C180
7F80
3F80
ENDCHAR
STARTCHAR 018C
ENCODING 396
SWIDTH 565 0
DWIDTH 11 0
BBX 9 15 1 0
BITMAP
7F80
7F80
0080
0080
1880
7E80
6180
C180
C080
C080
C080
C180
C180
6380
3E80
ENDCHAR
STARTCHAR 018D
ENCODING 397
SWIDTH 565 0
DWIDTH 11 0
BBX 10 15 1 -4
BITMAP
0C00
3F00
6180
40C0
C0C0
C0C0
40C0
6180
3300
1E00
0600
0300
0100
4300
7E00
ENDCHAR
STARTCHAR 018E
ENCODING 398
SWIDTH 514 0
DWIDTH 10 0
BBX 8 14 1 0
BITMAP
FF
FF
03
03
03
03
7F
7F
03
03
03
03
FF
FF
ENDCHAR
STARTCHAR 018F
ENCODING 399
SWIDTH 720 0
DWIDTH 14 0
BBX 12 14 1 0
BITMAP
7F80
73C0
0060
0020
0030
0030
FFF0
FFF0
C030
C030
4030
6060
39C0
1F80
ENDCHAR
STARTCHAR 0190
ENCODING 400
SWIDTH 565 0
DWIDTH 11 0
BBX 10 14 1 0
BITMAP
3F00
71C0
6000
6000
6000
7000
1F00
7F00
E000
C000
C000
C000
70C0
3F80
ENDCHAR
STARTCHAR 0191
ENCODING 401
SWIDTH 565 0
DWIDTH 11 0
BBX 11 19 0 -5
BITMAP
0FE0
0FE0
0800
0800
0800
0800
0FE0
0FE0
0800
0800
0800
0800
0800
0800
0800
8800
9800
F800
7000
ENDCHAR
STARTCHAR 0192
ENCODING 402
SWIDTH 411 0
DWIDTH 8 0
BBX 9 20 0 -5
BITMAP
0780
0F80
0800
1800
1800
3F00
1800
1800
1800
1800
1800
1800
1800
1800
1800
1800
1800
9800
F800
7000
ENDCHAR
STARTCHAR 0193
ENCODING 403
SWIDTH 720 0
DWIDTH 14 0
BBX 13 17 1 0
BITMAP
0018
0038
0030
0FF0
3EE0
3000
6000
4000
C000
C000
C1F0
C030
C030
6030
7030
3C70
0FF0
ENDCHAR
STARTCHAR 0194
ENCODING 404
SWIDTH 565 0
DWIDTH 11 0
BBX 11 19 0 -5
BITMAP
C060
4060
60C0
60C0
2080
3180
3180
1B00
1B00
0A00
0E00
0E00
0E00
0E00
0B00
1B00
1B00
0E00
0400
ENDCHAR
STARTCHAR 0195
ENCODING 405
SWIDTH 925 0
DWIDTH 18 0
BBX 15 15 2 0
BITMAP
8000
8000
8000
8000
8800
BE06
C306
C306
8306
8306
8306
8306
8304
818C
80F8
ENDCHAR
STARTCHAR 0196
ENCODING 406
SWIDTH 308 0
DWIDTH 6 0
BBX 5 14 2 0
BITMAP
80
80
80
80
80
80
80
80
80
80
80
C0
C8
78
ENDCHAR
STARTCHAR 0197
ENCODING 407
SWIDTH 308 0
DWIDTH 6 0
BBX 5 14 1 0
BITMAP
F8
60
60
60
60
60
F8
F8
60
60
60
60
60
F8
ENDCHAR
STARTCHAR 0198
ENCODING 408
SWIDTH 617 0
DWIDTH 12 0
BBX 10 14 2 0
BITMAP
C1C0
C380
C600
C600
CC00
D800
F800
F800
CC00
C600
C700
C300
C180
C0C0
ENDCHAR
STARTCHAR 0199
ENCODING 409
SWIDTH 514 0
DWIDTH 10 0
BBX 8 15 2 0
BITMAP
60
E0
80
80
80
86
8C
98
B0
F0
D8
8C
8C
86
83
ENDCHAR
STARTCHAR 019A
ENCODING 410
SWIDTH 257 0
DWIDTH 5 0
BBX 5 15 0 0
BITMAP
20
20
20
20
20
20
20
F8
20
20
20
20
20
20
20
ENDCHAR
STARTCHAR 019B
ENCODING 411
SWIDTH 514 0
DWIDTH 10 0
BBX 11 15 0 0
BITMAP
7000
7A00
1E00
3C00
0C00
0C00
0E00
1E00
1200
3300
3300
6180
6180
4080
C0E0
ENDCHAR
STARTCHAR 019C
ENCODING 412
SWIDTH 1028 0
DWIDTH 20 0
BBX 16 14 2 0
BITMAP
C183
C183
C183
C183
C183
C183
C183
C183
C183
C183
C183
C383
E6CF
7CF9
ENDCHAR
STARTCHAR 019D
ENCODING 413
SWIDTH 720 0
DWIDTH 14 0
BBX 13 19 0 -5
BITMAP
3018
3818
3818
2C18
2618
2618
3318
3198
3198
30D8
3078
3078
3038
3018
3000
3000
2000
E000
C000
ENDCHAR
STARTCHAR 019E
ENCODING 414
SWIDTH 617 0
DWIDTH 12 0
BBX 8 16 2 -5
BITMAP
0C
BF
C3
C3
81
81
81
81
81
81
81
01
01
01
01
01
ENDCHAR
STARTCHAR 019F
ENCODING 415
SWIDTH 771 0
DWIDTH 15 0
BBX 13 14 1 0
BITMAP
0FC0
3CE0
7030
6030
C018
C018
FFF8
FFF8
C018
C018
6030
6030
38E0
1FC0
ENDCHAR
STARTCHAR 01A0
ENCODING 416
SWIDTH 771 0
DWIDTH 15 0
BBX 15 15 1 0
BITMAP
0006
0FC4
3CEC
7038
6030
C018
C018
C018
C018
C018
C018
6030
6030
38E0
1FC0
ENDCHAR
STARTCHAR 01A1
ENCODING 417
SWIDTH 565 0
DWIDTH 11 0
BBX 11 12 1 0
BITMAP
0020
0C60
3F60
61C0
C080
C0C0
C0C0
C0C0
C0C0
4180
6380
3F00
ENDCHAR
STARTCHAR 01A2
ENCODING 418
SWIDTH 1028 0
DWIDTH 20 0
BBX 18 14 1 0
BITMAP
1F8F80
39D9C0
6060C0
6030C0
C030C0
C030C0
C010C0
C010C0
C030C0
C030C0
6030C0
6060C0
38E0C0
1F80C0
ENDCHAR
STARTCHAR 01A3
ENCODING 419
SWIDTH 822 0
DWIDTH 16 0
BBX 14 16 1 -5
BITMAP
0C30
3FF8
638C
C18C
C18C
C18C
C18C
C18C
418C
630C
3E0C
000C
000C
000C
000C
000C
ENDCHAR
STARTCHAR 01A4
ENCODING 420
SWIDTH 668 0
DWIDTH 13 0
BBX 12 14 0 0
BITMAP
7FC0
FFE0
D830
D830
1810
1830
1870
1FE0
1F00
1800
1800
1800
1800
1800
ENDCHAR
STARTCHAR 01A5
ENCODING 421
SWIDTH 565 0
DWIDTH 11 0
BBX 9 20 2 -5
BITMAP
6000
E000
8000
8000
8C00
BE00
C300
C180
8180
8180
8180
C180
C100
E300
BE00
8000
8000
8000
8000
8000
ENDCHAR
STARTCHAR 01A6
ENCODING 422
SWIDTH 617 0
DWIDTH 12 0
BBX 10 16 2 -2
BITMAP
C000
C000
FE00
FF00
C180
C180
C180
C180
C700
FE00
C400
C600
C300
C300
0180
01C0
ENDCHAR
STARTCHAR 01A7
ENCODING 423
SWIDTH 514 0
DWIDTH 10 0
BBX 9 14 1 0
BITMAP
7E00
7700
0180
0180
0180
0300
1E00
7800
E000
C000
C000
C000
6380
3F80
ENDCHAR
STARTCHAR 01A8
ENCODING 424
SWIDTH 462 0
DWIDTH 9 0
BBX 7 11 1 0
BITMAP
38
7E
02
02
0E
3C
E0
C0
C0
C2
7E
ENDCHAR
STARTCHAR 01A9
ENCODING 425
SWIDTH 565 0
DWIDTH 11 0
BBX 9 14 1 0
BITMAP
FF80
FF80
6000
3000
3800
1800
0C00
0C00
1800
3000
6000
4000
FF80
FF80
ENDCHAR
STARTCHAR 01AA
ENCODING 426
SWIDTH 308 0
DWIDTH 6 0
BBX 8 20 0 -5
BITMAP
70
F8
98
F8
18
18
18
18
18
18
18
18
18
18
18
18
18
18
0F
06
ENDCHAR
STARTCHAR 01AB
ENCODING 427
SWIDTH 360 0
DWIDTH 7 0
BBX 7 18 0 -5
BITMAP
30
30
30
FE
30
30
30
30
30
30
30
30
1E
06
06
06
1C
18
ENDCHAR
STARTCHAR 01AC
ENCODING 428
SWIDTH 565 0
DWIDTH 11 0
BBX 11 14 0 0
BITMAP
7FE0
FFE0
C600
C600
0600
0600
0600
0600
0600
0600
0600
0600
0600
0600
ENDCHAR
STARTCHAR 01AD
ENCODING 429
SWIDTH 360 0
DWIDTH 7 0
BBX 7 15 0 0
BITMAP
1C
3C
30
30
30
FE
30
30
30
30
30
30
30
30
1E
ENDCHAR
STARTCHAR 01AE
ENCODING 430
SWIDTH 514 0
DWIDTH 10 0
BBX 11 19 0 -5
BITMAP
FFE0
FFE0
0400
0400
0400
0400
0400
0400
0400
0400
0400
0400
0400
0400
0400
0400
0400
0700
0300
ENDCHAR
STARTCHAR 01AF
ENCODING 431
SWIDTH 771 0
DWIDTH 15 0
BBX 14 15 2 0
BITMAP
000C
C04C
C058
C070
C040
C040
C040
C040
C040
C040
C040
C040
C0C0
7180
3F00
ENDCHAR
STARTCHAR 01B0
ENCODING 432
SWIDTH 668 0
DWIDTH 13 0
BBX 12 12 2 0
BITMAP
0030
0020
8160
81C0
8100
8100
8100
8100
8100
8300
C700
7D00
ENDCHAR
STARTCHAR 01B1
ENCODING 433
SWIDTH 771 0
DWIDTH 15 0
BBX 13 14 1 0
BITMAP
F8F8
F8F8
3060
6030
6030
4018
C018
C018
C018
C018
6018
6030
38E0
1FC0
ENDCHAR
STARTCHAR 01B2
ENCODING 434
SWIDTH 720 0
DWIDTH 14 0
BBX 10 14 2 0
BITMAP
C3C0
C2C0
C040
C040
C040
C040
C040
C040
C040
C040
C040
C0C0
7180
3F00
ENDCHAR
STARTCHAR 01B3
ENCODING 435
SWIDTH 565 0
DWIDTH 11 0
BBX 11 14 0 0
BITMAP
C0E0
60C0
6180
3180
3100
1B00
1A00
0E00
0400
0400
0400
0400
0400
0400
ENDCHAR
STARTCHAR 01B4
ENCODING 436
SWIDTH 514 0
DWIDTH 10 0
BBX 11 16 0 -5
BITMAP
0040
C0E0
6180
6180
2100
3300
3300
1200
1E00
0E00
0C00
0C00
0800
1800
F000
E000
ENDCHAR
STARTCHAR 01B5
ENCODING 437
SWIDTH 565 0
DWIDTH 11 0
BBX 9 14 1 0
BITMAP
FF80
FF80
0300
0300
0600
0400
7F00
1800
1000
3000
6000
4000
FF80
FF80
ENDCHAR
STARTCHAR 01B6
ENCODING 438
SWIDTH 462 0
DWIDTH 9 0
BBX 7 10 1 0
BITMAP
FE
06
0C
08
FE
30
60
60
C0
FE
ENDCHAR
STARTCHAR 01B7
ENCODING 439
SWIDTH 565 0
DWIDTH 11 0
BBX 9 14 1 0
BITMAP
FF80
FF80
0300
0600
0C00
1800
3E00
3F00
0180
0180
0180
0180
C300
FE00
ENDCHAR
STARTCHAR 01B8
ENCODING 440
SWIDTH 565 0
DWIDTH 11 0
BBX 10 14 1 0
BITMAP
7F80
7F80
3000
1800
0C00
0E00
3E00
6000
C000
C000
C000
C000
70C0
3FC0
ENDCHAR
STARTCHAR 01B9
ENCODING 441
SWIDTH 462 0
DWIDTH 9 0
BBX 8 15 1 -5
BITMAP
FF
60
30
10
18
0C
7C
E0
C0
80
80
C0
C0
7F
1E
ENDCHAR
STARTCHAR 01BA
ENCODING 442
SWIDTH 462 0
DWIDTH 9 0
BBX 8 15 1 -5
BITMAP
FE
0C
18
30
7C
0E
03
03
03
06
7C
C0
80
FC
38
ENDCHAR
STARTCHAR 01BB
ENCODING 443
SWIDTH 565 0
DWIDTH 11 0
BBX 9 15 1 0
BITMAP
3C00
FE00
4300
0300
0300
0300
0600
7F80
0C00
1800
3000
3000
6000
C000
FF80
ENDCHAR
STARTCHAR 01BC
ENCODING 444
SWIDTH 565 0
DWIDTH 11 0
BBX 9 14 1 0
BITMAP
FF80
FF80
2000
2000
2000
3800
3F00
0380
0180
0180
0180
0180
C300
FE00
ENDCHAR
STARTCHAR 01BD
ENCODING 445
SWIDTH 462 0
DWIDTH 9 0
BBX 8 10 1 0
BITMAP
FE
60
60
78
7E
03
03
03
86
FC
ENDCHAR
STARTCHAR 01BE
ENCODING 446
SWIDTH 462 0
DWIDTH 9 0
BBX 7 13 1 0
BITMAP
20
20
60
FC
20
20
20
38
0E
06
06
86
FC
ENDCHAR
STARTCHAR 01BF
ENCODING 447
SWIDTH 565 0
DWIDTH 11 0
BBX 8 16 2 -5
BITMAP
18
BE
C3
C1
81
81
83
83
86
9C
F0
80
80
80
80
80
ENDCHAR
STARTCHAR 01C0
ENCODING 448
SWIDTH 308 0
DWIDTH 6 0
BBX 2 15 2 0
BITMAP
C0
C0
C0
C0
C0
C0
C0
C0
C0
C0
C0
C0
C0
C0
C0
ENDCHAR
STARTCHAR 01C1
ENCODING 449
SWIDTH 514 0
DWIDTH 10 0
BBX 6 15 2 0
BITMAP
C4
C4
C4
C4
C4
C4
C4
C4
C4
C4
C4
C4
C4
C4
C4
ENDCHAR
STARTCHAR 01C2
ENCODING 450
SWIDTH 514 0
DWIDTH 10 0
BBX 8 15 1 0
BITMAP
18
18
18
18
18
FF
FF
18
FF
FF
18
18
18
18
18
ENDCHAR
STARTCHAR 01C3
ENCODING 451
SWIDTH 257 0
DWIDTH 5 0
BBX 3 14 1 0
BITMAP
60
60
60
40
40
40
40
40
40
40
00
00
E0
E0
ENDCHAR
STARTCHAR 01C4
ENCODING 452
SWIDTH 1285 0
DWIDTH 25 0
BBX 22 18 2 0
BITMAP
000190
0000E0
000060
000000
FE07FC
FF87FC
C1C018
C0C018
C06030
C06020
C06060
C060C0
C06080
C06180
C0C300
C1C200
FF87FC
FE07FC
ENDCHAR
STARTCHAR 01C5
ENCODING 453
SWIDTH 1182 0
DWIDTH 23 0
BBX 21 15 2 0
BITMAP
000230
FE0160
FF81C0
C1C000
C0C000
C067F0
C06030
C06060
C06060
C060C0
C06180
C0C100
C1C300
FF8600
FE07F8
ENDCHAR
STARTCHAR 01C6
ENCODING 454
SWIDTH 1080 0
DWIDTH 21 0
BBX 19 15 1 0
BITMAP
008C60
0086C0
008380
008000
188000
7E8FE0
618060
C180C0
C08180
C08180
C08300
C18600
C18400
638C00
3E8FE0
ENDCHAR
STARTCHAR 01C7
ENCODING 455
SWIDTH 771 0
DWIDTH 15 0
BBX 12 18 2 -4
BITMAP
C030
C030
C030
C030
C030
C030
C030
C030
C030
C030
C030
C030
FF30
FF30
0030
0020
01E0
0180
ENDCHAR
STARTCHAR 01C8
ENCODING 456
SWIDTH 771 0
DWIDTH 15 0
BBX 12 19 2 -5
BITMAP
C030
C020
C000
C000
C030
C030
C030
C030
C030
C030
C030
C030
FF30
FF30
0030
0030
0020
01E0
01C0
ENDCHAR
STARTCHAR 01C9
ENCODING 457
SWIDTH 514 0
DWIDTH 10 0
BBX 7 20 2 -5
BITMAP
80
86
84
80
80
84
84
84
84
84
84
84
84
84
84
04
04
04
3C
38
ENDCHAR
STARTCHAR 01CA
ENCODING 458
SWIDTH 1028 0
DWIDTH 20 0
BBX 16 18 2 -4
BITMAP
C061
E061
E061
B061
9861
9861
CC61
C661
C661
C361
C1E1
C1E1
C0E1
C061
0001
0003
001F
001C
ENDCHAR
STARTCHAR 01CB
ENCODING 459
SWIDTH 977 0
DWIDTH 19 0
BBX 16 19 2 -5
BITMAP
C063
E063
E060
B060
9863
9863
CC63
C663
C663
C363
C1E3
C1E3
C0E3
C063
0003
0003
0003
000F
000C
ENDCHAR
STARTCHAR 01CC
ENCODING 460
SWIDTH 874 0
DWIDTH 17 0
BBX 14 19 2 -5
BITMAP
000C
0008
0000
0C00
BF08
C308
C108
8108
8108
8108
8108
8108
8108
8108
0008
0008
0008
0078
0070
ENDCHAR
STARTCHAR 01CD
ENCODING 461
SWIDTH 617 0
DWIDTH 12 0
BBX 12 18 0 0
BITMAP
1980
0F00
0600
0000
0600
0700
0F00
0D00
0980
1980
1880
10C0
3FC0
3FE0
6060
6020
4030
C030
ENDCHAR
STARTCHAR 01CE
ENCODING 462
SWIDTH 514 0
DWIDTH 10 0
BBX 8 15 1 0
BITMAP
63
36
1C
00
1C
7F
03
01
01
7F
E1
C1
C3
C7
7D
ENDCHAR
STARTCHAR 01CF
ENCODING 463
SWIDTH 308 0
DWIDTH 6 0
BBX 5 18 1 0
BITMAP
98
F0
60
00
F8
60
60
60
60
60
60
60
60
60
60
60
60
F8
ENDCHAR
STARTCHAR 01D0
ENCODING 464
SWIDTH 257 0
DWIDTH 5 0
BBX 7 15 -1 0
BITMAP
C6
6C
38
00
00
10
10
10
10
10
10
10
10
10
10
ENDCHAR
STARTCHAR 01D1
ENCODING 465
SWIDTH 771 0
DWIDTH 15 0
BBX 13 18 1 0
BITMAP
0C80
0700
0300
0000
0FC0
3CE0
7030
6030
C018
C018
C018
C018
C018
C018
6030
6030
38E0
1FC0
ENDCHAR
STARTCHAR 01D2
ENCODING 466
SWIDTH 565 0
DWIDTH 11 0
BBX 10 15 1 0
BITMAP
2300
1600
0C00
0000
0C00
3F00
6180
C080
C0C0
C0C0
C0C0
C0C0
4180
6380
3F00
ENDCHAR
STARTCHAR 01D3
ENCODING 467
SWIDTH 720 0
DWIDTH 14 0
BBX 10 18 2 0
BITMAP
3300
1E00
0C00
0000
C040
C040
C040
C040
C040
C040
C040
C040
C040
C040
C040
C0C0
7180
3F00
ENDCHAR
STARTCHAR 01D4
ENCODING 468
SWIDTH 617 0
DWIDTH 12 0
BBX 8 15 2 0
BITMAP
42
3C
18
00
00
81
81
81
81
81
81
81
83
C7
7D
ENDCHAR
STARTCHAR 01D5
ENCODING 469
SWIDTH 720 0
DWIDTH 14 0
BBX 10 20 2 0
BITMAP
3F00
3F00
0000
3300
1300
0000
C040
C040
C040
C040
C040
C040
C040
C040
C040
C040
C040
C0C0
7180
3F00
ENDCHAR
STARTCHAR 01D6
ENCODING 470
SWIDTH 617 0
DWIDTH 12 0
BBX 8 16 2 0
BITMAP
7E
00
24
66
00
00
81
81
81
81
81
81
81
83
C7
7D
ENDCHAR
STARTCHAR 01D7
ENCODING 471
SWIDTH 720 0
DWIDTH 14 0
BBX 10 20 2 0
BITMAP
0600
0400
0000
3300
1300
0000
C040
C040
C040
C040
C040
C040
C040
C040
C040
C040
C040
C0C0
7180
3F00
ENDCHAR
STARTCHAR 01D8
ENCODING 472
SWIDTH 617 0
DWIDTH 12 0
BBX 8 17 2 0
BITMAP
06
0C
18
24
66
00
00
81
81
81
81
81
81
81
83
C7
7D
ENDCHAR
STARTCHAR 01D9
ENCODING 473
SWIDTH 720 0
DWIDTH 14 0
BBX 10 21 2 0
BITMAP
2100
1B00
0E00
0000
3300
1300
0000
C040
C040
C040
C040
C040
C040
C040
C040
C040
C040
C040
C0C0
7180
3F00
ENDCHAR
STARTCHAR 01DA
ENCODING 474
SWIDTH 617 0
DWIDTH 12 0
BBX 8 17 2 0
BITMAP
66
3C
18
24
66
00
00
81
81
81
81
81
81
81
83
C7
7D
ENDCHAR
STARTCHAR 01DB
ENCODING 475
SWIDTH 720 0
DWIDTH 14 0
BBX 10 20 2 0
BITMAP
1800
0C00
0000
3300
1300
0000
C040
C040
C040
C040
C040
C040
C040
C040
C040
C040
C040
C0C0
7180
3F00
ENDCHAR
STARTCHAR 01DC
ENCODING 476
SWIDTH 617 0
DWIDTH 12 0
BBX 8 17 2 0
BITMAP
60
30
18
24
66
00
00
81
81
81
81
81
81
81
83
C7
7D
ENDCHAR
STARTCHAR 01DD
ENCODING 477
SWIDTH 514 0
DWIDTH 10 0
BBX 9 11 1 0
BITMAP
3800
FE00
8300
0180
0180
FF80
FF80
C180
C100
6300
3E00
ENDCHAR
STARTCHAR 01DE
ENCODING 478
SWIDTH 617 0
DWIDTH 12 0
BBX 12 20 0 0
BITMAP
1F80
1F80
0000
1980
0980
0000
0600
0700
0F00
0D00
0980
1980
1880
10C0
3FC0
3FE0
6060
6020
4030
C030
ENDCHAR
STARTCHAR 01DF
ENCODING 479
SWIDTH 514 0
DWIDTH 10 0
BBX 8 16 1 0
BITMAP
3E
00
22
36
00
1C
7F
03
01
01
7F
E1
C1
C3
C7
7D
ENDCHAR
STARTCHAR 01E0
ENCODING 480
SWIDTH 617 0
DWIDTH 12 0
BBX 12 19 0 0
BITMAP
1F80
0000
0600
0600
0000
0600
0700
0F00
0D00
0980
1980
1880
10C0
3FC0
3FE0
6060
6020
4030
C030
ENDCHAR
STARTCHAR 01E1
ENCODING 481
SWIDTH 514 0
DWIDTH 10 0
BBX 8 16 1 0
BITMAP
3E
00
08
18
00
1C
7F
03
01
01
7F
E1
C1
C3
C7
7D
ENDCHAR
STARTCHAR 01E2
ENCODING 482
SWIDTH 874 0
DWIDTH 17 0
BBX 16 17 0 0
BITMAP
01F0
01F0
0000
03FF
03FF
0640
0640
0C40
0C40
087F
187F
1FC0
3FC0
2040
6040
607F
C07F
ENDCHAR
STARTCHAR 01E3
ENCODING 483
SWIDTH 822 0
DWIDTH 16 0
BBX 15 13 1 0
BITMAP
07C0
0000
1830
7EFC
038C
0306
0306
7FFE
C300
C300
C380
C7C4
7CFC
ENDCHAR
STARTCHAR 01E4
ENCODING 484
SWIDTH 720 0
DWIDTH 14 0
BBX 13 14 1 0
BITMAP
0FE0
1EE0
3000
6000
4000
C000
C1F0
C1F0
C030
C030
61F8
7030
3C70
0FE0
ENDCHAR
STARTCHAR 01E5
ENCODING 485
SWIDTH 565 0
DWIDTH 11 0
BBX 10 16 1 -5
BITMAP
1800
7E80
6180
C180
C080
C080
C080
C180
6180
7E80
1C80
0080
0FC0
0180
7F00
1C00
ENDCHAR
STARTCHAR 01E6
ENCODING 486
SWIDTH 720 0
DWIDTH 14 0
BBX 12 18 1 0
BITMAP
0CC0
0780
0300
0000
0FE0
3EE0
3000
6000
4000
C000
C000
C1F0
C030
C030
6030
7030
3C70
0FF0
ENDCHAR
STARTCHAR 01E7
ENCODING 487
SWIDTH 565 0
DWIDTH 11 0
BBX 9 20 1 -5
BITMAP
2300
1600
1C00
0000
1800
3E80
6180
C180
C080
C080
C080
C080
C180
6380
3E80
0080
0180
0180
7F00
1C00
ENDCHAR
STARTCHAR 01E8
ENCODING 488
SWIDTH 617 0
DWIDTH 12 0
BBX 10 18 2 0
BITMAP
3200
1C00
0C00
0000
C180
C180
C300
C600
CC00
D800
F800
F800
CC00
C600
C600
C300
C180
C0C0
ENDCHAR
STARTCHAR 01E9
ENCODING 489
SWIDTH 514 0
DWIDTH 10 0
BBX 10 19 0 0
BITMAP
8800
5000
7000
0000
2000
2000
2000
2000
2000
2180
2300
2600
2C00
3C00
3600
2300
2300
2180
20C0
ENDCHAR
STARTCHAR 01EA
ENCODING 490
SWIDTH 771 0
DWIDTH 15 0
BBX 13 18 1 -4
BITMAP
0FC0
3CE0
7030
6030
C018
C018
C018
C018
C018
C018
6030
6030
38E0
1FC0
0200
0600
0600
0700
ENDCHAR
STARTCHAR 01EB
ENCODING 491
SWIDTH 565 0
DWIDTH 11 0
BBX 10 15 1 -4
BITMAP
0C00
3F00
6180
C080
C0C0
C0C0
C0C0
C0C0
4180
6380
3F00
0C00
0800
1800
0E00
ENDCHAR
STARTCHAR 01EC
ENCODING 492
SWIDTH 771 0
DWIDTH 15 0
BBX 13 21 1 -4
BITMAP
0F80
0F80
0000
0FC0
3CE0
7030
6030
C018
C018
C018
C018
C018
C018
6030
6030
38E0
1FC0
0300
0200
0600
0380
ENDCHAR
STARTCHAR 01ED
ENCODING 493
SWIDTH 565 0
DWIDTH 11 0
BBX 10 17 1 -4
BITMAP
3F00
0000
0C00
3F00
6180
C080
C0C0
C0C0
C0C0
C0C0
4180
6380
3F00
0C00
0800
1800
0E00
ENDCHAR
STARTCHAR 01EE
ENCODING 494
SWIDTH 565 0
DWIDTH 11 0
BBX 9 18 1 0
BITMAP
2600
1C00
1800
0000
FF80
FF80
0300
0600
0C00
1800
3E00
3F00
0180
0180
0180
0180
C300
FE00
ENDCHAR
STARTCHAR 01EF
ENCODING 495
SWIDTH 462 0
DWIDTH 9 0
BBX 9 20 0 -5
BITMAP
6300
3600
1C00
0000
0000
7F80
0300
0600
0C00
1800
3000
3E00
0300
0180
0180
0180
0180
0300
FE00
3800
ENDCHAR
STARTCHAR 01F0
ENCODING 496
SWIDTH 257 0
DWIDTH 5 0
BBX 7 20 -1 -5
BITMAP
C6
6C
38
00
00
10
10
10
10
10
10
10
10
10
10
10
10
10
F0
E0
ENDCHAR
STARTCHAR 01F1
ENCODING 497
SWIDTH 1285 0
DWIDTH 25 0
BBX 22 14 2 0
BITMAP
FE07FC
FF87FC
C1C018
C0C018
C06030
C06020
C06060
C060C0
C06080
C06180
C0C300
C1C200
FF87FC
FE07FC
ENDCHAR
STARTCHAR 01F2
ENCODING 498
SWIDTH 1182 0
DWIDTH 23 0
BBX 21 14 2 0
BITMAP
FE0000
FF8000
C1C000
C0C000
C067F0
C06030
C06060
C06060
C060C0
C06180
C0C100
C1C300
FF8600
FE07F8
ENDCHAR
STARTCHAR 01F3
ENCODING 499
SWIDTH 1080 0
DWIDTH 21 0
BBX 19 15 1 0
BITMAP
008000
008000
008000
008000
188000
7E8FE0
618060
C180C0
C08180
C08180
C08300
C18600
C18400
638C00
3E8FE0
ENDCHAR
STARTCHAR 01F4
ENCODING 500
SWIDTH 720 0
DWIDTH 14 0
BBX 12 18 1 0
BITMAP
0180
0100
0200
0000
0FE0
3EE0
3000
6000
4000
C000
C000
C1F0
C030
C030
6030
7030
3C70
0FF0
ENDCHAR
STARTCHAR 01F5
ENCODING 501
SWIDTH 565 0
DWIDTH 11 0
BBX 9 20 1 -5
BITMAP
0700
0600
0C00
0000
1800
3E80
6180
C180
C080
C080
C080
C080
C180
6380
3E80
0080
0180
0180
7F00
1C00
ENDCHAR
STARTCHAR 01F6
ENCODING 502
SWIDTH 925 0
DWIDTH 18 0
BBX 14 14 2 0
BITMAP
C180
C180
C180
C180
C184
C184
FF84
FF84
C184
C184
C184
C184
C0CC
C078
ENDCHAR
STARTCHAR 01F7
ENCODING 503
SWIDTH 617 0
DWIDTH 12 0
BBX 10 19 2 -5
BITMAP
9F00
B380
E080
C0C0
C0C0
C0C0
C0C0
C180
C180
C300
C600
CC00
F800
E000
C000
C000
C000
C000
C000
ENDCHAR
STARTCHAR 01F8
ENCODING 504
SWIDTH 720 0
DWIDTH 14 0
BBX 11 18 2 0
BITMAP
1800
0C00
0600
0000
C060
E060
E060
B060
9860
9860
CC60
C660
C660
C360
C1E0
C1E0
C0E0
C060
ENDCHAR
STARTCHAR 01F9
ENCODING 505
SWIDTH 617 0
DWIDTH 12 0
BBX 8 15 2 0
BITMAP
30
30
18
00
0C
BF
C3
C1
81
81
81
81
81
81
81
ENDCHAR
STARTCHAR 01FA
ENCODING 506
SWIDTH 617 0
DWIDTH 12 0
BBX 12 19 0 0
BITMAP
0180
0300
0600
0600
0D00
0900
0F00
0700
0F00
0D00
0980
1880
10C0
30C0
3FE0
6060
6020
4030
C030
ENDCHAR
STARTCHAR 01FB
ENCODING 507
SWIDTH 514 0
DWIDTH 10 0
BBX 8 19 1 0
BITMAP
07
0C
00
1C
16
22
1C
00
1C
7F
03
01
01
7F
E1
C1
C3
C7
7D
ENDCHAR
STARTCHAR 01FC
ENCODING 508
SWIDTH 874 0
DWIDTH 17 0
BBX 16 18 0 0
BITMAP
0030
0060
0040
0000
03FF
03FF
0640
0640
0C40
0C40
087F
187F
1FC0
3FC0
2040
6040
607F
C07F
ENDCHAR
STARTCHAR 01FD
ENCODING 509
SWIDTH 822 0
DWIDTH 16 0
BBX 15 15 1 0
BITMAP
00C0
0080
0100
0000
1830
7EFC
038C
0306
0306
7FFE
C300
C300
C380
C7C4
7CFC
ENDCHAR
STARTCHAR 01FE
ENCODING 510
SWIDTH 771 0
DWIDTH 15 0
BBX 13 18 1 -1
BITMAP
0180
0300
0200
0000
0FF0
3DE0
7070
60F0
C198
C118
C318
C618
C418
CC18
7830
7030
38E0
7FC0
ENDCHAR
STARTCHAR 01FF
ENCODING 511
SWIDTH 565 0
DWIDTH 11 0
BBX 10 16 1 -1
BITMAP
0700
0600
0C00
0000
0C80
3F80
6380
C280
C6C0
CCC0
C8C0
D8C0
7180
7380
7F00
4000
ENDCHAR
STARTCHAR 0200
ENCODING 512
SWIDTH 617 0
DWIDTH 12 0
BBX 12 18 0 0
BITMAP
3300
1900
0880
0000
0600
0700
0F00
0D00
0980
1980
1880
10C0
3FC0
3FE0
6060
6020
4030
C030
ENDCHAR
STARTCHAR 0201
ENCODING 513
SWIDTH 514 0
DWIDTH 10 0
BBX 8 15 1 0
BITMAP
CC
6C
26
00
1C
7F
03
01
01
7F
E1
C1
C3
C7
7D
ENDCHAR
STARTCHAR 0202
ENCODING 514
SWIDTH 617 0
DWIDTH 12 0
BBX 12 18 0 0
BITMAP
0700
0F80
1080
0000
0600
0700
0F00
0D00
0980
1980
1880
10C0
3FC0
3FE0
6060
6020
4030
C030
ENDCHAR
STARTCHAR 0203
ENCODING 515
SWIDTH 514 0
DWIDTH 10 0
BBX 8 14 1 0
BITMAP
3E
22
00
1C
7F
03
01
01
7F
E1
C1
C3
C7
7D
ENDCHAR
STARTCHAR 0204
ENCODING 516
SWIDTH 514 0
DWIDTH 10 0
BBX 8 18 2 0
BITMAP
D8
4C
26
00
FF
FF
C0
C0
C0
C0
FE
FE
C0
C0
C0
C0
FF
FF
ENDCHAR
STARTCHAR 0205
ENCODING 517
SWIDTH 514 0
DWIDTH 10 0
BBX 9 15 1 0
BITMAP
CC00
6C00
2600
0000
0C00
3F00
6300
C180
C180
FF80
C000
C000
4000
7180
3F80
ENDCHAR
STARTCHAR 0206
ENCODING 518
SWIDTH 514 0
DWIDTH 10 0
BBX 8 18 2 0
BITMAP
3C
7E
42
00
FF
FF
C0
C0
C0
C0
FE
FE
C0
C0
C0
C0
FF
FF
ENDCHAR
STARTCHAR 0207
ENCODING 519
SWIDTH 514 0
DWIDTH 10 0
BBX 9 14 1 0
BITMAP
3E00
2200
0000
0C00
3F00
6300
C180
C180
FF80
C000
C000
4000
7180
3F80
ENDCHAR
STARTCHAR 0208
ENCODING 520
SWIDTH 308 0
DWIDTH 6 0
BBX 7 18 -1 0
BITMAP
CC
64
22
00
3E
18
18
18
18
18
18
18
18
18
18
18
18
3E
ENDCHAR
STARTCHAR 0209
ENCODING 521
SWIDTH 257 0
DWIDTH 5 0
BBX 7 15 -2 0
BITMAP
CC
6C
26
00
00
08
08
08
08
08
08
08
08
08
08
ENDCHAR
STARTCHAR 020A
ENCODING 522
SWIDTH 308 0
DWIDTH 6 0
BBX 6 18 0 0
BITMAP
38
7C
84
00
7C
30
30
30
30
30
30
30
30
30
30
30
30
7C
ENDCHAR
STARTCHAR 020B
ENCODING 523
SWIDTH 257 0
DWIDTH 5 0
BBX 5 14 0 0
BITMAP
F8
88
00
00
20
20
20
20
20
20
20
20
20
20
ENDCHAR
STARTCHAR 020C
ENCODING 524
SWIDTH 771 0
DWIDTH 15 0
BBX 13 18 1 0
BITMAP
1B00
0980
0480
0000
0FC0
3CE0
7030
6030
C018
C018
C018
C018
C018
C018
6030
6030
38E0
1FC0
ENDCHAR
STARTCHAR 020D
ENCODING 525
SWIDTH 565 0
DWIDTH 11 0
BBX 10 15 1 0
BITMAP
6C00
6600
3200
0000
0C00
3F00
6180
C080
C0C0
C0C0
C0C0
C0C0
4180
6380
3F00
ENDCHAR
STARTCHAR 020E
ENCODING 526
SWIDTH 771 0
DWIDTH 15 0
BBX 13 18 1 0
BITMAP
0700
0F80
0840
0000
0FC0
3CE0
7030
6030
C018
C018
C018
C018
C018
C018
6030
6030
38E0
1FC0
ENDCHAR
STARTCHAR 020F
ENCODING 527
SWIDTH 565 0
DWIDTH 11 0
BBX 10 14 1 0
BITMAP
1E00
2100
0000
0C00
3F00
6180
C080
C0C0
C0C0
C0C0
C0C0
4180
6380
3F00
ENDCHAR
STARTCHAR 0210
ENCODING 528
SWIDTH 617 0
DWIDTH 12 0
BBX 9 18 2 0
BITMAP
C800
6C00
2600
0000
FC00
FF00
C380
C180
C180
C180
C300
FE00
C400
C600
C300
C300
C180
C180
ENDCHAR
STARTCHAR 0211
ENCODING 529
SWIDTH 411 0
DWIDTH 8 0
BBX 8 15 0 0
BITMAP
CC
64
32
00
03
2F
38
30
20
20
20
20
20
20
20
ENDCHAR
STARTCHAR 0212
ENCODING 530
SWIDTH 617 0
DWIDTH 12 0
BBX 9 18 2 0
BITMAP
3C00
7E00
4200
0000
FC00
FF00
C380
C180
C180
C180
C300
FE00
C400
C600
C300
C300
C180
C180
ENDCHAR
STARTCHAR 0213
ENCODING 531
SWIDTH 411 0
DWIDTH 8 0
BBX 6 14 2 0
BITMAP
F8
8C
00
0C
BC
E0
C0
80
80
80
80
80
80
80
ENDCHAR
STARTCHAR 0214
ENCODING 532
SWIDTH 720 0
DWIDTH 14 0
BBX 10 18 2 0
BITMAP
6400
3600
1300
0000
C040
C040
C040
C040
C040
C040
C040
C040
C040
C040
C040
C0C0
7180
3F00
ENDCHAR
STARTCHAR 0215
ENCODING 533
SWIDTH 617 0
DWIDTH 12 0
BBX 8 15 2 0
BITMAP
D8
4C
64
00
00
81
81
81
81
81
81
81
83
C7
7D
ENDCHAR
STARTCHAR 0216
ENCODING 534
SWIDTH 720 0
DWIDTH 14 0
BBX 10 18 2 0
BITMAP
0E00
3F00
2100
0000
C040
C040
C040
C040
C040
C040
C040
C040
C040
C040
C040
C0C0
7180
3F00
ENDCHAR
STARTCHAR 0217
ENCODING 535
SWIDTH 617 0
DWIDTH 12 0
BBX 8 14 2 0
BITMAP
3C
42
00
00
81
81
81
81
81
81
81
83
C7
7D
ENDCHAR
STARTCHAR 0218
ENCODING 536
SWIDTH 514 0
DWIDTH 10 0
BBX 9 18 1 -4
BITMAP
3F00
7700
C000
C000
C000
6000
3C00
0E00
0300
0180
0180
0180
C700
FE00
0000
0800
1800
1000
ENDCHAR
STARTCHAR 0219
ENCODING 537
SWIDTH 462 0
DWIDTH 9 0
BBX 7 15 1 -4
BITMAP
18
7E
C0
C0
E0
38
0E
02
02
86
FC
00
18
10
10
ENDCHAR
STARTCHAR 021A
ENCODING 538
SWIDTH 514 0
DWIDTH 10 0
BBX 11 18 0 -4
BITMAP
FFE0
FFE0
0400
0400
0400
0400
0400
0400
0400
0400
0400
0400
0400
0400
0000
0600
0400
0C00
ENDCHAR
STARTCHAR 021B
ENCODING 539
SWIDTH 360 0
DWIDTH 7 0
BBX 7 17 0 -4
BITMAP
30
30
30
FE
30
30
30
30
30
30
30
30
1E
00
08
18
10
ENDCHAR
STARTCHAR 021C
ENCODING 540
SWIDTH 565 0
DWIDTH 11 0
BBX 9 17 1 -4
BITMAP
7E00
E300
0180
0180
0180
0300
1E00
3F00
0180
0180
0180
0180
0180
0300
0E00
7C00
E000
ENDCHAR
STARTCHAR 021D
ENCODING 541
SWIDTH 462 0
DWIDTH 9 0
BBX 8 15 1 -5
BITMAP
38
FE
86
02
06
0E
3C
26
03
03
03
06
0E
3C
F0
ENDCHAR
STARTCHAR 021E
ENCODING 542
SWIDTH 720 0
DWIDTH 14 0
BBX 11 18 2 0
BITMAP
3300
1E00
0C00
0000
C060
C060
C060
C060
C060
C060
FFE0
FFE0
C060
C060
C060
C060
C060
C060
ENDCHAR
STARTCHAR 021F
ENCODING 543
SWIDTH 617 0
DWIDTH 12 0
BBX 10 19 0 0
BITMAP
8800
5000
7000
0000
2000
2000
2000
2000
2300
2FC0
30C0
3040
2040
2040
2040
2040
2040
2040
2040
ENDCHAR
STARTCHAR 0220
ENCODING 544
SWIDTH 720 0
DWIDTH 14 0
BBX 11 19 2 -5
BITMAP
9F80
B9C0
E0C0
C060
C060
C060
C060
C060
C060
C060
C060
C060
C060
C060
0060
0060
0060
0060
0060
ENDCHAR
STARTCHAR 0221
ENCODING 545
SWIDTH 822 0
DWIDTH 16 0
BBX 16 17 1 -2
BITMAP
0080
0080
0080
0080
1880
7E80
6180
C180
C080
C080
C080
C1BE
C1E3
63E6
3E7C
0040
00C0
ENDCHAR
STARTCHAR 0222
ENCODING 546
SWIDTH 668 0
DWIDTH 13 0
BBX 11 14 1 0
BITMAP
60C0
60C0
60C0
60C0
3180
1F00
71C0
60C0
C060
C060
C060
60E0
71C0
3F80
ENDCHAR
STARTCHAR 0223
ENCODING 547
SWIDTH 565 0
DWIDTH 11 0
BBX 10 15 1 0
BITMAP
4180
4180
4180
4180
6180
7300
3F00
6180
C180
C0C0
C0C0
C0C0
C180
6380
3F00
ENDCHAR
STARTCHAR 0224
ENCODING 548
SWIDTH 565 0
DWIDTH 11 0
BBX 9 18 1 -4
BITMAP
FF80
FF80
0300
0300
0600
0400
0C00
1800
1000
3000
6000
4000
FF80
FF80
0080
0080
0380
0300
ENDCHAR
STARTCHAR 0225
ENCODING 549
SWIDTH 462 0
DWIDTH 9 0
BBX 7 14 1 -4
BITMAP
FE
06
0C
08
18
30
60
60
C0
FE
02
02
0E
0C
ENDCHAR
STARTCHAR 0226
ENCODING 550
SWIDTH 617 0
DWIDTH 12 0
BBX 12 18 0 0
BITMAP
0600
0600
0000
0000
0600
0700
0F00
0D00
0980
1980
1880
10C0
3FC0
3FE0
6060
6020
4030
C030
ENDCHAR
STARTCHAR 0227
ENCODING 551
SWIDTH 514 0
DWIDTH 10 0
BBX 8 14 1 0
BITMAP
18
08
00
1C
7F
03
01
01
7F
E1
C1
C3
C7
7D
ENDCHAR
STARTCHAR 0228
ENCODING 552
SWIDTH 514 0
DWIDTH 10 0
BBX 8 19 2 -5
BITMAP
FF
FF
C0
C0
C0
C0
FE
FE
C0
C0
C0
C0
FF
FF
10
18
0C
0C
30
ENDCHAR
STARTCHAR 0229
ENCODING 553
SWIDTH 514 0
DWIDTH 10 0
BBX 9 16 1 -5
BITMAP
0C00
3F00
6300
C180
C180
FF80
C000
C000
4000
7180
3F80
0800
0C00
0600
0600
1800
ENDCHAR
STARTCHAR 022A
ENCODING 554
SWIDTH 771 0
DWIDTH 15 0
BBX 13 20 1 0
BITMAP
0F80
0F80
0000
0C80
0C80
0000
0FC0
3CE0
7030
6030
C018
C018
C018
C018
C018
C018
6030
6030
38E0
1FC0
ENDCHAR
STARTCHAR 022B
ENCODING 555
SWIDTH 565 0
DWIDTH 11 0
BBX 10 16 1 0
BITMAP
3F00
0000
1200
3300
0000
0C00
3F00
6180
C080
C0C0
C0C0
C0C0
C0C0
4180
6380
3F00
ENDCHAR
STARTCHAR 022C
ENCODING 556
SWIDTH 771 0
DWIDTH 15 0
BBX 13 20 1 0
BITMAP
0F80
0F80
0000
0FC0
1180
0000
0FC0
3CE0
7030
6030
C018
C018
C018
C018
C018
C018
6030
6030
38E0
1FC0
ENDCHAR
STARTCHAR 022D
ENCODING 557
SWIDTH 565 0
DWIDTH 11 0
BBX 10 16 1 0
BITMAP
3F00
0000
3900
2F00
0000
0C00
3F00
6180
C080
C0C0
C0C0
C0C0
C0C0
4180
6380
3F00
ENDCHAR
STARTCHAR 022E
ENCODING 558
SWIDTH 771 0
DWIDTH 15 0
BBX 13 18 1 0
BITMAP
0200
0300
0000
0000
0FC0
3CE0
7030
6030
C018
C018
C018
C018
C018
C018
6030
6030
38E0
1FC0
ENDCHAR
STARTCHAR 022F
ENCODING 559
SWIDTH 565 0
DWIDTH 11 0
BBX 10 14 1 0
BITMAP
0C00
0C00
0000
0C00
3F00
6180
C080
C0C0
C0C0
C0C0
C0C0
4180
6380
3F00
ENDCHAR
STARTCHAR 0230
ENCODING 560
SWIDTH 771 0
DWIDTH 15 0
BBX 13 19 1 0
BITMAP
0F80
0000
0300
0300
0000
0FC0
3CE0
7030
6030
C018
C018
C018
C018
C018
C018
6030
6030
38E0
1FC0
ENDCHAR
STARTCHAR 0231
ENCODING 561
SWIDTH 565 0
DWIDTH 11 0
BBX 10 16 1 0
BITMAP
3F00
0000
0C00
0C00
0000
0C00
3F00
6180
C080
C0C0
C0C0
C0C0
C0C0
4180
6380
3F00
ENDCHAR
STARTCHAR 0232
ENCODING 562
SWIDTH 565 0
DWIDTH 11 0
BBX 11 17 0 0
BITMAP
1F00
1F00
0000
C060
60C0
60C0
3180
3180
1B00
1B00
0E00
0400
0400
0400
0400
0400
0400
ENDCHAR
STARTCHAR 0233
ENCODING 563
SWIDTH 462 0
DWIDTH 9 0
BBX 10 18 0 -5
BITMAP
3F00
0000
0000
C0C0
6180
6180
2100
3300
3300
1200
1E00
0E00
0C00
0C00
0800
1800
F000
E000
ENDCHAR
STARTCHAR 0234
ENCODING 564
SWIDTH 360 0
DWIDTH 7 0
BBX 7 15 0 -1
BITMAP
20
20
20
20
20
20
20
20
20
20
20
3E
62
76
DE
ENDCHAR
STARTCHAR 0235
ENCODING 565
SWIDTH 720 0
DWIDTH 14 0
BBX 12 12 2 -1
BITMAP
0C00
BF00
C300
C100
8100
8100
8100
81F0
8310
8390
86F0
0200
ENDCHAR
STARTCHAR 0236
ENCODING 566
SWIDTH 360 0
DWIDTH 7 0
BBX 7 14 0 -1
BITMAP
30
30
30
FE
30
30
30
30
30
3E
72
72
DE
40
ENDCHAR
STARTCHAR 0237
ENCODING 567
SWIDTH 257 0
DWIDTH 5 0
BBX 4 15 -1 -5
BITMAP
10
10
10
10
10
10
10
10
10
10
10
10
10
F0
E0
ENDCHAR
STARTCHAR 0238
ENCODING 568
SWIDTH 925 0
DWIDTH 18 0
BBX 17 15 1 0
BITMAP
008000
008000
008000
008000
188800
7EBE00
61C300
C1C180
C08180
C08180
C08180
C18180
C1C100
636300
3E3E00
ENDCHAR
STARTCHAR 0239
ENCODING 569
SWIDTH 925 0
DWIDTH 18 0
BBX 17 16 1 -5
BITMAP
0C1800
3F7E00
614300
C1C180
C18180
C08180
C08180
C18180
C1C300
63E300
3EBE00
008000
008000
008000
008000
008000
ENDCHAR
STARTCHAR 023A
ENCODING 570
SWIDTH 617 0
DWIDTH 12 0
BBX 12 16 0 -1
BITMAP
00C0
0680
0780
0F80
0D00
0980
1B80
1A80
12C0
3FC0
3FE0
6C60
6820
4830
D830
1000
ENDCHAR
STARTCHAR 023B
ENCODING 571
SWIDTH 617 0
DWIDTH 12 0
BBX 10 16 1 -1
BITMAP
00C0
0FC0
3DC0
7180
6100
4100
C300
C200
C200
C600
C400
6400
7C00
3840
1FC0
1800
ENDCHAR
STARTCHAR 023C
ENCODING 572
SWIDTH 462 0
DWIDTH 9 0
BBX 8 19 1 -4
BITMAP
01
01
03
02
0E
3E
64
CC
C8
C8
D8
D0
50
73
3F
20
60
40
C0
ENDCHAR
STARTCHAR 023D
ENCODING 573
SWIDTH 514 0
DWIDTH 10 0
BBX 10 14 0 0
BITMAP
3000
3000
3000
3000
3000
3000
FE00
FE00
3000
3000
3000
3000
3FC0
3FC0
ENDCHAR
STARTCHAR 023E
ENCODING 574
SWIDTH 514 0
DWIDTH 10 0
BBX 11 16 0 -1
BITMAP
0040
FFE0
FFE0
0580
0500
0700
0600
0600
0400
0C00
0C00
0C00
1400
1400
2400
2000
ENDCHAR
STARTCHAR 023F
ENCODING 575
SWIDTH 462 0
DWIDTH 9 0
BBX 8 16 1 -5
BITMAP
18
7E
C0
C0
E0
38
0E
02
02
86
FC
30
30
18
1F
06
ENDCHAR
STARTCHAR 0240
ENCODING 576
SWIDTH 462 0
DWIDTH 9 0
BBX 8 15 1 -5
BITMAP
FE
06
0C
08
18
30
60
60
C0
E0
30
10
18
0F
07
ENDCHAR
STARTCHAR 0241
ENCODING 577
SWIDTH 411 0
DWIDTH 8 0
BBX 8 14 0 0
BITMAP
7C
EE
03
03
03
03
06
1C
38
30
30
30
30
30
ENDCHAR
STARTCHAR 0242
ENCODING 578
SWIDTH 411 0
DWIDTH 8 0
BBX 8 11 0 0
BITMAP
18
FE
03
03
03
03
06
0C
38
30
30
ENDCHAR
STARTCHAR 0243
ENCODING 579
SWIDTH 617 0
DWIDTH 12 0
BBX 12 14 0 0
BITMAP
3F80
3FE0
3060
3060
3060
3060
3F80
31C0
3060
FE30
FE30
3060
31E0
3F80
ENDCHAR
STARTCHAR 0244
ENCODING 580
SWIDTH 720 0
DWIDTH 14 0
BBX 14 14 0 0
BITMAP
3010
3010
3010
3010
3010
3010
FFFC
3010
3010
3010
3010
3030
1C60
0FC0
ENDCHAR
STARTCHAR 0245
ENCODING 581
SWIDTH 565 0
DWIDTH 11 0
BBX 12 14 0 0
BITMAP
0600
0600
0F00
0B00
1900
1980
1180
3080
30C0
20C0
6060
6060
4060
C030
ENDCHAR
STARTCHAR 0246
ENCODING 582
SWIDTH 514 0
DWIDTH 10 0
BBX 8 16 2 -1
BITMAP
02
FF
FF
C4
C4
CC
C8
FE
FE
D8
D0
D0
D0
FF
FF
20
ENDCHAR
STARTCHAR 0247
ENCODING 583
SWIDTH 514 0
DWIDTH 10 0
BBX 9 19 1 -4
BITMAP
0100
0100
0300
0200
0E00
3F00
6700
CD80
C980
FF80
D800
D000
5000
7180
3F80
2000
6000
4000
4000
ENDCHAR
STARTCHAR 0248
ENCODING 584
SWIDTH 257 0
DWIDTH 5 0
BBX 7 18 -2 -4
BITMAP
0C
0C
0C
0C
0C
0C
3E
3E
0C
0C
0C
0C
0C
0C
08
18
F8
60
ENDCHAR
STARTCHAR 0249
ENCODING 585
SWIDTH 257 0
DWIDTH 5 0
BBX 6 19 -1 -5
BITMAP
10
10
00
00
10
10
10
10
7C
10
10
10
10
10
10
10
10
F0
E0
ENDCHAR
STARTCHAR 024A
ENCODING 586
SWIDTH 720 0
DWIDTH 14 0
BBX 14 19 1 -5
BITMAP
1F90
39F0
6070
6030
C030
C030
C030
C030
C030
C030
6030
6070
38F0
1FB0
0030
0030
0030
001C
000C
ENDCHAR
STARTCHAR 024B
ENCODING 587
SWIDTH 565 0
DWIDTH 11 0
BBX 11 16 1 -5
BITMAP
1800
3E80
6180
C180
C080
C080
C080
C180
C180
6380
3E80
0080
0080
0080
00E0
0060
ENDCHAR
STARTCHAR 024C
ENCODING 588
SWIDTH 617 0
DWIDTH 12 0
BBX 11 14 0 0
BITMAP
3F00
3FC0
30E0
3060
3060
3060
30C0
FF80
3100
3180
30C0
30C0
3060
3060
ENDCHAR
STARTCHAR 024D
ENCODING 589
SWIDTH 411 0
DWIDTH 8 0
BBX 8 11 0 0
BITMAP
03
2F
38
30
20
FC
20
20
20
20
20
ENDCHAR
STARTCHAR 024E
ENCODING 590
SWIDTH 565 0
DWIDTH 11 0
BBX 11 14 0 0
BITMAP
C060
60C0
60C0
FFE0
3180
1B00
1B00
0E00
0400
0400
0400
0400
0400
0400
ENDCHAR
STARTCHAR 024F
ENCODING 591
SWIDTH 462 0
DWIDTH 9 0
BBX 10 15 0 -5
BITMAP
C0C0
6180
6180
FFC0
3300
3300
1200
1E00
0E00
0C00
0C00
0800
1800
F000
E000
ENDCHAR
STARTCHAR 0250
ENCODING 592
SWIDTH 514 0
DWIDTH 10 0
BBX 8 11 2 0
BITMAP
0C
BE
C3
83
83
8E
F8
80
80
C6
7C
ENDCHAR
STARTCHAR 0251
ENCODING 593
SWIDTH 565 0
DWIDTH 11 0
BBX 11 11 1 0
BITMAP
1800
7E80
6180
C180
C080
C080
C080
C180
C180
6380
3EE0
ENDCHAR
STARTCHAR 0252
ENCODING 594
SWIDTH 565 0
DWIDTH 11 0
BBX 11 11 0 0
BITMAP
4300
EF80
30C0
3060
2060
2060
2060
3060
3040
38C0
2F80
ENDCHAR
STARTCHAR 0253
ENCODING 595
SWIDTH 565 0
DWIDTH 11 0
BBX 9 15 2 0
BITMAP
6000
E000
8000
8000
8C00
BE00
C300
C180
8180
8180
8180
C180
C100
E300
BE00
ENDCHAR
STARTCHAR 0254
ENCODING 596
SWIDTH 462 0
DWIDTH 9 0
BBX 7 11 1 0
BITMAP
70
FC
0E
06
06
06
06
06
06
8C
F8
ENDCHAR
STARTCHAR 0255
ENCODING 597
SWIDTH 514 0
DWIDTH 10 0
BBX 8 12 1 -1
BITMAP
0C
3F
60
40
C0
C0
CE
FB
61
73
FE
80
ENDCHAR
STARTCHAR 0256
ENCODING 598
SWIDTH 565 0
DWIDTH 11 0
BBX 12 20 1 -5
BITMAP
0080
0080
0080
0080
1880
7E80
6180
C180
C080
C080
C080
C180
C180
6380
3E80
0080
0080
0080
00F0
0060
ENDCHAR
STARTCHAR 0257
ENCODING 599
SWIDTH 565 0
DWIDTH 11 0
BBX 11 15 1 0
BITMAP
0060
00E0
0080
0080
1880
7E80
6180
C180
C080
C080
C080
C180
C180
6380
3E80
ENDCHAR
STARTCHAR 0258
ENCODING 600
SWIDTH 514 0
DWIDTH 10 0
BBX 9 11 1 0
BITMAP
1800
7E00
4300
C180
C180
FF80
0180
0180
0300
C700
FE00
ENDCHAR
STARTCHAR 0259
ENCODING 601
SWIDTH 514 0
DWIDTH 10 0
BBX 9 11 1 0
BITMAP
3800
FE00
8300
0180
0180
FF80
FF80
C180
C100
6300
3E00
ENDCHAR
STARTCHAR 025A
ENCODING 602
SWIDTH 771 0
DWIDTH 15 0
BBX 14 11 1 0
BITMAP
3800
FE00
8300
01A0
01E0
1FA0
F9BC
C198
C100
6300
3E00
ENDCHAR
STARTCHAR 025B
ENCODING 603
SWIDTH 462 0
DWIDTH 9 0
BBX 8 11 1 0
BITMAP
1C
7F
C0
C0
60
3C
E0
C0
C0
E3
7F
ENDCHAR
STARTCHAR 025C
ENCODING 604
SWIDTH 462 0
DWIDTH 9 0
BBX 8 11 1 0
BITMAP
38
FE
06
02
06
38
06
03
03
86
FC
ENDCHAR
STARTCHAR 025D
ENCODING 605
SWIDTH 668 0
DWIDTH 13 0
BBX 12 11 1 0
BITMAP
3800
FE00
0780
03C0
06F0
3870
0600
0300
0300
8600
FC00
ENDCHAR
STARTCHAR 025E
ENCODING 606
SWIDTH 565 0
DWIDTH 11 0
BBX 10 11 1 0
BITMAP
0E00
3F80
6080
C080
C180
CF00
C180
C0C0
60C0
7180
3F00
ENDCHAR
STARTCHAR 025F
ENCODING 607
SWIDTH 257 0
DWIDTH 5 0
BBX 6 15 -1 -5
BITMAP
10
10
10
10
7C
10
10
10
10
10
10
10
10
F0
E0
ENDCHAR
STARTCHAR 0260
ENCODING 608
SWIDTH 565 0
DWIDTH 11 0
BBX 11 20 1 -5
BITMAP
0060
00E0
0080
0080
1880
3E80
6180
C180
C080
C080
C080
C080
C180
6380
3E80
0080
0180
0180
7F00
1C00
ENDCHAR
STARTCHAR 0261
ENCODING 609
SWIDTH 565 0
DWIDTH 11 0
BBX 9 16 1 -5
BITMAP
1800
3E80
6180
C180
C080
C080
C080
C080
C180
6380
3E80
0080
0180
0180
7F00
1C00
ENDCHAR
STARTCHAR 0262
ENCODING 610
SWIDTH 565 0
DWIDTH 11 0
BBX 9 11 1 0
BITMAP
0E00
3F00
6000
C000
C000
C780
C780
C180
4180
7180
3F80
ENDCHAR
STARTCHAR 0263
ENCODING 611
SWIDTH 462 0
DWIDTH 9 0
BBX 9 15 0 -5
BITMAP
C080
6180
6180
2300
3300
1200
1E00
0C00
0C00
1C00
1E00
1200
1200
1E00
0C00
ENDCHAR
STARTCHAR 0264
ENCODING 612
SWIDTH 462 0
DWIDTH 9 0
BBX 10 11 0 0
BITMAP
80C0
E1C0
6100
3300
1E00
0C00
0C00
1E00
1200
1600
1E00
ENDCHAR
STARTCHAR 0265
ENCODING 613
SWIDTH 617 0
DWIDTH 12 0
BBX 8 14 2 -4
BITMAP
81
81
81
81
81
81
81
83
C7
7D
01
01
01
01
ENDCHAR
STARTCHAR 0266
ENCODING 614
SWIDTH 617 0
DWIDTH 12 0
BBX 8 15 2 0
BITMAP
60
E0
80
80
8C
BF
C3
C1
81
81
81
81
81
81
81
ENDCHAR
STARTCHAR 0267
ENCODING 615
SWIDTH 617 0
DWIDTH 12 0
BBX 8 20 2 -5
BITMAP
60
E0
80
80
8C
BF
C3
C1
81
81
81
81
81
81
81
01
01
01
07
06
ENDCHAR
STARTCHAR 0268
ENCODING 616
SWIDTH 257 0
DWIDTH 5 0
BBX 5 14 0 0
BITMAP
20
20
00
00
20
20
20
20
F8
20
20
20
20
20
ENDCHAR
STARTCHAR 0269
ENCODING 617
SWIDTH 308 0
DWIDTH 6 0
BBX 4 10 2 0
BITMAP
80
80
80
80
80
80
80
80
C0
F0
ENDCHAR
STARTCHAR 026A
ENCODING 618
SWIDTH 308 0
DWIDTH 6 0
BBX 5 10 1 0
BITMAP
F8
60
60
60
60
60
60
60
60
F8
ENDCHAR
STARTCHAR 026B
ENCODING 619
SWIDTH 360 0
DWIDTH 7 0
BBX 7 15 0 0
BITMAP
18
18
18
18
18
18
7A
FE
9C
18
18
18
18
18
18
ENDCHAR
STARTCHAR 026C
ENCODING 620
SWIDTH 308 0
DWIDTH 6 0
BBX 7 15 0 0
BITMAP
18
18
18
18
18
78
F8
98
FE
18
18
18
18
18
18
ENDCHAR
STARTCHAR 026D
ENCODING 621
SWIDTH 257 0
DWIDTH 5 0
BBX 4 20 2 -5
BITMAP
80
80
80
80
80
80
80
80
80
80
80
80
80
80
80
80
80
C0
F0
70
ENDCHAR
STARTCHAR 026E
ENCODING 622
SWIDTH 617 0
DWIDTH 12 0
BBX 10 20 2 -5
BITMAP
8000
8000
8000
8000
8000
FFC0
8180
8300
8600
8C00
8800
9F00
8180
80C0
80C0
00C0
00C0
0180
7F80
1E00
ENDCHAR
STARTCHAR 026F
ENCODING 623
SWIDTH 925 0
DWIDTH 18 0
BBX 15 10 2 0
BITMAP
8306
8306
8306
8306
8306
8306
8306
830E
C59E
79F6
ENDCHAR
STARTCHAR 0270
ENCODING 624
SWIDTH 925 0
DWIDTH 18 0
BBX 15 15 2 -5
BITMAP
8306
8306
8306
8306
8306
8306
8306
830E
C59E
79F6
0006
0006
0006
0006
0006
ENDCHAR
STARTCHAR 0271
ENCODING 625
SWIDTH 925 0
DWIDTH 18 0
BBX 15 16 2 -5
BITMAP
0C30
BEFC
C38C
C306
8306
8306
8306
8306
8306
8306
8306
0006
0006
0006
001C
0018
ENDCHAR
STARTCHAR 0272
ENCODING 626
SWIDTH 617 0
DWIDTH 12 0
BBX 11 16 -1 -5
BITMAP
0180
17E0
1860
1820
1020
1020
1020
1020
1020
1020
1020
1000
1000
1000
F000
6000
ENDCHAR
STARTCHAR 0273
ENCODING 627
SWIDTH 617 0
DWIDTH 12 0
BBX 11 16 2 -5
BITMAP
0C00
BF00
C300
C100
8100
8100
8100
8100
8100
8100
8100
0100
0100
0180
01E0
00C0
ENDCHAR
STARTCHAR 0274
ENCODING 628
SWIDTH 617 0
DWIDTH 12 0
BBX 9 10 2 0
BITMAP
C180
E180
B180
B180
9980
8D80
8D80
8780
8380
8380
ENDCHAR
STARTCHAR 0275
ENCODING 629
SWIDTH 565 0
DWIDTH 11 0
BBX 10 11 1 0
BITMAP
0C00
3F00
6180
C080
C0C0
FFC0
C0C0
C0C0
4180
6380
3F00
ENDCHAR
STARTCHAR 0276
ENCODING 630
SWIDTH 822 0
DWIDTH 16 0
BBX 15 11 1 0
BITMAP
0C00
3FFE
61C0
C0C0
C0C0
C0FC
C0C0
C0C0
41C0
63C0
3EFE
ENDCHAR
STARTCHAR 0277
ENCODING 631
SWIDTH 771 0
DWIDTH 15 0
BBX 13 11 1 0
BITMAP
0700
3FE0
7070
6010
C018
C218
C218
C218
C318
6730
3DF0
ENDCHAR
STARTCHAR 0278
ENCODING 632
SWIDTH 720 0
DWIDTH 14 0
BBX 12 20 1 -5
BITMAP
0600
0600
0600
0600
0600
3FC0
6660
C630
C630
C630
C630
C630
6660
76E0
1F80
0600
0600
0600
0600
0600
ENDCHAR
STARTCHAR 0279
ENCODING 633
SWIDTH 411 0
DWIDTH 8 0
BBX 6 10 0 0
BITMAP
04
04
04
04
04
04
0C
0C
94
F4
ENDCHAR
STARTCHAR 027A
ENCODING 634
SWIDTH 411 0
DWIDTH 8 0
BBX 6 15 0 0
BITMAP
04
04
04
04
04
04
04
04
04
04
04
0C
0C
94
F4
ENDCHAR
STARTCHAR 027B
ENCODING 635
SWIDTH 411 0
DWIDTH 8 0
BBX 9 15 0 -5
BITMAP
0400
0400
0400
0400
0400
0400
0C00
0C00
9400
F400
0400
0400
0400
0780
0300
ENDCHAR
STARTCHAR 027C
ENCODING 636
SWIDTH 411 0
DWIDTH 8 0
BBX 6 16 2 -5
BITMAP
0C
BC
E0
C0
80
80
80
80
80
80
80
80
80
80
80
80
ENDCHAR
STARTCHAR 027D
ENCODING 637
SWIDTH 411 0
DWIDTH 8 0
BBX 6 16 2 -5
BITMAP
0C
BC
E0
C0
80
80
80
80
80
80
80
80
80
C0
F0
70
ENDCHAR
STARTCHAR 027E
ENCODING 638
SWIDTH 308 0
DWIDTH 6 0
BBX 4 11 2 0
BITMAP
30
F0
80
80
80
80
80
80
80
80
80
ENDCHAR
STARTCHAR 027F
ENCODING 639
SWIDTH 308 0
DWIDTH 6 0
BBX 5 16 0 -5
BITMAP
60
F8
18
18
18
18
18
18
18
18
18
18
18
18
18
18
ENDCHAR
STARTCHAR 0280
ENCODING 640
SWIDTH 514 0
DWIDTH 10 0
BBX 8 10 2 0
BITMAP
FE
83
83
83
FE
FC
8C
86
83
83
ENDCHAR
STARTCHAR 0281
ENCODING 641
SWIDTH 514 0
DWIDTH 10 0
BBX 8 10 2 0
BITMAP
83
86
86
8C
FE
83
83
83
87
FE
ENDCHAR
STARTCHAR 0282
ENCODING 642
SWIDTH 462 0
DWIDTH 9 0
BBX 7 15 1 -4
BITMAP
18
7E
C0
C0
E0
38
0E
02
02
86
FC
C0
C0
F0
70
ENDCHAR
STARTCHAR 0283
ENCODING 643
SWIDTH 257 0
DWIDTH 5 0
BBX 7 20 -1 -5
BITMAP
0E
1E
10
10
10
10
10
10
10
10
10
10
10
10
10
10
10
10
F0
60
ENDCHAR
STARTCHAR 0284
ENCODING 644
SWIDTH 257 0
DWIDTH 5 0
BBX 7 20 -1 -5
BITMAP
0E
1E
10
10
10
10
10
10
10
7C
10
10
10
10
10
10
10
10
F0
60
ENDCHAR
STARTCHAR 0285
ENCODING 645
SWIDTH 257 0
DWIDTH 5 0
BBX 6 16 0 -5
BITMAP
C0
E0
20
20
20
20
20
20
20
20
20
20
20
20
3C
18
ENDCHAR
STARTCHAR 0286
ENCODING 646
SWIDTH 257 0
DWIDTH 5 0
BBX 8 20 -2 -5
BITMAP
07
0F
08
08
08
08
08
08
08
08
08
08
08
08
08
7E
C8
88
F8
70
ENDCHAR
STARTCHAR 0287
ENCODING 647
SWIDTH 360 0
DWIDTH 7 0
BBX 7 13 0 -2
BITMAP
60
F8
18
08
08
08
08
08
08
08
FE
08
08
ENDCHAR
STARTCHAR 0288
ENCODING 648
SWIDTH 360 0
DWIDTH 7 0
BBX 7 18 0 -5
BITMAP
30
30
30
FE
30
30
30
30
30
30
30
30
30
30
30
30
3E
0C
ENDCHAR
STARTCHAR 0289
ENCODING 649
SWIDTH 617 0
DWIDTH 12 0
BBX 12 10 0 0
BITMAP
2040
2040
2040
2040
FFF0
2040
2040
20C0
31C0
1F40
ENDCHAR
STARTCHAR 028A
ENCODING 650
SWIDTH 565 0
DWIDTH 11 0
BBX 10 10 1 0
BITMAP
F3C0
2300
6180
C080
C0C0
C0C0
C0C0
C180
6380
3F00
ENDCHAR
STARTCHAR 028B
ENCODING 651
SWIDTH 565 0
DWIDTH 11 0
BBX 8 11 2 0
BITMAP
06
8F
81
81
81
81
81
81
C3
E7
7E
ENDCHAR
STARTCHAR 028C
ENCODING 652
SWIDTH 462 0
DWIDTH 9 0
BBX 10 10 0 0
BITMAP
0C00
1E00
1E00
3200
3300
2300
6180
6180
4080
C0C0
ENDCHAR
STARTCHAR 028D
ENCODING 653
SWIDTH 771 0
DWIDTH 15 0
BBX 15 10 0 0
BITMAP
1830
1C38
3C78
3468
264C
66CC
62CC
6284
4386
C186
ENDCHAR
STARTCHAR 028E
ENCODING 654
SWIDTH 462 0
DWIDTH 9 0
BBX 10 15 0 0
BITMAP
03C0
0700
0600
0C00
0C00
0C00
1C00
1600
3200
3300
2300
6100
6180
4180
C0C0
ENDCHAR
STARTCHAR 028F
ENCODING 655
SWIDTH 462 0
DWIDTH 9 0
BBX 9 10 0 0
BITMAP
C180
6300
3200
3600
1C00
0C00
0800
0800
0800
0800
ENDCHAR
STARTCHAR 0290
ENCODING 656
SWIDTH 462 0
DWIDTH 9 0
BBX 10 15 1 -5
BITMAP
FE00
0600
0C00
0800
1800
3000
6000
6000
C000
FE00
0200
0200
0200
03C0
0180
ENDCHAR
STARTCHAR 0291
ENCODING 657
SWIDTH 514 0
DWIDTH 10 0
BBX 9 12 1 -2
BITMAP
FE00
0600
0C00
0800
1800
3000
6780
6C80
D980
FF00
3000
1000
ENDCHAR
STARTCHAR 0292
ENCODING 658
SWIDTH 462 0
DWIDTH 9 0
BBX 9 15 0 -5
BITMAP
7F80
0300
0600
0C00
1800
3000
3E00
0300
0180
0180
0180
0180
0300
FE00
3800
ENDCHAR
STARTCHAR 0293
ENCODING 659
SWIDTH 462 0
DWIDTH 9 0
BBX 10 15 0 -5
BITMAP
7F80
0300
0600
0C00
1800
3000
3E00
0300
0180
0180
FD80
8780
8380
FEC0
3800
ENDCHAR
STARTCHAR 0294
ENCODING 660
SWIDTH 411 0
DWIDTH 8 0
BBX 8 15 0 0
BITMAP
3C
FE
03
03
03
02
06
0C
38
30
30
30
30
30
30
ENDCHAR
STARTCHAR 0295
ENCODING 661
SWIDTH 411 0
DWIDTH 8 0
BBX 7 15 1 0
BITMAP
7C
FE
C0
80
80
C0
C0
70
38
18
18
18
18
18
18
ENDCHAR
STARTCHAR 0296
ENCODING 662
SWIDTH 411 0
DWIDTH 8 0
BBX 7 15 1 0
BITMAP
60
60
60
60
60
60
60
38
0C
0C
06
06
06
8C
F8
ENDCHAR
STARTCHAR 0297
ENCODING 663
SWIDTH 462 0
DWIDTH 9 0
BBX 8 16 1 -5
BITMAP
0C
3E
60
60
C0
C0
C0
C0
C0
C0
C0
C0
40
60
3F
0C
ENDCHAR
STARTCHAR 0298
ENCODING 664
SWIDTH 771 0
DWIDTH 15 0
BBX 13 14 1 0
BITMAP
0FC0
3CE0
7030
6030
C018
C018
C318
C718
C018
C018
6030
6030
38E0
1FC0
ENDCHAR
STARTCHAR 0299
ENCODING 665
SWIDTH 565 0
DWIDTH 11 0
BBX 8 10 2 0
BITMAP
FE
83
83
83
FC
83
81
81
87
FE
ENDCHAR
STARTCHAR 029A
ENCODING 666
SWIDTH 565 0
DWIDTH 11 0
BBX 10 11 1 0
BITMAP
1C00
7F00
C180
C180
6080
38C0
E0C0
C080
C180
E300
7E00
ENDCHAR
STARTCHAR 029B
ENCODING 667
SWIDTH 565 0
DWIDTH 11 0
BBX 11 15 1 0
BITMAP
00E0
01E0
0180
0180
0F80
3F00
6000
C000
C000
C780
C780
C180
4180
7180
3F80
ENDCHAR
STARTCHAR 029C
ENCODING 668
SWIDTH 617 0
DWIDTH 12 0
BBX 9 10 2 0
BITMAP
8180
8180
8180
8180
FF80
8180
8180
8180
8180
8180
ENDCHAR
STARTCHAR 029D
ENCODING 669
SWIDTH 257 0
DWIDTH 5 0
BBX 7 19 -2 -5
BITMAP
08
08
00
00
08
08
08
08
08
08
08
08
08
08
7E
C8
C8
F8
30
ENDCHAR
STARTCHAR 029E
ENCODING 670
SWIDTH 514 0
DWIDTH 10 0
BBX 8 14 1 -4
BITMAP
C3
63
63
33
1F
0F
1B
33
63
C3
03
03
03
03
ENDCHAR
STARTCHAR 029F
ENCODING 671
SWIDTH 411 0
DWIDTH 8 0
BBX 6 10 2 0
BITMAP
80
80
80
80
80
80
80
80
80
FC
ENDCHAR
STARTCHAR 02A0
ENCODING 672
SWIDTH 565 0
DWIDTH 11 0
BBX 12 20 1 -5
BITMAP
0070
00F0
0080
0080
1880
7E80
6180
C180
C080
C080
C080
C180
C180
6380
3E80
0080
0080
0080
0080
0080
ENDCHAR
STARTCHAR 02A1
ENCODING 673
SWIDTH 411 0
DWIDTH 8 0
BBX 8 15 0 0
BITMAP
3C
FE
03
03
03
02
06
0C
18
10
7C
7C
10
10
10
ENDCHAR
STARTCHAR 02A2
ENCODING 674
SWIDTH 411 0
DWIDTH 8 0
BBX 7 15 1 0
BITMAP
7C
FE
C0
80
80
C0
C0
70
38
18
7C
7C
18
18
18
ENDCHAR
STARTCHAR 02A3
ENCODING 675
SWIDTH 925 0
DWIDTH 18 0
BBX 17 15 1 0
BITMAP
008000
008000
008000
008000
188000
7EFF80
618300
C18300
C08600
C08C00
C08800
C19800
C1B000
63A000
3EFF80
ENDCHAR
STARTCHAR 02A4
ENCODING 676
SWIDTH 977 0
DWIDTH 19 0
BBX 17 20 1 -5
BITMAP
008000
008000
008000
008000
188000
7EFF80
618300
C18200
C08400
C08C00
C09800
C19F00
C18380
638180
3E8080
000080
000180
000180
007F00
003C00
ENDCHAR
STARTCHAR 02A5
ENCODING 677
SWIDTH 1028 0
DWIDTH 20 0
BBX 19 16 1 -2
BITMAP
008000
008000
008000
008000
188000
7EFF80
618300
C18300
C08600
C08C00
C08800
C19BE0
C1B260
63A660
3EFFC0
000C00
ENDCHAR
STARTCHAR 02A6
ENCODING 678
SWIDTH 720 0
DWIDTH 14 0
BBX 14 13 0 0
BITMAP
3000
3000
3070
FFF8
3100
3300
3180
30F0
3038
300C
300C
381C
1FF0
ENDCHAR
STARTCHAR 02A7
ENCODING 679
SWIDTH 462 0
DWIDTH 9 0
BBX 10 20 0 -5
BITMAP
00C0
01C0
3100
3100
3100
FF00
3100
3100
3100
3100
3100
3100
3100
3100
1F00
0100
0100
0300
0F00
0600
ENDCHAR
STARTCHAR 02A8
ENCODING 680
SWIDTH 822 0
DWIDTH 16 0
BBX 16 13 0 0
BITMAP
3000
3000
301C
FE7E
30E0
30C0
30C0
3080
309E
30FF
30C3
33E3
1E3E
ENDCHAR
STARTCHAR 02A9
ENCODING 681
SWIDTH 822 0
DWIDTH 16 0
BBX 15 20 0 -5
BITMAP
0F00
1E00
3000
3000
3038
FF7C
3386
3306
3306
3306
3306
3306
3306
3306
3306
0006
0006
0006
001E
001C
ENDCHAR
STARTCHAR 02AA
ENCODING 682
SWIDTH 617 0
DWIDTH 12 0
BBX 10 15 2 0
BITMAP
8000
8000
8000
8000
8700
9FC0
9000
9000
9C00
8F00
8380
80C0
80C0
E1C0
BF80
ENDCHAR
STARTCHAR 02AB
ENCODING 683
SWIDTH 565 0
DWIDTH 11 0
BBX 9 15 2 0
BITMAP
8000
8000
8000
8000
8000
FF80
8100
8300
8600
8C00
8C00
9800
B000
A000
FF80
ENDCHAR
STARTCHAR 02AC
ENCODING 684
SWIDTH 462 0
DWIDTH 9 0
BBX 10 14 0 0
BITMAP
8CC0
CC80
5C80
5680
5380
3300
2300
8C40
CCC0
4C80
5680
5380
7300
2300
ENDCHAR
STARTCHAR 02AD
ENCODING 685
SWIDTH 565 0
DWIDTH 11 0
BBX 8 14 2 0
BITMAP
FF
FF
83
83
83
00
00
00
00
FF
FF
83
83
83
ENDCHAR
STARTCHAR 02AE
ENCODING 686
SWIDTH 617 0
DWIDTH 12 0
BBX 11 16 0 -5
BITMAP
C000
E060
2060
2060
2060
2060
2060
2060
30E0
39E0
1F60
0060
0060
0060
0060
0060
ENDCHAR
STARTCHAR 02AF
ENCODING 687
SWIDTH 617 0
DWIDTH 12 0
BBX 12 16 0 -5
BITMAP
C000
E060
2060
2060
2060
2060
2060
2060
30E0
39E0
1F60
0060
0060
0060
0070
0030
ENDCHAR
STARTCHAR 02B0
ENCODING 688
SWIDTH 360 0
DWIDTH 7 0
BBX 6 8 1 6
BITMAP
80
80
B8
CC
84
84
84
84
ENDCHAR
STARTCHAR 02B1
ENCODING 689
SWIDTH 360 0
DWIDTH 7 0
BBX 6 8 1 7
BITMAP
C0
80
B8
CC
84
84
84
84
ENDCHAR
STARTCHAR 02B2
ENCODING 690
SWIDTH 154 0
DWIDTH 3 0
BBX 3 11 -1 3
BITMAP
20
00
20
20
20
20
20
20
20
20
E0
ENDCHAR
STARTCHAR 02B3
ENCODING 691
SWIDTH 257 0
DWIDTH 5 0
BBX 4 6 1 6
BITMAP
B0
C0
80
80
80
80
ENDCHAR
STARTCHAR 02B4
ENCODING 692
SWIDTH 257 0
DWIDTH 5 0
BBX 4 7 0 5
BITMAP
10
10
10
10
10
30
C0
ENDCHAR
STARTCHAR 02B5
ENCODING 693
SWIDTH 257 0
DWIDTH 5 0
BBX 6 9 0 3
BITMAP
10
10
10
10
10
30
D0
10
1C
ENDCHAR
STARTCHAR 02B6
ENCODING 694
SWIDTH 360 0
DWIDTH 7 0
BBX 6 6 1 6
BITMAP
8C
88
90
F8
8C
F8
ENDCHAR
STARTCHAR 02B7
ENCODING 695
SWIDTH 462 0
DWIDTH 9 0
BBX 10 6 0 6
BITMAP
8C40
4C80
4C80
5280
7300
3300
ENDCHAR
STARTCHAR 02B8
ENCODING 696
SWIDTH 308 0
DWIDTH 6 0
BBX 6 9 0 3
BITMAP
84
44
48
68
28
30
10
20
E0
ENDCHAR
STARTCHAR 02B9
ENCODING 697
SWIDTH 154 0
DWIDTH 3 0
BBX 3 5 0 9
BITMAP
60
60
40
40
C0
ENDCHAR
STARTCHAR 02BA
ENCODING 698
SWIDTH 308 0
DWIDTH 6 0
BBX 7 5 0 9
BITMAP
66
64
4C
4C
C8
ENDCHAR
STARTCHAR 02BB
ENCODING 699
SWIDTH 154 0
DWIDTH 3 0
BBX 3 5 0 9
BITMAP
20
60
60
40
C0
ENDCHAR
STARTCHAR 02BC
ENCODING 700
SWIDTH 154 0
DWIDTH 3 0
BBX 3 5 0 9
BITMAP
60
60
40
40
C0
ENDCHAR
STARTCHAR 02BD
ENCODING 701
SWIDTH 154 0
DWIDTH 3 0
BBX 3 5 0 9
BITMAP
C0
40
60
60
20
ENDCHAR
STARTCHAR 02BE
ENCODING 702
SWIDTH 154 0
DWIDTH 3 0
BBX 2 4 1 11
BITMAP
80
40
C0
80
ENDCHAR
STARTCHAR 02BF
ENCODING 703
SWIDTH 154 0
DWIDTH 3 0
BBX 2 4 1 11
BITMAP
C0
80
80
C0
ENDCHAR
STARTCHAR 02C0
ENCODING 704
SWIDTH 257 0
DWIDTH 5 0
BBX 5 6 0 9
BITMAP
70
88
08
18
30
20
ENDCHAR
STARTCHAR 02C1
ENCODING 705
SWIDTH 257 0
DWIDTH 5 0
BBX 5 6 0 9
BITMAP
78
40
C0
40
30
10
ENDCHAR
STARTCHAR 02C2
ENCODING 706
SWIDTH 257 0
DWIDTH 5 0
BBX 4 5 1 10
BITMAP
10
E0
80
60
10
ENDCHAR
STARTCHAR 02C3
ENCODING 707
SWIDTH 257 0
DWIDTH 5 0
BBX 4 4 1 10
BITMAP
80
60
30
C0
ENDCHAR
STARTCHAR 02C4
ENCODING 708
SWIDTH 257 0
DWIDTH 5 0
BBX 4 4 1 11
BITMAP
40
A0
A0
90
ENDCHAR
STARTCHAR 02C5
ENCODING 709
SWIDTH 257 0
DWIDTH 5 0
BBX 5 4 0 11
BITMAP
88
50
50
20
ENDCHAR
STARTCHAR 02C6
ENCODING 710
SWIDTH 411 0
DWIDTH 8 0
BBX 6 3 1 12
BITMAP
30
78
CC
ENDCHAR
STARTCHAR 02C7
ENCODING 711
SWIDTH 411 0
DWIDTH 8 0
BBX 6 3 1 12
BITMAP
84
78
30
ENDCHAR
STARTCHAR 02C8
ENCODING 712
SWIDTH 154 0
DWIDTH 3 0
BBX 1 5 1 10
BITMAP
80
80
80
80
80
ENDCHAR
STARTCHAR 02C9
ENCODING 713
SWIDTH 360 0
DWIDTH 7 0
BBX 6 1 1 12
BITMAP
FC
ENDCHAR
STARTCHAR 02CA
ENCODING 714
SWIDTH 257 0
DWIDTH 5 0
BBX 4 3 1 12
BITMAP
70
60
C0
ENDCHAR
STARTCHAR 02CB
ENCODING 715
SWIDTH 257 0
DWIDTH 5 0
BBX 3 3 1 12
BITMAP
C0
60
20
ENDCHAR
STARTCHAR 02CC
ENCODING 716
SWIDTH 154 0
DWIDTH 3 0
BBX 1 5 1 -4
BITMAP
80
80
80
80
80
ENDCHAR
STARTCHAR 02CD
ENCODING 717
SWIDTH 360 0
DWIDTH 7 0
BBX 6 2 1 -3
BITMAP
FC
FC
ENDCHAR
STARTCHAR 02CE
ENCODING 718
SWIDTH 257 0
DWIDTH 5 0
BBX 3 3 1 -4
BITMAP
C0
60
20
ENDCHAR
STARTCHAR 02CF
ENCODING 719
SWIDTH 257 0
DWIDTH 5 0
BBX 3 3 1 -4
BITMAP
60
40
80
ENDCHAR
STARTCHAR 02D0
ENCODING 720
SWIDTH 308 0
DWIDTH 6 0
BBX 3 10 2 0
BITMAP
C0
40
00
00
00
00
00
00
C0
E0
ENDCHAR
STARTCHAR 02D1
ENCODING 721
SWIDTH 308 0
DWIDTH 6 0
BBX 2 2 2 8
BITMAP
C0
40
ENDCHAR
STARTCHAR 02D2
ENCODING 722
SWIDTH 154 0
DWIDTH 3 0
BBX 2 4 1 4
BITMAP
80
40
40
80
ENDCHAR
STARTCHAR 02D3
ENCODING 723
SWIDTH 154 0
DWIDTH 3 0
BBX 2 4 1 4
BITMAP
40
80
80
C0
ENDCHAR
STARTCHAR 02D4
ENCODING 724
SWIDTH 257 0
DWIDTH 5 0
BBX 4 4 1 4
BITMAP
40
40
F0
F0
ENDCHAR
STARTCHAR 02D5
ENCODING 725
SWIDTH 257 0
DWIDTH 5 0
BBX 4 4 1 4
BITMAP
F0
F0
40
40
ENDCHAR
STARTCHAR 02D6
ENCODING 726
SWIDTH 257 0
DWIDTH 5 0
BBX 4 4 1 4
BITMAP
40
40
F0
40
ENDCHAR
STARTCHAR 02D7
ENCODING 727
SWIDTH 257 0
DWIDTH 5 0
BBX 4 1 1 5
BITMAP
F0
ENDCHAR
STARTCHAR 02D8
ENCODING 728
SWIDTH 360 0
DWIDTH 7 0
BBX 6 2 1 12
BITMAP
8C
78
ENDCHAR
STARTCHAR 02D9
ENCODING 729
SWIDTH 154 0
DWIDTH 3 0
BBX 2 2 1 12
BITMAP
C0
C0
ENDCHAR
STARTCHAR 02DA
ENCODING 730
SWIDTH 257 0
DWIDTH 5 0
BBX 4 4 1 12
BITMAP
60
90
90
F0
ENDCHAR
STARTCHAR 02DB
ENCODING 731
SWIDTH 205 0
DWIDTH 4 0
BBX 3 4 1 -4
BITMAP
40
80
80
E0
ENDCHAR
STARTCHAR 02DC
ENCODING 732
SWIDTH 411 0
DWIDTH 8 0
BBX 7 2 1 12
BITMAP
F2
9C
ENDCHAR
STARTCHAR 02DD
ENCODING 733
SWIDTH 411 0
DWIDTH 8 0
BBX 7 3 1 12
BITMAP
66
4C
C8
ENDCHAR
STARTCHAR 02DE
ENCODING 734
SWIDTH 205 0
DWIDTH 4 0
BBX 7 4 -2 3
BITMAP
F0
B0
1E
0C
ENDCHAR
STARTCHAR 02DF
ENCODING 735
SWIDTH 257 0
DWIDTH 5 0
BBX 3 4 1 11
BITMAP
A0
60
E0
80
ENDCHAR
STARTCHAR 02E0
ENCODING 736
SWIDTH 308 0
DWIDTH 6 0
BBX 6 9 0 3
BITMAP
84
44
48
28
30
10
30
28
30
ENDCHAR
STARTCHAR 02E1
ENCODING 737
SWIDTH 154 0
DWIDTH 3 0
BBX 1 8 1 6
BITMAP
80
80
80
80
80
80
80
80
ENDCHAR
STARTCHAR 02E2
ENCODING 738
SWIDTH 308 0
DWIDTH 6 0
BBX 4 7 1 5
BITMAP
F0
80
C0
30
10
10
E0
ENDCHAR
STARTCHAR 02E3
ENCODING 739
SWIDTH 308 0
DWIDTH 6 0
BBX 5 6 1 6
BITMAP
88
D0
70
60
50
88
ENDCHAR
STARTCHAR 02E4
ENCODING 740
SWIDTH 257 0
DWIDTH 5 0
BBX 5 8 0 7
BITMAP
78
80
C0
40
30
10
10
10
ENDCHAR
STARTCHAR 02E5
ENCODING 741
SWIDTH 411 0
DWIDTH 8 0
BBX 5 13 2 0
BITMAP
F8
18
18
18
18
18
18
18
18
18
18
18
18
ENDCHAR
STARTCHAR 02E6
ENCODING 742
SWIDTH 411 0
DWIDTH 8 0
BBX 5 13 2 0
BITMAP
18
18
18
F8
18
18
18
18
18
18
18
18
18
ENDCHAR
STARTCHAR 02E7
ENCODING 743
SWIDTH 411 0
DWIDTH 8 0
BBX 5 13 2 0
BITMAP
18
18
18
18
18
F8
F8
18
18
18
18
18
18
ENDCHAR
STARTCHAR 02E8
ENCODING 744
SWIDTH 411 0
DWIDTH 8 0
BBX 5 13 2 0
BITMAP
18
18
18
18
18
18
18
18
F8
F8
18
18
18
ENDCHAR
STARTCHAR 02E9
ENCODING 745
SWIDTH 411 0
DWIDTH 8 0
BBX 5 13 2 0
BITMAP
18
18
18
18
18
18
18
18
18
18
18
18
F8
ENDCHAR
STARTCHAR 02EA
ENCODING 746
SWIDTH 411 0
DWIDTH 8 0
BBX 5 7 2 3
BITMAP
80
80
80
80
80
F8
F8
ENDCHAR
STARTCHAR 02EB
ENCODING 747
SWIDTH 411 0
DWIDTH 8 0
BBX 5 7 2 3
BITMAP
80
80
80
F8
80
80
80
ENDCHAR
STARTCHAR 02EC
ENCODING 748
SWIDTH 411 0
DWIDTH 8 0
BBX 6 3 1 -4
BITMAP
CC
78
30
ENDCHAR
STARTCHAR 02ED
ENCODING 749
SWIDTH 462 0
DWIDTH 9 0
BBX 8 3 1 12
BITMAP
FF
00
FF
ENDCHAR
STARTCHAR 02EE
ENCODING 750
SWIDTH 308 0
DWIDTH 6 0
BBX 7 5 0 9
BITMAP
66
64
4C
4C
C8
ENDCHAR
STARTCHAR 02EF
ENCODING 751
SWIDTH 411 0
DWIDTH 8 0
BBX 6 5 1 -5
BITMAP
84
4C
78
30
30
ENDCHAR
STARTCHAR 02F0
ENCODING 752
SWIDTH 411 0
DWIDTH 8 0
BBX 6 5 1 -5
BITMAP
30
30
78
4C
84
ENDCHAR
STARTCHAR 02F1
ENCODING 753
SWIDTH 308 0
DWIDTH 6 0
BBX 5 5 1 -5
BITMAP
38
E0
E0
38
08
ENDCHAR
STARTCHAR 02F2
ENCODING 754
SWIDTH 308 0
DWIDTH 6 0
BBX 5 4 1 -5
BITMAP
C0
70
38
E0
ENDCHAR
STARTCHAR 02F3
ENCODING 755
SWIDTH 308 0
DWIDTH 6 0
BBX 4 4 1 -5
BITMAP
60
90
90
F0
ENDCHAR
STARTCHAR 02F4
ENCODING 756
SWIDTH 257 0
DWIDTH 5 0
BBX 4 4 1 5
BITMAP
C0
C0
60
30
ENDCHAR
STARTCHAR 02F5
ENCODING 757
SWIDTH 411 0
DWIDTH 8 0
BBX 7 4 1 5
BITMAP
D8
CC
64
22
ENDCHAR
STARTCHAR 02F6
ENCODING 758
SWIDTH 411 0
DWIDTH 8 0
BBX 7 4 1 5
BITMAP
66
6C
C8
90
ENDCHAR
STARTCHAR 02F7
ENCODING 759
SWIDTH 411 0
DWIDTH 8 0
BBX 7 3 1 -4
BITMAP
62
FE
8C
ENDCHAR
STARTCHAR 02F8
ENCODING 760
SWIDTH 257 0
DWIDTH 5 0
BBX 3 11 1 4
BITMAP
40
E0
60
00
00
00
00
00
00
E0
60
ENDCHAR
STARTCHAR 02F9
ENCODING 761
SWIDTH 257 0
DWIDTH 5 0
BBX 4 4 1 9
BITMAP
F0
80
80
80
ENDCHAR
STARTCHAR 02FA
ENCODING 762
SWIDTH 257 0
DWIDTH 5 0
BBX 4 4 1 9
BITMAP
F0
10
10
10
ENDCHAR
STARTCHAR 02FB
ENCODING 763
SWIDTH 257 0
DWIDTH 5 0
BBX 4 4 1 0
BITMAP
80
80
80
F0
ENDCHAR
STARTCHAR 02FC
ENCODING 764
SWIDTH 257 0
DWIDTH 5 0
BBX 4 4 1 0
BITMAP
10
10
10
F0
ENDCHAR
STARTCHAR 02FD
ENCODING 765
SWIDTH 514 0
DWIDTH 10 0
BBX 8 3 1 -4
BITMAP
81
81
FF
ENDCHAR
STARTCHAR 02FE
ENCODING 766
SWIDTH 514 0
DWIDTH 10 0
BBX 8 3 1 -4
BITMAP
80
80
FF
ENDCHAR
STARTCHAR 02FF
ENCODING 767
SWIDTH 514 0
DWIDTH 10 0
BBX 9 6 1 -5
BITMAP
1800
6000
FF80
6000
3800
0800
ENDCHAR
STARTCHAR 0300
ENCODING 768
SWIDTH 0 0
DWIDTH 0 0
BBX 3 3 -9 12
BITMAP
C0
C0
60
ENDCHAR
STARTCHAR 0301
ENCODING 769
SWIDTH 0 0
DWIDTH 0 0
BBX 3 3 -6 12
BITMAP
60
60
C0
ENDCHAR
STARTCHAR 0302
ENCODING 770
SWIDTH 0 0
DWIDTH 0 0
BBX 6 3 -3 12
BITMAP
30
78
CC
ENDCHAR
STARTCHAR 0303
ENCODING 771
SWIDTH 0 0
DWIDTH 0 0
BBX 6 2 -9 12
BITMAP
F4
9C
ENDCHAR
STARTCHAR 0304
ENCODING 772
SWIDTH 0 0
DWIDTH 0 0
BBX 6 1 -3 12
BITMAP
FC
ENDCHAR
STARTCHAR 0305
ENCODING 773
SWIDTH 0 0
DWIDTH 0 0
BBX 8 1 -4 15
BITMAP
FF
ENDCHAR
STARTCHAR 0306
ENCODING 774
SWIDTH 0 0
DWIDTH 0 0
BBX 6 2 -3 12
BITMAP
8C
78
ENDCHAR
STARTCHAR 0307
ENCODING 775
SWIDTH 0 0
DWIDTH 0 0
BBX 2 2 -1 12
BITMAP
C0
C0
ENDCHAR
STARTCHAR 0308
ENCODING 776
SWIDTH 0 0
DWIDTH 0 0
BBX 6 2 -3 12
BITMAP
CC
48
ENDCHAR
STARTCHAR 0309
ENCODING 777
SWIDTH 0 0
DWIDTH 0 0
BBX 3 5 -7 11
BITMAP
E0
20
20
C0
40
ENDCHAR
STARTCHAR 030A
ENCODING 778
SWIDTH 0 0
DWIDTH 0 0
BBX 4 4 -2 12
BITMAP
60
90
90
F0
ENDCHAR
STARTCHAR 030B
ENCODING 779
SWIDTH 0 0
DWIDTH 0 0
BBX 6 3 -2 12
BITMAP
6C
CC
98
ENDCHAR
STARTCHAR 030C
ENCODING 780
SWIDTH 0 0
DWIDTH 0 0
BBX 6 3 -3 12
BITMAP
84
78
30
ENDCHAR
STARTCHAR 030D
ENCODING 781
SWIDTH 0 0
DWIDTH 0 0
BBX 2 3 -1 12
BITMAP
C0
C0
C0
ENDCHAR
STARTCHAR 030E
ENCODING 782
SWIDTH 0 0
DWIDTH 0 0
BBX 4 3 -2 12
BITMAP
90
90
90
ENDCHAR
STARTCHAR 030F
ENCODING 783
SWIDTH 0 0
DWIDTH 0 0
BBX 7 3 -10 12
BITMAP
D8
6C
26
ENDCHAR
STARTCHAR 0310
ENCODING 784
SWIDTH 0 0
DWIDTH 0 0
BBX 6 4 -3 12
BITMAP
30
30
8C
78
ENDCHAR
STARTCHAR 0311
ENCODING 785
SWIDTH 0 0
DWIDTH 0 0
BBX 6 2 -3 12
BITMAP
78
84
ENDCHAR
STARTCHAR 0312
ENCODING 786
SWIDTH 0 0
DWIDTH 0 0
BBX 2 5 -1 9
BITMAP
40
40
C0
C0
80
ENDCHAR
STARTCHAR 0313
ENCODING 787
SWIDTH 0 0
DWIDTH 0 0
BBX 2 5 -1 9
BITMAP
C0
C0
C0
80
80
ENDCHAR
STARTCHAR 0314
ENCODING 788
SWIDTH 0 0
DWIDTH 0 0
BBX 2 5 -1 9
BITMAP
C0
C0
C0
40
40
ENDCHAR
STARTCHAR 0315
ENCODING 789
SWIDTH 0 0
DWIDTH 0 0
BBX 2 5 -1 9
BITMAP
C0
C0
C0
80
80
ENDCHAR
STARTCHAR 0316
ENCODING 790
SWIDTH 0 0
DWIDTH 0 0
BBX 4 3 -2 -4
BITMAP
C0
60
30
ENDCHAR
STARTCHAR 0317
ENCODING 791
SWIDTH 0 0
DWIDTH 0 0
BBX 4 3 -2 -4
BITMAP
30
60
C0
ENDCHAR
STARTCHAR 0318
ENCODING 792
SWIDTH 0 0
DWIDTH 0 0
BBX 4 3 -2 -4
BITMAP
30
F0
30
ENDCHAR
STARTCHAR 0319
ENCODING 793
SWIDTH 0 0
DWIDTH 0 0
BBX 4 3 -2 -4
BITMAP
C0
F0
C0
ENDCHAR
STARTCHAR 031A
ENCODING 794
SWIDTH 0 0
DWIDTH 0 0
BBX 5 4 -2 14
BITMAP
F8
08
08
08
ENDCHAR
STARTCHAR 031B
ENCODING 795
SWIDTH 0 0
DWIDTH 0 0
BBX 4 4 -2 11
BITMAP
30
30
60
C0
ENDCHAR
STARTCHAR 031C
ENCODING 796
SWIDTH 0 0
DWIDTH 0 0
BBX 2 4 -1 -4
BITMAP
40
80
80
C0
ENDCHAR
STARTCHAR 031D
ENCODING 797
SWIDTH 0 0
DWIDTH 0 0
BBX 4 3 -2 -4
BITMAP
60
60
F0
ENDCHAR
STARTCHAR 031E
ENCODING 798
SWIDTH 0 0
DWIDTH 0 0
BBX 4 3 -2 -4
BITMAP
F0
60
60
ENDCHAR
STARTCHAR 031F
ENCODING 799
SWIDTH 0 0
DWIDTH 0 0
BBX 4 3 -2 -4
BITMAP
60
F0
60
ENDCHAR
STARTCHAR 0320
ENCODING 800
SWIDTH 0 0
DWIDTH 0 0
BBX 4 1 -2 -3
BITMAP
F0
ENDCHAR
STARTCHAR 0321
ENCODING 801
SWIDTH 0 0
DWIDTH 0 0
BBX 3 6 -3 -5
BITMAP
60
60
60
60
E0
C0
ENDCHAR
STARTCHAR 0322
ENCODING 802
SWIDTH 0 0
DWIDTH 0 0
BBX 3 6 0 -5
BITMAP
C0
C0
C0
C0
E0
60
ENDCHAR
STARTCHAR 0323
ENCODING 803
SWIDTH 0 0
DWIDTH 0 0
BBX 2 2 -7 -3
BITMAP
C0
C0
ENDCHAR
STARTCHAR 0324
ENCODING 804
SWIDTH 0 0
DWIDTH 0 0
BBX 6 1 -3 -2
BITMAP
CC
ENDCHAR
STARTCHAR 0325
ENCODING 805
SWIDTH 0 0
DWIDTH 0 0
BBX 4 4 -2 -4
BITMAP
60
90
90
F0
ENDCHAR
STARTCHAR 0326
ENCODING 806
SWIDTH 0 0
DWIDTH 0 0
BBX 2 3 -1 -4
BITMAP
40
C0
80
ENDCHAR
STARTCHAR 0327
ENCODING 807
SWIDTH 0 0
DWIDTH 0 0
BBX 4 5 -2 -5
BITMAP
60
60
10
30
C0
ENDCHAR
STARTCHAR 0328
ENCODING 808
SWIDTH 0 0
DWIDTH 0 0
BBX 4 4 -2 -4
BITMAP
60
40
C0
70
ENDCHAR
STARTCHAR 0329
ENCODING 809
SWIDTH 0 0
DWIDTH 0 0
BBX 2 3 -1 -4
BITMAP
C0
C0
C0
ENDCHAR
STARTCHAR 032A
ENCODING 810
SWIDTH 0 0
DWIDTH 0 0
BBX 6 3 -3 -4
BITMAP
FC
84
84
ENDCHAR
STARTCHAR 032B
ENCODING 811
SWIDTH 0 0
DWIDTH 0 0
BBX 8 2 -4 -3
BITMAP
81
7E
ENDCHAR
STARTCHAR 032C
ENCODING 812
SWIDTH 0 0
DWIDTH 0 0
BBX 6 3 -3 -4
BITMAP
CC
78
30
ENDCHAR
STARTCHAR 032D
ENCODING 813
SWIDTH 0 0
DWIDTH 0 0
BBX 6 3 -3 -4
BITMAP
30
78
84
ENDCHAR
STARTCHAR 032E
ENCODING 814
SWIDTH 0 0
DWIDTH 0 0
BBX 6 3 -3 -4
BITMAP
84
F8
30
ENDCHAR
STARTCHAR 032F
ENCODING 815
SWIDTH 0 0
DWIDTH 0 0
BBX 6 3 -3 -4
BITMAP
78
CC
84
ENDCHAR
STARTCHAR 0330
ENCODING 816
SWIDTH 0 0
DWIDTH 0 0
BBX 7 3 -4 -4
BITMAP
72
5E
84
ENDCHAR
STARTCHAR 0331
ENCODING 817
SWIDTH 0 0
DWIDTH 0 0
BBX 6 2 -3 -3
BITMAP
FC
FC
ENDCHAR
STARTCHAR 0332
ENCODING 818
SWIDTH 0 0
DWIDTH 0 0
BBX 8 1 -4 -3
BITMAP
FF
ENDCHAR
STARTCHAR 0333
ENCODING 819
SWIDTH 0 0
DWIDTH 0 0
BBX 8 4 -4 -4
BITMAP
FF
FF
00
FF
ENDCHAR
STARTCHAR 0334
ENCODING 820
SWIDTH 0 0
DWIDTH 0 0
BBX 7 3 -3 4
BITMAP
02
F4
9C
ENDCHAR
STARTCHAR 0335
ENCODING 821
SWIDTH 0 0
DWIDTH 0 0
BBX 8 1 -4 5
BITMAP
FF
ENDCHAR
STARTCHAR 0336
ENCODING 822
SWIDTH 0 0
DWIDTH 0 0
BBX 14 1 -7 5
BITMAP
FFFC
ENDCHAR
STARTCHAR 0337
ENCODING 823
SWIDTH 0 0
DWIDTH 0 0
BBX 6 3 -3 5
BITMAP
1C
70
C0
ENDCHAR
STARTCHAR 0338
ENCODING 824
SWIDTH 0 0
DWIDTH 0 0
BBX 8 16 -4 -1
BITMAP
03
02
06
06
04
0C
08
08
18
10
30
20
20
60
40
C0
ENDCHAR
STARTCHAR 0339
ENCODING 825
SWIDTH 0 0
DWIDTH 0 0
BBX 2 4 -1 -4
BITMAP
80
40
40
C0
ENDCHAR
STARTCHAR 033A
ENCODING 826
SWIDTH 0 0
DWIDTH 0 0
BBX 6 3 -3 -4
BITMAP
84
84
FC
ENDCHAR
STARTCHAR 033B
ENCODING 827
SWIDTH 0 0
DWIDTH 0 0
BBX 8 3 -4 -4
BITMAP
FF
81
FF
ENDCHAR
STARTCHAR 033C
ENCODING 828
SWIDTH 0 0
DWIDTH 0 0
BBX 8 2 -4 -3
BITMAP
7E
DB
ENDCHAR
STARTCHAR 033D
ENCODING 829
SWIDTH 0 0
DWIDTH 0 0
BBX 4 4 -2 11
BITMAP
90
60
60
90
ENDCHAR
STARTCHAR 033E
ENCODING 830
SWIDTH 0 0
DWIDTH 0 0
BBX 2 6 -1 11
BITMAP
40
80
80
40
40
80
ENDCHAR
STARTCHAR 033F
ENCODING 831
SWIDTH 0 0
DWIDTH 0 0
BBX 8 4 -4 15
BITMAP
FF
FF
00
FF
ENDCHAR
STARTCHAR 0340
ENCODING 832
SWIDTH 0 0
DWIDTH 0 0
BBX 3 3 -3 12
BITMAP
C0
60
20
ENDCHAR
STARTCHAR 0341
ENCODING 833
SWIDTH 0 0
DWIDTH 0 0
BBX 3 3 0 12
BITMAP
60
C0
80
ENDCHAR
STARTCHAR 0342
ENCODING 834
SWIDTH 0 0
DWIDTH 0 0
BBX 6 2 -3 12
BITMAP
F4
9C
ENDCHAR
STARTCHAR 0343
ENCODING 835
SWIDTH 0 0
DWIDTH 0 0
BBX 2 3 -1 12
BITMAP
C0
40
40
ENDCHAR
STARTCHAR 0344
ENCODING 836
SWIDTH 0 0
DWIDTH 0 0
BBX 7 3 -3 12
BITMAP
18
D6
F6
ENDCHAR
STARTCHAR 0345
ENCODING 837
SWIDTH 0 0
DWIDTH 0 0
BBX 3 3 -1 -5
BITMAP
C0
E0
60
ENDCHAR
STARTCHAR 0346
ENCODING 838
SWIDTH 0 0
DWIDTH 0 0
BBX 8 4 -4 11
BITMAP
FF
81
81
81
ENDCHAR
STARTCHAR 0347
ENCODING 839
SWIDTH 0 0
DWIDTH 0 0
BBX 8 4 -4 -4
BITMAP
FF
FF
00
FF
ENDCHAR
STARTCHAR 0348
ENCODING 840
SWIDTH 0 0
DWIDTH 0 0
BBX 4 3 -2 -4
BITMAP
90
90
90
ENDCHAR
STARTCHAR 0349
ENCODING 841
SWIDTH 0 0
DWIDTH 0 0
BBX 4 4 -2 -5
BITMAP
F0
10
10
10
ENDCHAR
STARTCHAR 034A
ENCODING 842
SWIDTH 0 0
DWIDTH 0 0
BBX 6 4 -3 11
BITMAP
10
F4
BC
20
ENDCHAR
STARTCHAR 034B
ENCODING 843
SWIDTH 0 0
DWIDTH 0 0
BBX 8 7 -4 11
BITMAP
18
18
73
7E
84
18
18
ENDCHAR
STARTCHAR 034C
ENCODING 844
SWIDTH 0 0
DWIDTH 0 0
BBX 6 5 -3 12
BITMAP
64
FC
80
E4
BC
ENDCHAR
STARTCHAR 034D
ENCODING 845
SWIDTH 0 0
DWIDTH 0 0
BBX 6 3 -3 -4
BITMAP
48
FC
48
ENDCHAR
STARTCHAR 034E
ENCODING 846
SWIDTH 0 0
DWIDTH 0 0
BBX 2 4 -1 -4
BITMAP
C0
C0
C0
C0
ENDCHAR
STARTCHAR 034F
ENCODING 847
SWIDTH 0 0
DWIDTH 0 0
BBX 14 14 -7 0
BITMAP
E79C
8004
8004
0480
0000
1020
8004
A014
9024
0000
0480
8304
8004
E79C
ENDCHAR
STARTCHAR 0350
ENCODING 848
SWIDTH 0 0
DWIDTH 0 0
BBX 4 4 -2 11
BITMAP
C0
30
E0
80
ENDCHAR
STARTCHAR 0351
ENCODING 849
SWIDTH 0 0
DWIDTH 0 0
BBX 2 4 -1 12
BITMAP
40
C0
80
C0
ENDCHAR
STARTCHAR 0352
ENCODING 850
SWIDTH 0 0
DWIDTH 0 0
BBX 6 4 -3 12
BITMAP
78
84
30
30
ENDCHAR
STARTCHAR 0353
ENCODING 851
SWIDTH 0 0
DWIDTH 0 0
BBX 4 3 -2 -4
BITMAP
F0
60
F0
ENDCHAR
STARTCHAR 0354
ENCODING 852
SWIDTH 0 0
DWIDTH 0 0
BBX 4 4 -2 -5
BITMAP
30
C0
60
10
ENDCHAR
STARTCHAR 0355
ENCODING 853
SWIDTH 0 0
DWIDTH 0 0
BBX 4 4 -2 -5
BITMAP
C0
30
60
80
ENDCHAR
STARTCHAR 0356
ENCODING 854
SWIDTH 0 0
DWIDTH 0 0
BBX 8 4 -4 -5
BITMAP
C6
36
6A
89
ENDCHAR
STARTCHAR 0357
ENCODING 855
SWIDTH 0 0
DWIDTH 0 0
BBX 2 4 -1 12
BITMAP
80
40
40
C0
ENDCHAR
STARTCHAR 0358
ENCODING 856
SWIDTH 0 0
DWIDTH 0 0
BBX 2 2 3 12
BITMAP
C0
80
ENDCHAR
STARTCHAR 0359
ENCODING 857
SWIDTH 0 0
DWIDTH 0 0
BBX 4 3 -2 -5
BITMAP
60
F0
60
ENDCHAR
STARTCHAR 035A
ENCODING 858
SWIDTH 0 0
DWIDTH 0 0
BBX 8 4 -4 -5
BITMAP
7E
99
DB
66
ENDCHAR
STARTCHAR 035B
ENCODING 859
SWIDTH 0 0
DWIDTH 0 0
BBX 4 3 -2 12
BITMAP
40
F0
20
ENDCHAR
STARTCHAR 035C
ENCODING 860
SWIDTH 0 0
DWIDTH 0 0
BBX 14 3 -7 -4
BITMAP
8004
6018
3FF0
ENDCHAR
STARTCHAR 035D
ENCODING 861
SWIDTH 0 0
DWIDTH 0 0
BBX 14 4 -7 11
BITMAP
8004
6018
3FF0
0780
ENDCHAR
STARTCHAR 035E
ENCODING 862
SWIDTH 0 0
DWIDTH 0 0
BBX 12 1 -6 12
BITMAP
FFF0
ENDCHAR
STARTCHAR 035F
ENCODING 863
SWIDTH 0 0
DWIDTH 0 0
BBX 12 1 -6 -2
BITMAP
FFF0
ENDCHAR
STARTCHAR 0360
ENCODING 864
SWIDTH 0 0
DWIDTH 0 0
BBX 14 2 -7 12
BITMAP
FF04
81F8
ENDCHAR
STARTCHAR 0361
ENCODING 865
SWIDTH 0 0
DWIDTH 0 0
BBX 14 3 -7 13
BITMAP
3FF0
6018
8004
ENDCHAR
STARTCHAR 0362
ENCODING 866
SWIDTH 0 0
DWIDTH 0 0
BBX 15 3 -7 -4
BITMAP
000C
FFFE
0008
ENDCHAR
STARTCHAR 0363
ENCODING 867
SWIDTH 0 0
DWIDTH 0 0
BBX 4 4 -2 12
BITMAP
70
30
D0
F0
ENDCHAR
STARTCHAR 0364
ENCODING 868
SWIDTH 0 0
DWIDTH 0 0
BBX 4 4 -2 12
BITMAP
F0
F0
80
70
ENDCHAR
STARTCHAR 0365
ENCODING 869
SWIDTH 0 0
DWIDTH 0 0
BBX 1 6 0 12
BITMAP
80
00
80
80
80
80
ENDCHAR
STARTCHAR 0366
ENCODING 870
SWIDTH 0 0
DWIDTH 0 0
BBX 4 4 -2 12
BITMAP
F0
90
90
70
ENDCHAR
STARTCHAR 0367
ENCODING 871
SWIDTH 0 0
DWIDTH 0 0
BBX 4 4 -2 12
BITMAP
90
90
90
F0
ENDCHAR
STARTCHAR 0368
ENCODING 872
SWIDTH 0 0
DWIDTH 0 0
BBX 3 4 -1 12
BITMAP
E0
80
80
E0
ENDCHAR
STARTCHAR 0369
ENCODING 873
SWIDTH 0 0
DWIDTH 0 0
BBX 4 6 -2 12
BITMAP
10
10
F0
90
90
70
ENDCHAR
STARTCHAR 036A
ENCODING 874
SWIDTH 0 0
DWIDTH 0 0
BBX 4 6 -2 12
BITMAP
80
80
F0
90
90
90
ENDCHAR
STARTCHAR 036B
ENCODING 875
SWIDTH 0 0
DWIDTH 0 0
BBX 7 4 -3 12
BITMAP
FC
92
92
92
ENDCHAR
STARTCHAR 036C
ENCODING 876
SWIDTH 0 0
DWIDTH 0 0
BBX 2 4 -1 12
BITMAP
C0
80
80
80
ENDCHAR
STARTCHAR 036D
ENCODING 877
SWIDTH 0 0
DWIDTH 0 0
BBX 3 5 -1 12
BITMAP
80
C0
80
80
60
ENDCHAR
STARTCHAR 036E
ENCODING 878
SWIDTH 0 0
DWIDTH 0 0
BBX 4 4 -2 12
BITMAP
90
50
60
20
ENDCHAR
STARTCHAR 036F
ENCODING 879
SWIDTH 0 0
DWIDTH 0 0
BBX 4 4 -2 12
BITMAP
50
60
60
90
ENDCHAR
STARTCHAR 0370
ENCODING 880
SWIDTH 411 0
DWIDTH 8 0
BBX 6 14 2 0
BITMAP
C0
C0
C0
C0
C0
C0
FC
FC
C0
C0
C0
C0
C0
C0
ENDCHAR
STARTCHAR 0371
ENCODING 881
SWIDTH 360 0
DWIDTH 7 0
BBX 5 10 2 0
BITMAP
80
80
80
80
F8
80
80
80
80
80
ENDCHAR
STARTCHAR 0372
ENCODING 882
SWIDTH 617 0
DWIDTH 12 0
BBX 11 14 1 0
BITMAP
FFE0
FFE0
CC60
CC60
CC60
CC60
0C00
0C00
0C00
0C00
0C00
0C00
0C00
0C00
ENDCHAR
STARTCHAR 0373
ENCODING 883
SWIDTH 617 0
DWIDTH 12 0
BBX 9 15 2 0
BITMAP
FF80
FF80
9880
9880
9880
1800
1800
1800
1800
1800
1800
1800
1800
1800
1800
ENDCHAR
STARTCHAR 0374
ENCODING 884
SWIDTH 154 0
DWIDTH 3 0
BBX 3 4 1 11
BITMAP
60
C0
C0
80
ENDCHAR
STARTCHAR 0375
ENCODING 885
SWIDTH 154 0
DWIDTH 3 0
BBX 2 4 0 -3
BITMAP
40
40
C0
C0
ENDCHAR
STARTCHAR 0376
ENCODING 886
SWIDTH 720 0
DWIDTH 14 0
BBX 11 14 2 0
BITMAP
C060
C0E0
C0A0
C1A0
C360
C260
C660
CC60
C860
D860
B060
B060
E060
C060
ENDCHAR
STARTCHAR 0377
ENCODING 887
SWIDTH 617 0
DWIDTH 12 0
BBX 9 10 2 0
BITMAP
8380
8380
8780
8D80
8980
9980
B180
A180
E180
C180
ENDCHAR
STARTCHAR 037A
ENCODING 890
SWIDTH 205 0
DWIDTH 4 0
BBX 2 3 2 -5
BITMAP
80
C0
C0
ENDCHAR
STARTCHAR 037B
ENCODING 891
SWIDTH 462 0
DWIDTH 9 0
BBX 7 11 1 0
BITMAP
70
FC
0E
06
06
06
06
06
06
8C
F8
ENDCHAR
STARTCHAR 037C
ENCODING 892
SWIDTH 462 0
DWIDTH 9 0
BBX 8 11 1 0
BITMAP
0C
3E
60
C0
C0
CC
C8
C0
40
73
3F
ENDCHAR
STARTCHAR 037D
ENCODING 893
SWIDTH 462 0
DWIDTH 9 0
BBX 7 11 1 0
BITMAP
70
FC
0E
06
26
66
26
06
06
8C
F8
ENDCHAR
STARTCHAR 037E
ENCODING 894
SWIDTH 257 0
DWIDTH 5 0
BBX 3 14 1 -3
BITMAP
40
E0
60
00
00
00
00
00
00
C0
C0
C0
80
80
ENDCHAR
STARTCHAR 037F
ENCODING 895
SWIDTH 257 0
DWIDTH 5 0
BBX 6 18 -2 -4
BITMAP
0C
0C
0C
0C
0C
0C
0C
0C
0C
0C
0C
0C
0C
0C
08
18
F8
60
ENDCHAR
STARTCHAR 0384
ENCODING 900
SWIDTH 205 0
DWIDTH 4 0
BBX 3 3 1 12
BITMAP
60
C0
80
ENDCHAR
STARTCHAR 0385
ENCODING 901
SWIDTH 617 0
DWIDTH 12 0
BBX 7 3 3 12
BITMAP
18
F6
B4
ENDCHAR
STARTCHAR 0386
ENCODING 902
SWIDTH 668 0
DWIDTH 13 0
BBX 14 14 0 0
BITMAP
6180
4380
C280
06C0
06C0
0440
0C60
0C60
1FF0
1FF0
1010
3018
3018
200C
ENDCHAR
STARTCHAR 0387
ENCODING 903
SWIDTH 257 0
DWIDTH 5 0
BBX 3 3 1 8
BITMAP
40
E0
60
ENDCHAR
STARTCHAR 0388
ENCODING 904
SWIDTH 720 0
DWIDTH 14 0
BBX 13 14 0 0
BITMAP
67F8
47F8
C600
0600
0600
0600
07F0
07F0
0600
0600
0600
0600
07F8
07F8
ENDCHAR
STARTCHAR 0389
ENCODING 905
SWIDTH 874 0
DWIDTH 17 0
BBX 16 14 0 0
BITMAP
6603
4603
C603
0603
0603
0603
07FF
07FF
0603
0603
0603
0603
0603
0603
ENDCHAR
STARTCHAR 038A
ENCODING 906
SWIDTH 514 0
DWIDTH 10 0
BBX 9 14 0 0
BITMAP
6F80
4300
C300
0300
0300
0300
0300
0300
0300
0300
0300
0300
0300
0F80
ENDCHAR
STARTCHAR 038C
ENCODING 908
SWIDTH 874 0
DWIDTH 17 0
BBX 16 14 0 0
BITMAP
61F8
479C
C606
0C03
0C03
0803
1803
1803
1803
0C03
0C03
0E06
071C
01F8
ENDCHAR
STARTCHAR 038E
ENCODING 910
SWIDTH 771 0
DWIDTH 15 0
BBX 15 14 0 0
BITMAP
6C06
4604
C60C
0318
0118
01B0
00B0
00E0
0060
0060
0060
0060
0060
0060
ENDCHAR
STARTCHAR 038F
ENCODING 911
SWIDTH 822 0
DWIDTH 16 0
BBX 16 14 0 0
BITMAP
63F0
473C
CC0E
0C06
1803
1803
1803
1803
1803
0806
0C06
060C
1F1F
1F1F
ENDCHAR
STARTCHAR 0390
ENCODING 912
SWIDTH 308 0
DWIDTH 6 0
BBX 7 15 0 0
BITMAP
18
F6
B4
00
00
20
20
20
20
20
20
20
20
30
3C
ENDCHAR
STARTCHAR 0391
ENCODING 913
SWIDTH 617 0
DWIDTH 12 0
BBX 12 14 0 0
BITMAP
0600
0700
0F00
0D00
0980
1980
1880
10C0
3FC0
3FE0
6060
6020
4030
C030
ENDCHAR
STARTCHAR 0392
ENCODING 914
SWIDTH 617 0
DWIDTH 12 0
BBX 10 14 2 0
BITMAP
FE00
FF80
C180
C180
C180
C180
FE00
C700
C180
C0C0
C0C0
C180
C780
FE00
ENDCHAR
STARTCHAR 0393
ENCODING 915
SWIDTH 462 0
DWIDTH 9 0
BBX 7 14 2 0
BITMAP
FE
FE
C0
C0
C0
C0
C0
C0
C0
C0
C0
C0
C0
C0
ENDCHAR
STARTCHAR 0394
ENCODING 916
SWIDTH 617 0
DWIDTH 12 0
BBX 12 14 0 0
BITMAP
0600
0700
0F00
0D00
0980
1880
18C0
30C0
3040
2060
6060
6030
FFF0
FFF0
ENDCHAR
STARTCHAR 0395
ENCODING 917
SWIDTH 514 0
DWIDTH 10 0
BBX 8 14 2 0
BITMAP
FF
FF
C0
C0
C0
C0
FE
FE
C0
C0
C0
C0
FF
FF
ENDCHAR
STARTCHAR 0396
ENCODING 918
SWIDTH 565 0
DWIDTH 11 0
BBX 9 14 1 0
BITMAP
FF80
FF80
0300
0300
0600
0400
0C00
1800
1000
3000
6000
4000
FF80
FF80
ENDCHAR
STARTCHAR 0397
ENCODING 919
SWIDTH 720 0
DWIDTH 14 0
BBX 11 14 2 0
BITMAP
C060
C060
C060
C060
C060
C060
FFE0
FFE0
C060
C060
C060
C060
C060
C060
ENDCHAR
STARTCHAR 0398
ENCODING 920
SWIDTH 771 0
DWIDTH 15 0
BBX 13 14 1 0
BITMAP
0FC0
3CE0
7030
6030
C018
C018
CFD8
CFD8
C018
C018
6030
6030
38E0
1FC0
ENDCHAR
STARTCHAR 0399
ENCODING 921
SWIDTH 308 0
DWIDTH 6 0
BBX 5 14 1 0
BITMAP
F8
60
60
60
60
60
60
60
60
60
60
60
60
F8
ENDCHAR
STARTCHAR 039A
ENCODING 922
SWIDTH 617 0
DWIDTH 12 0
BBX 10 14 2 0
BITMAP
C180
C180
C300
C600
CC00
D800
F800
F800
CC00
C600
C600
C300
C180
C0C0
ENDCHAR
STARTCHAR 039B
ENCODING 923
SWIDTH 565 0
DWIDTH 11 0
BBX 12 14 0 0
BITMAP
0600
0600
0F00
0B00
1900
1980
1180
3080
30C0
20C0
6060
6060
4060
C030
ENDCHAR
STARTCHAR 039C
ENCODING 924
SWIDTH 874 0
DWIDTH 17 0
BBX 14 14 2 0
BITMAP
E01C
E01C
A03C
B02C
B02C
906C
D84C
C8CC
CCCC
CC8C
C58C
C70C
C70C
C30C
ENDCHAR
STARTCHAR 039D
ENCODING 925
SWIDTH 720 0
DWIDTH 14 0
BBX 11 14 2 0
BITMAP
C060
E060
E060
B060
9860
9860
CC60
C660
C660
C360
C1E0
C1E0
C0E0
C060
ENDCHAR
STARTCHAR 039E
ENCODING 926
SWIDTH 617 0
DWIDTH 12 0
BBX 10 14 1 0
BITMAP
7FC0
7FC0
0000
0000
0000
0000
7F80
7F80
0000
0000
0000
0000
FFC0
FFC0
ENDCHAR
STARTCHAR 039F
ENCODING 927
SWIDTH 771 0
DWIDTH 15 0
BBX 13 14 1 0
BITMAP
0FC0
3CE0
7030
6030
C018
C018
C018
C018
C018
C018
6030
6030
38E0
1FC0
ENDCHAR
STARTCHAR 03A0
ENCODING 928
SWIDTH 720 0
DWIDTH 14 0
BBX 10 14 2 0
BITMAP
FFC0
FFC0
C040
C040
C040
C040
C040
C040
C040
C040
C040
C040
C040
C040
ENDCHAR
STARTCHAR 03A1
ENCODING 929
SWIDTH 565 0
DWIDTH 11 0
BBX 9 14 2 0
BITMAP
FC00
FF00
C300
C180
C180
C180
C300
FE00
F800
C000
C000
C000
C000
C000
ENDCHAR
STARTCHAR 03A3
ENCODING 931
SWIDTH 565 0
DWIDTH 11 0
BBX 9 14 1 0
BITMAP
FF80
FF80
6000
3000
3800
1800
0C00
0C00
1800
3000
6000
4000
FF80
FF80
ENDCHAR
STARTCHAR 03A4
ENCODING 932
SWIDTH 514 0
DWIDTH 10 0
BBX 11 14 0 0
BITMAP
FFE0
FFE0
0400
0400
0400
0400
0400
0400
0400
0400
0400
0400
0400
0400
ENDCHAR
STARTCHAR 03A5
ENCODING 933
SWIDTH 565 0
DWIDTH 11 0
BBX 11 14 0 0
BITMAP
C060
60C0
60C0
3180
3180
1B00
1B00
0E00
0400
0400
0400
0400
0400
0400
ENDCHAR
STARTCHAR 03A6
ENCODING 934
SWIDTH 822 0
DWIDTH 16 0
BBX 14 14 1 0
BITMAP
0300
0780
3FF0
7318
C30C
C30C
C304
C304
C30C
630C
7338
1FF0
0300
0300
ENDCHAR
STARTCHAR 03A7
ENCODING 935
SWIDTH 565 0
DWIDTH 11 0
BBX 11 14 0 0
BITMAP
6060
60C0
3080
1180
1B00
0E00
0600
0E00
0B00
1900
3180
20C0
60C0
C060
ENDCHAR
STARTCHAR 03A8
ENCODING 936
SWIDTH 771 0
DWIDTH 15 0
BBX 12 14 2 0
BITMAP
C630
C630
C630
C630
C630
C630
C630
C630
6660
3FC0
0600
0600
0600
0600
ENDCHAR
STARTCHAR 03A9
ENCODING 937
SWIDTH 668 0
DWIDTH 13 0
BBX 13 14 0 0
BITMAP
0FC0
1CE0
3030
6018
6018
6018
4018
4018
6018
6018
3030
1020
FCF8
FCF8
ENDCHAR
STARTCHAR 03AA
ENCODING 938
SWIDTH 308 0
DWIDTH 6 0
BBX 5 18 1 0
BITMAP
88
98
00
00
F8
60
60
60
60
60
60
60
60
60
60
60
60
F8
ENDCHAR
STARTCHAR 03AB
ENCODING 939
SWIDTH 565 0
DWIDTH 11 0
BBX 11 18 0 0
BITMAP
1100
1B00
0000
0000
C060
60C0
60C0
3180
3180
1B00
1B00
0E00
0400
0400
0400
0400
0400
0400
ENDCHAR
STARTCHAR 03AC
ENCODING 940
SWIDTH 617 0
DWIDTH 12 0
BBX 11 15 1 0
BITMAP
0600
0400
0C00
0000
1800
7E80
6180
C180
C080
C080
C080
C180
C180
6380
3EE0
ENDCHAR
STARTCHAR 03AD
ENCODING 941
SWIDTH 462 0
DWIDTH 9 0
BBX 7 15 1 0
BITMAP
0C
0C
08
00
1C
7E
C0
C0
60
3C
E0
C0
C0
E2
7E
ENDCHAR
STARTCHAR 03AE
ENCODING 942
SWIDTH 565 0
DWIDTH 11 0
BBX 8 20 2 -5
BITMAP
18
18
10
00
0C
BF
C3
C3
81
81
81
81
81
81
81
01
01
01
01
01
ENDCHAR
STARTCHAR 03AF
ENCODING 943
SWIDTH 308 0
DWIDTH 6 0
BBX 4 15 2 0
BITMAP
60
40
C0
00
00
80
80
80
80
80
80
80
80
C0
F0
ENDCHAR
STARTCHAR 03B0
ENCODING 944
SWIDTH 565 0
DWIDTH 11 0
BBX 8 15 2 0
BITMAP
0C
7B
5A
00
00
83
83
83
81
81
83
83
83
C6
7C
ENDCHAR
STARTCHAR 03B1
ENCODING 945
SWIDTH 617 0
DWIDTH 12 0
BBX 11 11 1 0
BITMAP
1800
7E80
6180
C180
C080
C080
C080
C180
C180
6380
3EE0
ENDCHAR
STARTCHAR 03B2
ENCODING 946
SWIDTH 565 0
DWIDTH 11 0
BBX 9 20 2 -5
BITMAP
3C00
7F00
C300
8300
8300
8300
8600
9E00
8300
8180
8180
8180
8180
C300
FE00
8000
8000
8000
8000
8000
ENDCHAR
STARTCHAR 03B3
ENCODING 947
SWIDTH 514 0
DWIDTH 10 0
BBX 9 14 0 -4
BITMAP
C080
4080
6080
6180
2180
3100
3300
1200
1E00
0C00
0800
0800
0800
0800
ENDCHAR
STARTCHAR 03B4
ENCODING 948
SWIDTH 565 0
DWIDTH 11 0
BBX 9 15 1 0
BITMAP
1E00
3F80
2000
2000
3000
1C00
3E00
6300
C180
C080
C080
C080
C180
6300
3E00
ENDCHAR
STARTCHAR 03B5
ENCODING 949
SWIDTH 462 0
DWIDTH 9 0
BBX 7 11 1 0
BITMAP
1C
7E
C0
C0
60
3C
E0
C0
C0
E2
7E
ENDCHAR
STARTCHAR 03B6
ENCODING 950
SWIDTH 411 0
DWIDTH 8 0
BBX 8 19 1 -4
BITMAP
7F
7B
06
0C
08
18
30
60
60
C0
C0
C0
C0
70
3E
07
03
03
02
ENDCHAR
STARTCHAR 03B7
ENCODING 951
SWIDTH 565 0
DWIDTH 11 0
BBX 8 16 2 -5
BITMAP
0C
BF
C3
C3
81
81
81
81
81
81
81
01
01
01
01
01
ENDCHAR
STARTCHAR 03B8
ENCODING 952
SWIDTH 565 0
DWIDTH 11 0
BBX 9 15 1 0
BITMAP
1E00
3F00
6180
4180
C080
C080
C080
FF80
C080
C080
C080
4180
6180
7300
3E00
ENDCHAR
STARTCHAR 03B9
ENCODING 953
SWIDTH 308 0
DWIDTH 6 0
BBX 4 10 2 0
BITMAP
80
80
80
80
80
80
80
80
C0
F0
ENDCHAR
STARTCHAR 03BA
ENCODING 954
SWIDTH 514 0
DWIDTH 10 0
BBX 8 10 2 0
BITMAP
86
8C
98
98
B0
D8
8C
8C
86
83
ENDCHAR
STARTCHAR 03BB
ENCODING 955
SWIDTH 514 0
DWIDTH 10 0
BBX 10 15 0 0
BITMAP
E000
F000
1800
0800
0C00
0C00
1C00
1600
1200
3300
2300
6100
6180
4180
C0C0
ENDCHAR
STARTCHAR 03BC
ENCODING 956
SWIDTH 617 0
DWIDTH 12 0
BBX 10 15 2 -5
BITMAP
8100
8100
8100
8100
8100
8100
8100
C300
C780
BDC0
8000
8000
8000
8000
8000
ENDCHAR
STARTCHAR 03BD
ENCODING 957
SWIDTH 514 0
DWIDTH 10 0
BBX 9 10 0 0
BITMAP
C080
4080
6080
6180
2180
3100
3300
1200
1E00
0C00
ENDCHAR
STARTCHAR 03BE
ENCODING 958
SWIDTH 462 0
DWIDTH 9 0
BBX 8 19 1 -4
BITMAP
7F
5C
20
40
40
60
30
3F
60
C0
C0
C0
C0
70
3E
07
03
03
02
ENDCHAR
STARTCHAR 03BF
ENCODING 959
SWIDTH 565 0
DWIDTH 11 0
BBX 10 11 1 0
BITMAP
0C00
3F00
6180
C080
C0C0
C0C0
C0C0
C0C0
4180
6380
3F00
ENDCHAR
STARTCHAR 03C0
ENCODING 960
SWIDTH 617 0
DWIDTH 12 0
BBX 12 10 0 0
BITMAP
FFF0
3040
3040
3040
3040
3040
3040
3040
3040
3070
ENDCHAR
STARTCHAR 03C1
ENCODING 961
SWIDTH 565 0
DWIDTH 11 0
BBX 10 16 1 -5
BITMAP
0C00
3F00
6180
4180
C080
C0C0
C0C0
C080
C180
E380
FE00
C000
C000
C000
C000
C000
ENDCHAR
STARTCHAR 03C2
ENCODING 962
SWIDTH 462 0
DWIDTH 9 0
BBX 8 15 1 -4
BITMAP
0C
3E
60
C0
C0
C0
C0
C0
60
70
3E
07
03
03
02
ENDCHAR
STARTCHAR 03C3
ENCODING 963
SWIDTH 565 0
DWIDTH 11 0
BBX 10 10 1 0
BITMAP
3FC0
6100
C180
C080
C080
C080
C080
C180
6300
3E00
ENDCHAR
STARTCHAR 03C4
ENCODING 964
SWIDTH 462 0
DWIDTH 9 0
BBX 9 10 0 0
BITMAP
FF80
1800
1800
1800
1800
1800
1800
1800
1C00
0F00
ENDCHAR
STARTCHAR 03C5
ENCODING 965
SWIDTH 565 0
DWIDTH 11 0
BBX 8 10 2 0
BITMAP
83
83
83
81
81
83
83
83
C6
7C
ENDCHAR
STARTCHAR 03C6
ENCODING 966
SWIDTH 720 0
DWIDTH 14 0
BBX 12 20 1 -5
BITMAP
0600
0600
0600
0600
0700
3FC0
6660
C630
C630
C630
C630
C630
6620
76E0
1F80
0600
0600
0600
0600
0600
ENDCHAR
STARTCHAR 03C7
ENCODING 967
SWIDTH 565 0
DWIDTH 11 0
BBX 11 15 0 -5
BITMAP
6060
3040
10C0
1980
0980
0F00
0600
0600
0E00
0B00
1B00
3180
2180
60E0
C060
ENDCHAR
STARTCHAR 03C8
ENCODING 968
SWIDTH 720 0
DWIDTH 14 0
BBX 11 20 2 -5
BITMAP
0C00
0C00
0C00
0C00
0C00
8C60
8C60
8C60
8C20
8C20
8C60
8C60
CC60
EDC0
3F80
0C00
0C00
0C00
0C00
0C00
ENDCHAR
STARTCHAR 03C9
ENCODING 969
SWIDTH 771 0
DWIDTH 15 0
BBX 13 10 1 0
BITMAP
6030
6018
4018
C318
C308
C308
C318
4318
6730
3CF0
ENDCHAR
STARTCHAR 03CA
ENCODING 970
SWIDTH 308 0
DWIDTH 6 0
BBX 6 14 0 0
BITMAP
C8
88
00
00
20
20
20
20
20
20
20
20
30
3C
ENDCHAR
STARTCHAR 03CB
ENCODING 971
SWIDTH 565 0
DWIDTH 11 0
BBX 8 14 2 0
BITMAP
6C
44
00
00
83
83
83
81
81
83
83
83
C6
7C
ENDCHAR
STARTCHAR 03CC
ENCODING 972
SWIDTH 565 0
DWIDTH 11 0
BBX 10 15 1 0
BITMAP
0600
0600
0400
0000
0C00
3F00
6180
C080
C0C0
C0C0
C0C0
C0C0
4180
6380
3F00
ENDCHAR
STARTCHAR 03CD
ENCODING 973
SWIDTH 565 0
DWIDTH 11 0
BBX 8 15 2 0
BITMAP
0C
08
18
00
00
83
83
83
81
81
83
83
83
C6
7C
ENDCHAR
STARTCHAR 03CE
ENCODING 974
SWIDTH 771 0
DWIDTH 15 0
BBX 13 15 1 0
BITMAP
0180
0180
0100
0000
0000
6030
6018
4018
C318
C308
C308
C318
4318
6730
3CF0
ENDCHAR
STARTCHAR 03CF
ENCODING 975
SWIDTH 617 0
DWIDTH 12 0
BBX 10 19 2 -5
BITMAP
C180
C180
C300
C600
CC00
D800
F800
F800
CC00
C600
C600
C300
C180
C0C0
00C0
01C0
0180
FF00
3C00
ENDCHAR
STARTCHAR 03D0
ENCODING 976
SWIDTH 617 0
DWIDTH 12 0
BBX 9 15 2 0
BITMAP
1E00
3F00
6100
E300
FF00
C000
9E00
BF00
C180
8080
8080
C080
C180
6300
3E00
ENDCHAR
STARTCHAR 03D1
ENCODING 977
SWIDTH 617 0
DWIDTH 12 0
BBX 12 15 0 0
BITMAP
0E00
1F80
3080
30C0
1040
1E40
07F0
E060
3060
3060
2040
20C0
20C0
3180
1F00
ENDCHAR
STARTCHAR 03D2
ENCODING 978
SWIDTH 565 0
DWIDTH 11 0
BBX 11 14 0 0
BITMAP
C060
60E0
60C0
3180
3180
1B00
1B00
0E00
0400
0400
0400
0400
0400
0400
ENDCHAR
STARTCHAR 03D3
ENCODING 979
SWIDTH 771 0
DWIDTH 15 0
BBX 15 14 0 0
BITMAP
6C06
460E
C60C
0318
0318
01B0
00B0
00E0
0060
0040
0040
0040
0040
0040
ENDCHAR
STARTCHAR 03D4
ENCODING 980
SWIDTH 565 0
DWIDTH 11 0
BBX 11 18 0 0
BITMAP
1100
1B00
0000
0000
C060
60E0
60C0
3180
3180
1B00
1B00
0E00
0400
0400
0400
0400
0400
0400
ENDCHAR
STARTCHAR 03D5
ENCODING 981
SWIDTH 720 0
DWIDTH 14 0
BBX 12 20 1 -5
BITMAP
0600
0600
0600
0600
0700
3FC0
6660
C630
C630
C630
C630
C630
6620
76E0
1F80
0600
0600
0600
0600
0600
ENDCHAR
STARTCHAR 03D6
ENCODING 982
SWIDTH 822 0
DWIDTH 16 0
BBX 16 10 0 0
BITMAP
FFFF
3004
3006
3086
3086
3086
3086
3184
194C
1F78
ENDCHAR
STARTCHAR 03D7
ENCODING 983
SWIDTH 514 0
DWIDTH 10 0
BBX 8 14 2 -4
BITMAP
86
8C
98
98
B0
D8
8C
8C
86
83
03
03
CE
78
ENDCHAR
STARTCHAR 03D8
ENCODING 984
SWIDTH 720 0
DWIDTH 14 0
BBX 13 14 1 0
BITMAP
1FC0
39E0
6030
6030
C018
C018
C018
C010
6030
7060
3FC0
0200
0200
0200
ENDCHAR
STARTCHAR 03D9
ENCODING 985
SWIDTH 565 0
DWIDTH 11 0
BBX 10 16 1 -5
BITMAP
0C00
3F00
6180
C080
C0C0
C0C0
C0C0
C0C0
4180
6380
3E00
0C00
0C00
0C00
0C00
0C00
ENDCHAR
STARTCHAR 03DA
ENCODING 986
SWIDTH 617 0
DWIDTH 12 0
BBX 10 14 1 0
BITMAP
1FC0
3DC0
6000
4000
C000
C000
C000
C000
6000
3800
1E00
0200
0200
0200
ENDCHAR
STARTCHAR 03DB
ENCODING 987
SWIDTH 462 0
DWIDTH 9 0
BBX 8 15 1 -4
BITMAP
0C
3E
60
C0
C0
C0
C0
C0
60
70
1E
06
03
06
3C
ENDCHAR
STARTCHAR 03DC
ENCODING 988
SWIDTH 462 0
DWIDTH 9 0
BBX 7 14 2 0
BITMAP
FE
FE
C0
C0
C0
C0
C0
FE
C6
C6
C6
C0
C0
C0
ENDCHAR
STARTCHAR 03DD
ENCODING 989
SWIDTH 514 0
DWIDTH 10 0
BBX 8 15 2 -5
BITMAP
FF
C0
C0
C0
C0
FE
FE
C6
C6
C0
C0
C0
C0
C0
C0
ENDCHAR
STARTCHAR 03DE
ENCODING 990
SWIDTH 462 0
DWIDTH 9 0
BBX 9 14 0 0
BITMAP
E000
B000
3000
3000
2000
6000
7F80
7F00
0300
0300
0300
0200
0300
0380
ENDCHAR
STARTCHAR 03DF
ENCODING 991
SWIDTH 514 0
DWIDTH 10 0
BBX 9 20 1 -5
BITMAP
E000
7000
3000
3000
3000
2000
6000
6080
DF80
FD80
C300
0300
0200
0600
0600
0400
0C00
0C00
0700
0300
ENDCHAR
STARTCHAR 03E0
ENCODING 992
SWIDTH 565 0
DWIDTH 11 0
BBX 10 14 0 0
BITMAP
7E00
E700
0380
0F80
38C0
30C0
03C0
07C0
0CC0
00C0
00C0
00C0
00C0
0180
ENDCHAR
STARTCHAR 03E1
ENCODING 993
SWIDTH 514 0
DWIDTH 10 0
BBX 11 20 -2 -5
BITMAP
C000
F800
1C00
0600
0300
0180
0F80
18C0
0040
00E0
07E0
0C60
0060
0060
0060
0060
0040
00C0
00C0
0080
ENDCHAR
STARTCHAR 03F0
ENCODING 1008
SWIDTH 668 0
DWIDTH 13 0
BBX 12 11 1 0
BITMAP
C000
E0C0
30C0
31C0
33C0
3680
3C80
3880
3880
70C0
6070
ENDCHAR
STARTCHAR 03F1
ENCODING 1009
SWIDTH 565 0
DWIDTH 11 0
BBX 10 16 1 -5
BITMAP
0C00
3F00
6180
4180
C0C0
C0C0
C0C0
C080
C180
FF00
DE00
C000
6000
3F00
0300
0100
ENDCHAR
STARTCHAR 03F2
ENCODING 1010
SWIDTH 462 0
DWIDTH 9 0
BBX 8 11 1 0
BITMAP
0C
3E
60
C0
C0
C0
C0
C0
40
73
3F
ENDCHAR
STARTCHAR 03F3
ENCODING 1011
SWIDTH 257 0
DWIDTH 5 0
BBX 4 19 -1 -5
BITMAP
10
10
00
00
10
10
10
10
10
10
10
10
10
10
10
10
10
F0
E0
ENDCHAR
STARTCHAR 03F4
ENCODING 1012
SWIDTH 771 0
DWIDTH 15 0
BBX 13 14 1 0
BITMAP
0FC0
3CE0
7030
6030
C018
C018
FFF8
FFF8
C018
C018
6030
6030
38E0
1FC0
ENDCHAR
STARTCHAR 03F5
ENCODING 1013
SWIDTH 462 0
DWIDTH 9 0
BBX 8 11 1 0
BITMAP
0C
3F
60
C0
C0
FE
C0
C0
40
71
3F
ENDCHAR
STARTCHAR 03F6
ENCODING 1014
SWIDTH 462 0
DWIDTH 9 0
BBX 8 11 1 0
BITMAP
70
FC
06
06
02
7F
03
02
06
8C
F8
ENDCHAR
STARTCHAR 03F7
ENCODING 1015
SWIDTH 565 0
DWIDTH 11 0
BBX 9 14 2 0
BITMAP
C000
C000
C000
FE00
C300
C180
C180
C180
C300
DF00
FC00
C000
C000
C000
ENDCHAR
STARTCHAR 03F8
ENCODING 1016
SWIDTH 565 0
DWIDTH 11 0
BBX 9 20 2 -5
BITMAP
8000
8000
8000
8000
8C00
BE00
C300
C180
8180
8180
8180
C180
C100
E300
BE00
8000
8000
8000
8000
8000
ENDCHAR
STARTCHAR 03F9
ENCODING 1017
SWIDTH 617 0
DWIDTH 12 0
BBX 10 14 1 0
BITMAP
0FC0
3DC0
7000
6000
4000
C000
C000
C000
C000
C000
6000
7000
3840
1FC0
ENDCHAR
STARTCHAR 03FA
ENCODING 1018
SWIDTH 874 0
DWIDTH 17 0
BBX 14 14 2 0
BITMAP
C01C
E01C
B03C
B06C
984C
8CCC
CD8C
C78C
C30C
C00C
C00C
C00C
C00C
C00C
ENDCHAR
STARTCHAR 03FB
ENCODING 1019
SWIDTH 720 0
DWIDTH 14 0
BBX 10 15 2 -5
BITMAP
C0C0
E1C0
B140
B340
9E40
8C40
8040
8040
8040
8040
8000
8000
8000
8000
8000
ENDCHAR
STARTCHAR 03FC
ENCODING 1020
SWIDTH 565 0
DWIDTH 11 0
BBX 11 16 0 -5
BITMAP
0600
1F80
30C0
20C0
6040
6060
6060
6040
60C0
71C0
7F00
6000
6000
FE00
6000
6000
ENDCHAR
STARTCHAR 03FD
ENCODING 1021
SWIDTH 617 0
DWIDTH 12 0
BBX 10 14 1 0
BITMAP
FE00
EF00
0180
0180
00C0
00C0
00C0
00C0
00C0
00C0
0180
0180
C700
FE00
ENDCHAR
STARTCHAR 03FE
ENCODING 1022
SWIDTH 617 0
DWIDTH 12 0
BBX 10 14 1 0
BITMAP
0FC0
3DC0
7000
6000
4000
C000
C300
C700
C000
C000
6000
7000
3840
1FC0
ENDCHAR
STARTCHAR 03FF
ENCODING 1023
SWIDTH 617 0
DWIDTH 12 0
BBX 10 14 1 0
BITMAP
FE00
EF00
0180
0180
00C0
00C0
18C0
18C0
00C0
00C0
0180
0180
C700
FE00
ENDCHAR
STARTCHAR 0400
ENCODING 1024
SWIDTH 514 0
DWIDTH 10 0
BBX 8 18 2 0
BITMAP
30
18
08
00
FF
FF
C0
C0
C0
C0
FE
FE
C0
C0
C0
C0
FF
FF
ENDCHAR
STARTCHAR 0401
ENCODING 1025
SWIDTH 514 0
DWIDTH 10 0
BBX 8 18 2 0
BITMAP
24
66
00
00
FF
FF
C0
C0
C0
C0
FE
FE
C0
C0
C0
C0
FF
FF
ENDCHAR
STARTCHAR 0402
ENCODING 1026
SWIDTH 720 0
DWIDTH 14 0
BBX 13 14 0 0
BITMAP
FF80
FF80
1800
1800
1800
1F80
1FF0
1818
1818
1818
1818
1818
1838
18F0
ENDCHAR
STARTCHAR 0403
ENCODING 1027
SWIDTH 514 0
DWIDTH 10 0
BBX 8 18 2 0
BITMAP
0C
08
10
00
FF
FF
C0
C0
C0
C0
C0
C0
C0
C0
C0
C0
C0
C0
ENDCHAR
STARTCHAR 0404
ENCODING 1028
SWIDTH 617 0
DWIDTH 12 0
BBX 11 14 1 0
BITMAP
0FC0
3DE0
7000
6000
4000
C000
FF80
FF80
C000
C000
6000
7000
3840
1FC0
ENDCHAR
STARTCHAR 0405
ENCODING 1029
SWIDTH 514 0
DWIDTH 10 0
BBX 9 14 1 0
BITMAP
3F00
7700
C000
C000
C000
6000
3C00
0E00
0300
0180
0180
0180
C700
FE00
ENDCHAR
STARTCHAR 0406
ENCODING 1030
SWIDTH 308 0
DWIDTH 6 0
BBX 5 14 1 0
BITMAP
F8
60
60
60
60
60
60
60
60
60
60
60
60
F8
ENDCHAR
STARTCHAR 0407
ENCODING 1031
SWIDTH 308 0
DWIDTH 6 0
BBX 5 18 1 0
BITMAP
88
98
00
00
F8
60
60
60
60
60
60
60
60
60
60
60
60
F8
ENDCHAR
STARTCHAR 0408
ENCODING 1032
SWIDTH 257 0
DWIDTH 5 0
BBX 6 18 -2 -4
BITMAP
0C
0C
0C
0C
0C
0C
0C
0C
0C
0C
0C
0C
0C
0C
08
18
F8
60
ENDCHAR
STARTCHAR 0409
ENCODING 1033
SWIDTH 925 0
DWIDTH 18 0
BBX 17 14 0 0
BITMAP
0FE000
0FE000
0C6000
0C6000
086000
086000
187E00
187F80
186180
186080
106080
306180
307F80
E07E00
ENDCHAR
STARTCHAR 040A
ENCODING 1034
SWIDTH 925 0
DWIDTH 18 0
BBX 16 14 2 0
BITMAP
C080
C080
C080
C080
C080
C080
FFFC
FFFE
C083
C083
C083
C083
C0FE
C0FC
ENDCHAR
STARTCHAR 040B
ENCODING 1035
SWIDTH 720 0
DWIDTH 14 0
BBX 13 14 0 0
BITMAP
FFC0
FFC0
1800
1800
1800
1F80
1FF0
1818
1818
1818
1818
1818
1818
1818
ENDCHAR
STARTCHAR 040C
ENCODING 1036
SWIDTH 617 0
DWIDTH 12 0
BBX 10 18 2 0
BITMAP
0600
0C00
1800
0000
C180
C380
C300
C600
CC00
D800
F000
F000
D800
CC00
C600
C300
C180
C1C0
ENDCHAR
STARTCHAR 040D
ENCODING 1037
SWIDTH 720 0
DWIDTH 14 0
BBX 11 18 2 0
BITMAP
0C00
0400
0200
0000
C060
C0E0
C0A0
C1A0
C360
C260
C660
CC60
C860
D860
B060
B060
E060
C060
ENDCHAR
STARTCHAR 040E
ENCODING 1038
SWIDTH 617 0
DWIDTH 12 0
BBX 12 18 0 0
BITMAP
10C0
1980
0F00
0000
C030
6030
6060
3060
30C0
18C0
0880
0D80
0500
0700
0200
0600
5C00
7800
ENDCHAR
STARTCHAR 040F
ENCODING 1039
SWIDTH 720 0
DWIDTH 14 0
BBX 10 18 2 -4
BITMAP
C040
C040
C040
C040
C040
C040
C040
C040
C040
C040
C040
C040
FFC0
FFC0
0C00
0C00
0C00
0C00
ENDCHAR
STARTCHAR 0410
ENCODING 1040
SWIDTH 617 0
DWIDTH 12 0
BBX 12 14 0 0
BITMAP
0600
0700
0F00
0D00
0980
1980
1880
10C0
3FC0
3FE0
6060
6020
4030
C030
ENDCHAR
STARTCHAR 0411
ENCODING 1041
SWIDTH 565 0
DWIDTH 11 0
BBX 9 14 2 0
BITMAP
FF00
FF00
C000
C000
C000
C000
FE00
FF00
C180
C180
C180
C180
FF00
FE00
ENDCHAR
STARTCHAR 0412
ENCODING 1042
SWIDTH 617 0
DWIDTH 12 0
BBX 10 14 2 0
BITMAP
FE00
FF80
C180
C180
C180
C180
FE00
C700
C180
C0C0
C0C0
C180
C780
FE00
ENDCHAR
STARTCHAR 0413
ENCODING 1043
SWIDTH 514 0
DWIDTH 10 0
BBX 8 14 2 0
BITMAP
FF
FF
C0
C0
C0
C0
C0
C0
C0
C0
C0
C0
C0
C0
ENDCHAR
STARTCHAR 0414
ENCODING 1044
SWIDTH 668 0
DWIDTH 13 0
BBX 13 18 0 -4
BITMAP
07E0
07E0
0460
0C60
0C60
0C60
0860
1860
1860
1060
3060
3060
FFF8
FFF8
C018
C018
C018
C018
ENDCHAR
STARTCHAR 0415
ENCODING 1045
SWIDTH 514 0
DWIDTH 10 0
BBX 8 14 2 0
BITMAP
FF
FF
C0
C0
C0
C0
FE
FE
C0
C0
C0
C0
FF
FF
ENDCHAR
STARTCHAR 0416
ENCODING 1046
SWIDTH 822 0
DWIDTH 16 0
BBX 16 14 0 0
BITMAP
4183
6186
3184
198C
0D98
05B0
07E0
07B0
0DB0
0D98
198C
3186
6186
C183
ENDCHAR
STARTCHAR 0417
ENCODING 1047
SWIDTH 565 0
DWIDTH 11 0
BBX 9 14 1 0
BITMAP
7E00
E300
0180
0180
0180
0300
7E00
7F00
0180
0180
0080
0180
C380
FE00
ENDCHAR
STARTCHAR 0418
ENCODING 1048
SWIDTH 720 0
DWIDTH 14 0
BBX 11 14 2 0
BITMAP
C060
C0E0
C0A0
C1A0
C360
C260
C660
CC60
C860
D860
B060
B060
E060
C060
ENDCHAR
STARTCHAR 0419
ENCODING 1049
SWIDTH 720 0
DWIDTH 14 0
BBX 11 18 2 0
BITMAP
3080
1B80
0F00
0000
C060
C0E0
C0A0
C1A0
C360
C260
C660
CC60
C860
D860
B060
B060
E060
C060
ENDCHAR
STARTCHAR 041A
ENCODING 1050
SWIDTH 617 0
DWIDTH 12 0
BBX 10 14 2 0
BITMAP
C180
C380
C300
C600
CC00
D800
F000
F000
D800
CC00
C600
C300
C180
C1C0
ENDCHAR
STARTCHAR 041B
ENCODING 1051
SWIDTH 668 0
DWIDTH 13 0
BBX 12 14 0 0
BITMAP
0FF0
0FF0
0C30
0C30
0830
0830
1830
1830
1830
1830
1030
3030
3030
E030
ENDCHAR
STARTCHAR 041C
ENCODING 1052
SWIDTH 874 0
DWIDTH 17 0
BBX 14 14 2 0
BITMAP
E01C
E01C
A03C
B02C
B02C
906C
D84C
C8CC
CCCC
CC8C
C58C
C70C
C70C
C30C
ENDCHAR
STARTCHAR 041D
ENCODING 1053
SWIDTH 720 0
DWIDTH 14 0
BBX 11 14 2 0
BITMAP
C060
C060
C060
C060
C060
C060
FFE0
FFE0
C060
C060
C060
C060
C060
C060
ENDCHAR
STARTCHAR 041E
ENCODING 1054
SWIDTH 771 0
DWIDTH 15 0
BBX 13 14 1 0
BITMAP
0FC0
3CE0
7030
6030
C018
C018
C018
C018
C018
C018
6030
6030
38E0
1FC0
ENDCHAR
STARTCHAR 041F
ENCODING 1055
SWIDTH 720 0
DWIDTH 14 0
BBX 10 14 2 0
BITMAP
FFC0
FFC0
C040
C040
C040
C040
C040
C040
C040
C040
C040
C040
C040
C040
ENDCHAR
STARTCHAR 0420
ENCODING 1056
SWIDTH 565 0
DWIDTH 11 0
BBX 9 14 2 0
BITMAP
FC00
FF00
C300
C180
C180
C180
C300
FE00
F800
C000
C000
C000
C000
C000
ENDCHAR
STARTCHAR 0421
ENCODING 1057
SWIDTH 617 0
DWIDTH 12 0
BBX 10 14 1 0
BITMAP
0FC0
3DC0
7000
6000
4000
C000
C000
C000
C000
C000
6000
7000
3840
1FC0
ENDCHAR
STARTCHAR 0422
ENCODING 1058
SWIDTH 514 0
DWIDTH 10 0
BBX 11 14 0 0
BITMAP
FFE0
FFE0
0400
0400
0400
0400
0400
0400
0400
0400
0400
0400
0400
0400
ENDCHAR
STARTCHAR 0423
ENCODING 1059
SWIDTH 617 0
DWIDTH 12 0
BBX 12 14 0 0
BITMAP
C030
6030
6060
3060
30C0
18C0
0880
0D80
0500
0700
0200
0600
5C00
7800
ENDCHAR
STARTCHAR 0424
ENCODING 1060
SWIDTH 771 0
DWIDTH 15 0
BBX 14 14 1 0
BITMAP
0300
0300
3FE0
7338
C318
C308
C30C
C30C
C308
6318
7B70
1FE0
0300
0300
ENDCHAR
STARTCHAR 0425
ENCODING 1061
SWIDTH 565 0
DWIDTH 11 0
BBX 11 14 0 0
BITMAP
6060
60C0
3080
1180
1B00
0E00
0600
0E00
0B00
1900
3180
20C0
60C0
C060
ENDCHAR
STARTCHAR 0426
ENCODING 1062
SWIDTH 720 0
DWIDTH 14 0
BBX 12 18 2 -4
BITMAP
C040
C040
C040
C040
C040
C040
C040
C040
C040
C040
C040
C040
FFF0
FFF0
0030
0030
0030
0030
ENDCHAR
STARTCHAR 0427
ENCODING 1063
SWIDTH 668 0
DWIDTH 13 0
BBX 10 14 2 0
BITMAP
80C0
80C0
80C0
80C0
80C0
80C0
80C0
E3C0
7EC0
00C0
00C0
00C0
00C0
00C0
ENDCHAR
STARTCHAR 0428
ENCODING 1064
SWIDTH 1028 0
DWIDTH 20 0
BBX 16 14 2 0
BITMAP
C183
C183
C183
C183
C183
C183
C183
C183
C183
C183
C183
C183
FFFF
FFFF
ENDCHAR
STARTCHAR 0429
ENCODING 1065
SWIDTH 1028 0
DWIDTH 20 0
BBX 18 18 2 -4
BITMAP
C18300
C18300
C18300
C18300
C18300
C18300
C18300
C18300
C18300
C18300
C18300
C18300
FFFFC0
FFFFC0
0000C0
0000C0
0000C0
0000C0
ENDCHAR
STARTCHAR 042A
ENCODING 1066
SWIDTH 668 0
DWIDTH 13 0
BBX 12 14 0 0
BITMAP
F800
F800
1800
1800
1800
1800
1FC0
1FF0
1830
1810
1810
1830
1FF0
1FC0
ENDCHAR
STARTCHAR 042B
ENCODING 1067
SWIDTH 822 0
DWIDTH 16 0
BBX 13 14 2 0
BITMAP
C018
C018
C018
C018
C018
C018
FE18
FF18
C198
C198
C198
C198
CF18
FE18
ENDCHAR
STARTCHAR 042C
ENCODING 1068
SWIDTH 617 0
DWIDTH 12 0
BBX 9 14 2 0
BITMAP
C000
C000
C000
C000
C000
C000
FE00
FF80
C180
C080
C080
C180
FF80
FE00
ENDCHAR
STARTCHAR 042D
ENCODING 1069
SWIDTH 617 0
DWIDTH 12 0
BBX 10 14 1 0
BITMAP
FE00
EF00
0180
0180
00C0
00C0
7FC0
7FC0
00C0
00C0
0080
0180
8700
FE00
ENDCHAR
STARTCHAR 042E
ENCODING 1070
SWIDTH 1028 0
DWIDTH 20 0
BBX 17 14 2 0
BITMAP
C0FC00
C1CE00
C30300
C60180
C60180
C60180
FE0180
FE0180
C60180
C60180
C60180
C30300
C1CE00
C0FC00
ENDCHAR
STARTCHAR 042F
ENCODING 1071
SWIDTH 617 0
DWIDTH 12 0
BBX 10 14 1 0
BITMAP
1FC0
7FC0
60C0
C0C0
C0C0
60C0
70C0
3FC0
18C0
30C0
30C0
60C0
C0C0
C0C0
ENDCHAR
STARTCHAR 0430
ENCODING 1072
SWIDTH 514 0
DWIDTH 10 0
BBX 8 11 1 0
BITMAP
1C
7F
03
01
01
7F
E1
C1
C3
C7
7D
ENDCHAR
STARTCHAR 0431
ENCODING 1073
SWIDTH 565 0
DWIDTH 11 0
BBX 10 15 1 0
BITMAP
0180
1F80
3800
6000
4000
CE00
DF00
E180
C080
C0C0
C0C0
C080
6180
7380
3F00
ENDCHAR
STARTCHAR 0432
ENCODING 1074
SWIDTH 565 0
DWIDTH 11 0
BBX 8 10 2 0
BITMAP
FE
83
83
83
FC
83
81
81
87
FE
ENDCHAR
STARTCHAR 0433
ENCODING 1075
SWIDTH 411 0
DWIDTH 8 0
BBX 6 10 2 0
BITMAP
FC
80
80
80
80
80
80
80
80
80
ENDCHAR
STARTCHAR 0434
ENCODING 1076
SWIDTH 565 0
DWIDTH 11 0
BBX 11 14 0 -4
BITMAP
0F80
0880
0880
1880
1880
1080
3080
3080
6080
FFE0
C060
C060
C060
C060
ENDCHAR
STARTCHAR 0435
ENCODING 1077
SWIDTH 514 0
DWIDTH 10 0
BBX 9 11 1 0
BITMAP
0C00
3F00
6300
C180
C180
FF80
C000
C000
4000
7180
3F80
ENDCHAR
STARTCHAR 0436
ENCODING 1078
SWIDTH 720 0
DWIDTH 14 0
BBX 14 10 0 0
BITMAP
630C
3318
1B30
0F60
07C0
0F60
1B20
3330
6318
C30C
ENDCHAR
STARTCHAR 0437
ENCODING 1079
SWIDTH 462 0
DWIDTH 9 0
BBX 8 11 1 0
BITMAP
38
FE
06
02
06
38
06
03
03
86
FC
ENDCHAR
STARTCHAR 0438
ENCODING 1080
SWIDTH 617 0
DWIDTH 12 0
BBX 9 10 2 0
BITMAP
8380
8380
8780
8D80
8980
9980
B180
A180
E180
C180
ENDCHAR
STARTCHAR 0439
ENCODING 1081
SWIDTH 617 0
DWIDTH 12 0
BBX 9 15 2 0
BITMAP
4300
6300
3E00
0000
0000
8380
8380
8780
8D80
8980
9980
B180
A180
E180
C180
ENDCHAR
STARTCHAR 043A
ENCODING 1082
SWIDTH 514 0
DWIDTH 10 0
BBX 8 10 2 0
BITMAP
86
8C
98
B0
E0
B0
98
8C
86
83
ENDCHAR
STARTCHAR 043B
ENCODING 1083
SWIDTH 565 0
DWIDTH 11 0
BBX 10 10 0 0
BITMAP
1FC0
18C0
18C0
18C0
10C0
10C0
30C0
30C0
60C0
E0C0
ENDCHAR
STARTCHAR 043C
ENCODING 1084
SWIDTH 720 0
DWIDTH 14 0
BBX 11 10 2 0
BITMAP
C0E0
E0E0
A1E0
A1E0
B160
9360
9A60
8E60
8E60
8C60
ENDCHAR
STARTCHAR 043D
ENCODING 1085
SWIDTH 617 0
DWIDTH 12 0
BBX 9 10 2 0
BITMAP
8180
8180
8180
8180
FF80
8180
8180
8180
8180
8180
ENDCHAR
STARTCHAR 043E
ENCODING 1086
SWIDTH 565 0
DWIDTH 11 0
BBX 10 11 1 0
BITMAP
0C00
3F00
6180
C080
C0C0
C0C0
C0C0
C0C0
4180
6380
3F00
ENDCHAR
STARTCHAR 043F
ENCODING 1087
SWIDTH 617 0
DWIDTH 12 0
BBX 8 10 2 0
BITMAP
FF
81
81
81
81
81
81
81
81
81
ENDCHAR
STARTCHAR 0440
ENCODING 1088
SWIDTH 565 0
DWIDTH 11 0
BBX 9 16 2 -5
BITMAP
0C00
BE00
C300
C180
8180
8180
8180
C180
C100
E300
BE00
8000
8000
8000
8000
8000
ENDCHAR
STARTCHAR 0441
ENCODING 1089
SWIDTH 462 0
DWIDTH 9 0
BBX 8 11 1 0
BITMAP
0C
3E
60
C0
C0
C0
C0
C0
40
73
3F
ENDCHAR
STARTCHAR 0442
ENCODING 1090
SWIDTH 462 0
DWIDTH 9 0
BBX 9 10 0 0
BITMAP
FF80
0800
0800
0800
0800
0800
0800
0800
0800
0800
ENDCHAR
STARTCHAR 0443
ENCODING 1091
SWIDTH 462 0
DWIDTH 9 0
BBX 10 15 0 -5
BITMAP
C0C0
6180
6180
2100
3300
3300
1200
1E00
0E00
0C00
0C00
0800
1800
F000
E000
ENDCHAR
STARTCHAR 0444
ENCODING 1092
SWIDTH 720 0
DWIDTH 14 0
BBX 12 20 1 -5
BITMAP
0600
0600
0600
0600
0600
3FC0
6660
C630
C630
C630
C630
C630
6660
76E0
1F80
0600
0600
0600
0600
0600
ENDCHAR
STARTCHAR 0445
ENCODING 1093
SWIDTH 514 0
DWIDTH 10 0
BBX 9 10 1 0
BITMAP
C300
6200
2600
3C00
1800
1C00
3400
6600
C300
C180
ENDCHAR
STARTCHAR 0446
ENCODING 1094
SWIDTH 617 0
DWIDTH 12 0
BBX 10 14 2 -4
BITMAP
8100
8100
8100
8100
8100
8100
8100
8100
8100
FFC0
00C0
00C0
00C0
00C0
ENDCHAR
STARTCHAR 0447
ENCODING 1095
SWIDTH 565 0
DWIDTH 11 0
BBX 9 10 1 0
BITMAP
C080
C080
C080
C080
4180
7E80
1880
0080
0080
0080
ENDCHAR
STARTCHAR 0448
ENCODING 1096
SWIDTH 874 0
DWIDTH 17 0
BBX 14 10 2 0
BITMAP
830C
830C
830C
830C
830C
830C
830C
830C
830C
FFFC
ENDCHAR
STARTCHAR 0449
ENCODING 1097
SWIDTH 874 0
DWIDTH 17 0
BBX 15 14 2 -4
BITMAP
830C
830C
830C
830C
830C
830C
830C
830C
830C
FFFE
0002
0002
0002
0002
ENDCHAR
STARTCHAR 044A
ENCODING 1098
SWIDTH 668 0
DWIDTH 13 0
BBX 12 10 0 0
BITMAP
F800
0800
0800
0800
0FE0
0830
0810
0810
0870
0FE0
ENDCHAR
STARTCHAR 044B
ENCODING 1099
SWIDTH 771 0
DWIDTH 15 0
BBX 11 10 2 0
BITMAP
8020
8020
8020
8020
FE20
8720
8320
8320
8720
FE20
ENDCHAR
STARTCHAR 044C
ENCODING 1100
SWIDTH 565 0
DWIDTH 11 0
BBX 9 10 2 0
BITMAP
8000
8000
8000
8000
FE00
8300
8180
8100
8700
FE00
ENDCHAR
STARTCHAR 044D
ENCODING 1101
SWIDTH 462 0
DWIDTH 9 0
BBX 8 11 1 0
BITMAP
70
FC
06
06
02
7F
03
02
06
8C
F8
ENDCHAR
STARTCHAR 044E
ENCODING 1102
SWIDTH 822 0
DWIDTH 16 0
BBX 13 11 2 0
BITMAP
01C0
83F0
8630
8C18
8C18
FC18
8C18
8C18
8C18
8630
83E0
ENDCHAR
STARTCHAR 044F
ENCODING 1103
SWIDTH 514 0
DWIDTH 10 0
BBX 8 10 1 0
BITMAP
7F
C3
C3
C3
FF
3F
33
63
C3
C3
ENDCHAR
STARTCHAR 0450
ENCODING 1104
SWIDTH 514 0
DWIDTH 10 0
BBX 9 15 1 0
BITMAP
3000
1800
0C00
0000
0C00
3F00
6300
C180
C180
FF80
C000
C000
4000
7180
3F80
ENDCHAR
STARTCHAR 0451
ENCODING 1105
SWIDTH 514 0
DWIDTH 10 0
BBX 9 14 1 0
BITMAP
3600
2200
0000
0C00
3F00
6300
C180
C180
FF80
C000
C000
4000
7180
3F80
ENDCHAR
STARTCHAR 0452
ENCODING 1106
SWIDTH 617 0
DWIDTH 12 0
BBX 10 20 0 -5
BITMAP
2000
2000
FE00
2000
2000
2F80
38C0
3040
3040
2040
2040
2040
2040
2040
2040
0040
0040
0040
03C0
0180
ENDCHAR
STARTCHAR 0453
ENCODING 1107
SWIDTH 411 0
DWIDTH 8 0
BBX 6 15 2 0
BITMAP
18
18
30
00
00
FC
80
80
80
80
80
80
80
80
80
ENDCHAR
STARTCHAR 0454
ENCODING 1108
SWIDTH 462 0
DWIDTH 9 0
BBX 8 11 1 0
BITMAP
0C
3F
60
C0
C0
FE
C0
C0
40
71
3F
ENDCHAR
STARTCHAR 0455
ENCODING 1109
SWIDTH 462 0
DWIDTH 9 0
BBX 7 11 1 0
BITMAP
18
7E
C0
C0
E0
38
0E
02
02
86
FC
ENDCHAR
STARTCHAR 0456
ENCODING 1110
SWIDTH 257 0
DWIDTH 5 0
BBX 1 14 2 0
BITMAP
80
80
00
00
80
80
80
80
80
80
80
80
80
80
ENDCHAR
STARTCHAR 0457
ENCODING 1111
SWIDTH 257 0
DWIDTH 5 0
BBX 5 14 0 0
BITMAP
D8
88
00
00
20
20
20
20
20
20
20
20
20
20
ENDCHAR
STARTCHAR 0458
ENCODING 1112
SWIDTH 257 0
DWIDTH 5 0
BBX 4 19 -1 -5
BITMAP
10
10
00
00
10
10
10
10
10
10
10
10
10
10
10
10
10
F0
E0
ENDCHAR
STARTCHAR 0459
ENCODING 1113
SWIDTH 822 0
DWIDTH 16 0
BBX 15 10 0 0
BITMAP
1F80
1980
1980
1980
11FC
1186
3182
3182
618E
E1FC
ENDCHAR
STARTCHAR 045A
ENCODING 1114
SWIDTH 874 0
DWIDTH 17 0
BBX 14 10 2 0
BITMAP
8300
8300
8300
8300
FFF8
831C
830C
830C
831C
83F8
ENDCHAR
STARTCHAR 045B
ENCODING 1115
SWIDTH 617 0
DWIDTH 12 0
BBX 10 15 0 0
BITMAP
2000
2000
FE00
2000
2000
2F80
38C0
3040
2040
2040
2040
2040
2040
2040
2040
ENDCHAR
STARTCHAR 045C
ENCODING 1116
SWIDTH 514 0
DWIDTH 10 0
BBX 8 15 2 0
BITMAP
0C
18
10
00
00
86
8C
98
B0
E0
B0
98
8C
86
83
ENDCHAR
STARTCHAR 045D
ENCODING 1117
SWIDTH 617 0
DWIDTH 12 0
BBX 9 15 2 0
BITMAP
3000
1800
0800
0000
0000
8380
8380
8780
8D80
8980
9980
B180
A180
E180
C180
ENDCHAR
STARTCHAR 045E
ENCODING 1118
SWIDTH 462 0
DWIDTH 9 0
BBX 10 20 0 -5
BITMAP
6180
2100
3F00
0000
0000
C0C0
6180
6180
2100
3300
3300
1200
1E00
0E00
0C00
0C00
0800
1800
F000
E000
ENDCHAR
STARTCHAR 045F
ENCODING 1119
SWIDTH 617 0
DWIDTH 12 0
BBX 9 14 2 -4
BITMAP
8180
8180
8180
8180
8180
8180
8180
8180
8180
FF80
1800
1800
1800
1800
ENDCHAR
STARTCHAR 0460
ENCODING 1120
SWIDTH 874 0
DWIDTH 17 0
BBX 16 14 1 0
BITMAP
8181
8181
C183
C183
C183
C183
43C3
63C2
62C6
6666
3664
342C
1C3C
1818
ENDCHAR
STARTCHAR 0461
ENCODING 1121
SWIDTH 771 0
DWIDTH 15 0
BBX 15 10 0 0
BITMAP
C106
4106
4186
6184
618C
228C
32C8
36D8
1C50
1C70
ENDCHAR
STARTCHAR 0462
ENCODING 1122
SWIDTH 668 0
DWIDTH 13 0
BBX 12 14 0 0
BITMAP
1800
1800
FF80
FF80
1800
1800
1FC0
1FE0
1830
1830
1830
1830
19E0
1FC0
ENDCHAR
STARTCHAR 0463
ENCODING 1123
SWIDTH 617 0
DWIDTH 12 0
BBX 11 13 0 0
BITMAP
3000
3000
3000
FE00
3000
3000
3000
3FC0
3060
3020
3020
30E0
3FC0
ENDCHAR
STARTCHAR 0464
ENCODING 1124
SWIDTH 874 0
DWIDTH 17 0
BBX 15 14 2 0
BITMAP
C07E
C1EE
C300
C300
C600
C600
FFF8
FFF8
C600
C600
C600
C300
C1C6
C0FE
ENDCHAR
STARTCHAR 0465
ENCODING 1125
SWIDTH 720 0
DWIDTH 14 0
BBX 12 11 2 0
BITMAP
00C0
83F0
8600
8C00
8C00
FFE0
8C00
8C00
8C00
8710
83F0
ENDCHAR
STARTCHAR 0466
ENCODING 1126
SWIDTH 668 0
DWIDTH 13 0
BBX 13 14 0 0
BITMAP
0300
0700
0500
0D80
0C80
08C0
1FC0
1FE0
3260
3220
6230
6230
4218
C218
ENDCHAR
STARTCHAR 0467
ENCODING 1127
SWIDTH 565 0
DWIDTH 11 0
BBX 11 10 0 0
BITMAP
0E00
0A00
1B00
1100
3F80
3580
24C0
64C0
4440
C460
ENDCHAR
STARTCHAR 0468
ENCODING 1128
SWIDTH 925 0
DWIDTH 18 0
BBX 16 14 2 0
BITMAP
C0C0
C0E0
C0A0
C1B0
C130
C318
FFF8
FFF8
C64C
C44C
CC46
CC46
D842
D843
ENDCHAR
STARTCHAR 0469
ENCODING 1129
SWIDTH 771 0
DWIDTH 15 0
BBX 13 10 2 0
BITMAP
8380
8280
86C0
8440
FFE0
8D60
8930
9930
9110
B118
ENDCHAR
STARTCHAR 046A
ENCODING 1130
SWIDTH 720 0
DWIDTH 14 0
BBX 14 14 0 0
BITMAP
7FF8
3FF8
3030
1860
0CC0
0780
0FE0
3B70
3330
2318
6318
6318
6308
C30C
ENDCHAR
STARTCHAR 046B
ENCODING 1131
SWIDTH 617 0
DWIDTH 12 0
BBX 12 10 0 0
BITMAP
7FE0
30C0
1880
0D00
1FC0
3640
6660
6620
4630
C630
ENDCHAR
STARTCHAR 046C
ENCODING 1132
SWIDTH 977 0
DWIDTH 19 0
BBX 17 14 2 0
BITMAP
C7FF00
C7FF00
C60600
C30C00
C19800
C0F000
FFFC00
FF6E00
C66200
C46300
CC6300
CC6100
CC6180
D86180
ENDCHAR
STARTCHAR 046D
ENCODING 1133
SWIDTH 822 0
DWIDTH 16 0
BBX 14 10 2 0
BITMAP
9FF8
8C10
8620
8340
FFF0
8C98
8898
9888
988C
B08C
ENDCHAR
STARTCHAR 046E
ENCODING 1134
SWIDTH 565 0
DWIDTH 11 0
BBX 9 21 1 -4
BITMAP
4100
3700
1C00
7E00
E300
0180
0180
0180
0300
7C00
7F00
0180
0180
0180
0180
0780
FE00
C000
8000
FF80
7F80
ENDCHAR
STARTCHAR 046F
ENCODING 1135
SWIDTH 462 0
DWIDTH 9 0
BBX 9 16 0 -4
BITMAP
6300
3600
1C00
7F00
0300
0100
0300
1C00
0300
0180
0180
0300
7E00
C000
C000
7F00
ENDCHAR
STARTCHAR 0470
ENCODING 1136
SWIDTH 771 0
DWIDTH 15 0
BBX 12 14 2 0
BITMAP
C630
C630
C630
C630
C630
C630
C630
C630
6660
3FC0
0600
0600
0600
0600
ENDCHAR
STARTCHAR 0471
ENCODING 1137
SWIDTH 720 0
DWIDTH 14 0
BBX 11 20 2 -5
BITMAP
0C00
0C00
0C00
0C00
0C00
8C60
8C60
8C60
8C20
8C20
8C60
8C60
CC60
EDC0
3F80
0C00
0C00
0C00
0C00
0C00
ENDCHAR
STARTCHAR 0472
ENCODING 1138
SWIDTH 771 0
DWIDTH 15 0
BBX 13 14 1 0
BITMAP
0FC0
3CE0
7030
6030
C018
C018
FFF8
FFF8
C018
C018
6030
6030
38E0
1FC0
ENDCHAR
STARTCHAR 0473
ENCODING 1139
SWIDTH 565 0
DWIDTH 11 0
BBX 10 11 1 0
BITMAP
0C00
3F00
6180
C080
C0C0
FFC0
C0C0
C0C0
4180
6380
3F00
ENDCHAR
STARTCHAR 0474
ENCODING 1140
SWIDTH 617 0
DWIDTH 12 0
BBX 13 14 0 0
BITMAP
C038
C078
6060
6040
20C0
30C0
3080
1180
1980
1900
0B00
0F00
0E00
0600
ENDCHAR
STARTCHAR 0475
ENCODING 1141
SWIDTH 514 0
DWIDTH 10 0
BBX 10 11 0 0
BITMAP
0040
C0C0
4180
6180
6100
3300
3300
1200
1E00
1E00
0C00
ENDCHAR
STARTCHAR 0476
ENCODING 1142
SWIDTH 617 0
DWIDTH 12 0
BBX 13 18 0 0
BITMAP
3200
1B00
0980
0000
C038
C078
6060
6040
20C0
30C0
3080
1180
1980
1900
0B00
0F00
0E00
0600
ENDCHAR
STARTCHAR 0477
ENCODING 1143
SWIDTH 514 0
DWIDTH 10 0
BBX 10 15 0 0
BITMAP
6C00
2600
3200
0000
0040
C0C0
4180
6180
6100
3300
3300
1200
1E00
1E00
0C00
ENDCHAR
STARTCHAR 0478
ENCODING 1144
SWIDTH 1182 0
DWIDTH 23 0
BBX 22 19 1 -5
BITMAP
1F8000
39C000
606000
602000
C0360C
C0320C
C0330C
C03318
C03118
C03190
6020B0
6060F0
39C0E0
1F8060
000060
0000C0
0000C0
000780
000700
ENDCHAR
STARTCHAR 0479
ENCODING 1145
SWIDTH 1080 0
DWIDTH 21 0
BBX 20 16 1 -5
BITMAP
0C0000
3F1830
619830
C08860
C0CC60
C0CC40
C0C4C0
C0C6C0
418280
638380
3F0380
000300
000300
000600
001E00
001800
ENDCHAR
STARTCHAR 047A
ENCODING 1146
SWIDTH 771 0
DWIDTH 15 0
BBX 14 16 1 -1
BITMAP
0300
0FC0
3FF0
7030
6018
4008
C00C
C00C
C00C
C00C
C008
6018
7038
3B70
0FC0
0300
ENDCHAR
STARTCHAR 047B
ENCODING 1147
SWIDTH 617 0
DWIDTH 12 0
BBX 11 12 1 -1
BITMAP
0E00
3F80
64C0
C040
C060
C060
C060
C060
40C0
7FC0
1F00
0E00
ENDCHAR
STARTCHAR 047C
ENCODING 1148
SWIDTH 977 0
DWIDTH 19 0
BBX 18 20 1 0
BITMAP
03C000
027800
00C000
004000
008000
000000
1E3E00
3B3700
600180
600180
C000C0
C000C0
C000C0
C000C0
C0C0C0
C0C0C0
60C180
60C180
39E700
1F3E00
ENDCHAR
STARTCHAR 047D
ENCODING 1149
SWIDTH 874 0
DWIDTH 17 0
BBX 15 17 1 0
BITMAP
0780
0CE0
0180
0180
0100
0000
1830
7C7C
6006
C006
C002
C002
C182
C186
6186
73CC
3E78
ENDCHAR
STARTCHAR 047E
ENCODING 1150
SWIDTH 874 0
DWIDTH 17 0
BBX 16 17 1 0
BITMAP
0FF0
0000
0000
8181
8181
C183
C183
C183
C183
43C3
63C2
62C6
6666
3664
342C
1C3C
1818
ENDCHAR
STARTCHAR 047F
ENCODING 1151
SWIDTH 771 0
DWIDTH 15 0
BBX 15 14 0 0
BITMAP
0FE0
0920
0000
0000
C106
4106
4186
6184
618C
228C
32C8
36D8
1C50
1C70
ENDCHAR
STARTCHAR 0480
ENCODING 1152
SWIDTH 617 0
DWIDTH 12 0
BBX 11 19 1 -5
BITMAP
0FC0
3FE0
7000
6000
4000
C000
C000
C000
C000
C000
6000
7000
3C80
1F80
0180
0180
0180
0180
0180
ENDCHAR
STARTCHAR 0481
ENCODING 1153
SWIDTH 462 0
DWIDTH 9 0
BBX 8 16 1 -5
BITMAP
0C
3F
60
C0
C0
C0
C0
C0
C0
72
3E
06
06
06
06
06
ENDCHAR
STARTCHAR 0482
ENCODING 1154
SWIDTH 565 0
DWIDTH 11 0
BBX 10 12 1 0
BITMAP
0180
1100
1B00
0600
0780
0CC0
C800
7800
1C00
3600
6200
4000
ENDCHAR
STARTCHAR 0483
ENCODING 1155
SWIDTH 0 0
DWIDTH 0 0
BBX 7 3 -9 11
BITMAP
06
FE
C0
ENDCHAR
STARTCHAR 0484
ENCODING 1156
SWIDTH 0 0
DWIDTH 0 0
BBX 7 2 -9 12
BITMAP
3E
E2
ENDCHAR
STARTCHAR 0485
ENCODING 1157
SWIDTH 0 0
DWIDTH 0 0
BBX 3 3 -7 12
BITMAP
C0
C0
60
ENDCHAR
STARTCHAR 0486
ENCODING 1158
SWIDTH 0 0
DWIDTH 0 0
BBX 3 3 -7 12
BITMAP
60
60
C0
ENDCHAR
STARTCHAR 0487
ENCODING 1159
SWIDTH 0 0
DWIDTH 0 0
BBX 8 2 -4 15
BITMAP
78
CF
ENDCHAR
STARTCHAR 0488
ENCODING 1160
SWIDTH 0 0
DWIDTH 0 0
BBX 22 20 -11 -5
BITMAP
007800
008800
000000
1C00E0
260110
000000
000000
000000
000000
F0003C
880044
000000
000000
000000
1800E0
3C01F0
220110
002000
007800
000800
ENDCHAR
STARTCHAR 0489
ENCODING 1161
SWIDTH 0 0
DWIDTH 0 0
BBX 22 21 -11 -5
BITMAP
001000
001000
003000
083000
0C00E0
0C01C0
040000
000000
000000
000000
F00038
10001C
000000
000000
000000
000080
0E00C0
1C10C0
003040
003000
002000
ENDCHAR
STARTCHAR 048A
ENCODING 1162
SWIDTH 771 0
DWIDTH 15 0
BBX 13 22 2 -4
BITMAP
3180
3180
1F00
0000
C060
C0E0
C0A0
C1A0
C360
C260
C660
CC60
C860
9860
B060
A060
E078
C078
0010
0030
0030
0030
ENDCHAR
STARTCHAR 048B
ENCODING 1163
SWIDTH 617 0
DWIDTH 12 0
BBX 10 19 2 -4
BITMAP
4300
6300
3E00
0000
0000
8380
8380
8780
8D80
8980
9980
B180
A180
E180
C1C0
0040
00C0
00C0
0080
ENDCHAR
STARTCHAR 048C
ENCODING 1164
SWIDTH 565 0
DWIDTH 11 0
BBX 11 14 0 0
BITMAP
3000
3000
FE00
3000
3000
3000
3F80
3FC0
3060
3060
3060
3060
33C0
3F80
ENDCHAR
STARTCHAR 048D
ENCODING 1165
SWIDTH 565 0
DWIDTH 11 0
BBX 11 15 0 0
BITMAP
2000
2000
2000
FC00
2000
2000
2000
2000
2000
3F80
20C0
2060
2040
21C0
3F80
ENDCHAR
STARTCHAR 048E
ENCODING 1166
SWIDTH 565 0
DWIDTH 11 0
BBX 9 14 2 0
BITMAP
FC00
FF00
C380
C180
C180
C980
CF00
FE00
FA00
C300
C000
C000
C000
C000
ENDCHAR
STARTCHAR 048F
ENCODING 1167
SWIDTH 565 0
DWIDTH 11 0
BBX 9 16 2 -5
BITMAP
0C00
BE00
C300
C180
8180
8180
8180
C180
CD00
E700
BE00
8300
8000
8000
8000
8000
ENDCHAR
STARTCHAR 0490
ENCODING 1168
SWIDTH 514 0
DWIDTH 10 0
BBX 8 17 2 0
BITMAP
03
03
03
FF
FF
C0
C0
C0
C0
C0
C0
C0
C0
C0
C0
C0
C0
ENDCHAR
STARTCHAR 0491
ENCODING 1169
SWIDTH 411 0
DWIDTH 8 0
BBX 6 13 2 0
BITMAP
0C
0C
0C
FC
80
80
80
80
80
80
80
80
80
ENDCHAR
STARTCHAR 0492
ENCODING 1170
SWIDTH 514 0
DWIDTH 10 0
BBX 10 14 0 0
BITMAP
3FC0
3FC0
3000
3000
3000
3000
FF00
FF00
3000
3000
3000
3000
3000
3000
ENDCHAR
STARTCHAR 0493
ENCODING 1171
SWIDTH 411 0
DWIDTH 8 0
BBX 8 10 0 0
BITMAP
3F
20
20
20
FE
20
20
20
20
20
ENDCHAR
STARTCHAR 0494
ENCODING 1172
SWIDTH 617 0
DWIDTH 12 0
BBX 10 19 2 -5
BITMAP
FF00
FF00
C000
C000
C000
C000
F800
FF00
C380
C180
C0C0
C0C0
C0C0
C0C0
00C0
00C0
0180
3F00
3E00
ENDCHAR
STARTCHAR 0495
ENCODING 1173
SWIDTH 514 0
DWIDTH 10 0
BBX 8 15 2 -5
BITMAP
FC
80
80
80
F8
DE
86
83
83
83
03
03
06
7E
38
ENDCHAR
STARTCHAR 0496
ENCODING 1174
SWIDTH 874 0
DWIDTH 17 0
BBX 17 18 0 -4
BITMAP
418300
618600
318400
198C00
0D9800
05B000
07E000
07B000
0DB000
0D9800
198C00
318600
618780
C18380
000080
000080
000080
000080
ENDCHAR
STARTCHAR 0497
ENCODING 1175
SWIDTH 771 0
DWIDTH 15 0
BBX 15 14 0 -4
BITMAP
630C
3318
1B30
0F60
07C0
0F60
1B20
3330
6318
C30E
0002
0002
0002
0002
ENDCHAR
STARTCHAR 0498
ENCODING 1176
SWIDTH 565 0
DWIDTH 11 0
BBX 9 18 1 -4
BITMAP
7E00
E300
0180
0180
0180
0300
7E00
7F00
0180
0180
0080
0180
C380
FE00
0800
0C00
0C00
1C00
ENDCHAR
STARTCHAR 0499
ENCODING 1177
SWIDTH 462 0
DWIDTH 9 0
BBX 8 15 1 -4
BITMAP
38
FE
06
02
06
38
06
03
03
86
FC
10
18
08
38
ENDCHAR
STARTCHAR 049A
ENCODING 1178
SWIDTH 668 0
DWIDTH 13 0
BBX 11 18 2 -4
BITMAP
C180
C380
C300
C600
CC00
D800
F000
F000
D800
CC00
C600
C300
C1E0
C1E0
0060
0060
0060
0060
ENDCHAR
STARTCHAR 049B
ENCODING 1179
SWIDTH 514 0
DWIDTH 10 0
BBX 9 14 2 -4
BITMAP
8600
8C00
9800
B000
E000
B000
9800
8C00
8600
8380
0180
0180
0180
0180
ENDCHAR
STARTCHAR 049C
ENCODING 1180
SWIDTH 617 0
DWIDTH 12 0
BBX 10 14 2 0
BITMAP
C180
C380
D300
D600
DC00
D800
F000
F000
D800
DC00
D600
C300
C180
C1C0
ENDCHAR
STARTCHAR 049D
ENCODING 1181
SWIDTH 514 0
DWIDTH 10 0
BBX 8 10 2 0
BITMAP
B6
BC
B8
B0
F0
B0
B8
BC
B6
83
ENDCHAR
STARTCHAR 049E
ENCODING 1182
SWIDTH 617 0
DWIDTH 12 0
BBX 12 14 0 0
BITMAP
3060
30E0
F8C0
3180
3300
3600
3C00
3C00
3600
3300
3180
30C0
3060
3070
ENDCHAR
STARTCHAR 049F
ENCODING 1183
SWIDTH 514 0
DWIDTH 10 0
BBX 10 15 0 0
BITMAP
2000
2000
FE00
2000
2000
2180
2300
2600
2C00
3800
2C00
2600
2300
2180
20C0
ENDCHAR
STARTCHAR 04A0
ENCODING 1184
SWIDTH 668 0
DWIDTH 13 0
BBX 13 14 0 0
BITMAP
F818
F830
1860
18C0
1980
1B00
1E00
1B00
1B80
1980
18C0
1860
1830
1818
ENDCHAR
STARTCHAR 04A1
ENCODING 1185
SWIDTH 617 0
DWIDTH 12 0
BBX 12 10 0 0
BITMAP
F860
08C0
0980
0B00
0E00
0B00
0980
08C0
0860
0830
ENDCHAR
STARTCHAR 04A2
ENCODING 1186
SWIDTH 720 0
DWIDTH 14 0
BBX 12 18 2 -4
BITMAP
C060
C060
C060
C060
C060
C060
FFE0
FFE0
C060
C060
C060
C060
C070
C070
0030
0030
0030
0030
ENDCHAR
STARTCHAR 04A3
ENCODING 1187
SWIDTH 617 0
DWIDTH 12 0
BBX 10 14 2 -4
BITMAP
8180
8180
8180
8180
FF80
8180
8180
8180
8180
81C0
0040
0040
0040
0040
ENDCHAR
STARTCHAR 04A4
ENCODING 1188
SWIDTH 771 0
DWIDTH 15 0
BBX 14 14 2 0
BITMAP
C07C
C07C
C060
C060
C060
C060
FFE0
FFE0
C060
C060
C060
C060
C060
C060
ENDCHAR
STARTCHAR 04A5
ENCODING 1189
SWIDTH 720 0
DWIDTH 14 0
BBX 12 10 2 0
BITMAP
81F0
8180
8180
8180
FF80
8180
8180
8180
8180
8180
ENDCHAR
STARTCHAR 04A6
ENCODING 1190
SWIDTH 1028 0
DWIDTH 20 0
BBX 18 19 2 -5
BITMAP
FFC000
FFC000
C0C000
C0C000
C0C000
C0C000
C0F800
C0FF00
C0C380
C0C180
C0C0C0
C0C0C0
C0C0C0
C0C0C0
0000C0
000180
000180
003F00
003E00
ENDCHAR
STARTCHAR 04A7
ENCODING 1191
SWIDTH 822 0
DWIDTH 16 0
BBX 14 15 2 -5
BITMAP
FF00
8300
8300
8300
83F0
83B8
830C
830C
830C
830C
000C
000C
000C
00F8
0070
ENDCHAR
STARTCHAR 04A8
ENCODING 1192
SWIDTH 771 0
DWIDTH 15 0
BBX 13 15 1 -1
BITMAP
1F00
3900
6000
61F0
C330
C318
C318
C318
C318
C318
6330
61B0
39E0
1FF8
0038
ENDCHAR
STARTCHAR 04A9
ENCODING 1193
SWIDTH 617 0
DWIDTH 12 0
BBX 11 12 1 -1
BITMAP
1C00
3C00
6000
C7C0
C6C0
C440
CC40
C440
46C0
6380
3FE0
0040
ENDCHAR
STARTCHAR 04AA
ENCODING 1194
SWIDTH 617 0
DWIDTH 12 0
BBX 10 18 1 -4
BITMAP
0FC0
3DC0
7000
6000
4000
C000
C000
C000
C000
C000
6000
7000
3840
1FC0
0600
0300
0300
0600
ENDCHAR
STARTCHAR 04AB
ENCODING 1195
SWIDTH 462 0
DWIDTH 9 0
BBX 8 15 1 -4
BITMAP
0C
3E
60
C0
C0
C0
C0
C0
C0
73
3F
08
04
04
1C
ENDCHAR
STARTCHAR 04AC
ENCODING 1196
SWIDTH 514 0
DWIDTH 10 0
BBX 11 18 0 -4
BITMAP
FFE0
FFE0
0400
0400
0400
0400
0400
0400
0400
0400
0400
0400
0700
0700
0300
0300
0300
0300
ENDCHAR
STARTCHAR 04AD
ENCODING 1197
SWIDTH 462 0
DWIDTH 9 0
BBX 9 14 0 -4
BITMAP
FF80
0800
0800
0800
0800
0800
0800
0800
0800
0E00
0600
0600
0600
0600
ENDCHAR
STARTCHAR 04AE
ENCODING 1198
SWIDTH 565 0
DWIDTH 11 0
BBX 11 14 0 0
BITMAP
C060
60C0
60C0
3180
3180
1B00
1B00
0E00
0400
0400
0400
0400
0400
0400
ENDCHAR
STARTCHAR 04AF
ENCODING 1199
SWIDTH 462 0
DWIDTH 9 0
BBX 10 15 0 -5
BITMAP
C0C0
6180
6180
2100
3300
3300
1200
1E00
1C00
0C00
0C00
0C00
0C00
0C00
0C00
ENDCHAR
STARTCHAR 04B0
ENCODING 1200
SWIDTH 565 0
DWIDTH 11 0
BBX 11 14 0 0
BITMAP
C060
60C0
60C0
3180
3180
1B00
1B00
0E00
0400
3F80
3F80
0400
0400
0400
ENDCHAR
STARTCHAR 04B1
ENCODING 1201
SWIDTH 462 0
DWIDTH 9 0
BBX 10 15 0 -5
BITMAP
C0C0
6180
6180
2100
3300
3300
1200
1E00
1C00
0C00
7F00
0C00
0C00
0C00
0C00
ENDCHAR
STARTCHAR 04B2
ENCODING 1202
SWIDTH 617 0
DWIDTH 12 0
BBX 12 18 0 -4
BITMAP
6060
60C0
3080
1180
1B00
0E00
0600
0E00
0B00
1900
3180
20C0
60F0
C070
0030
0030
0030
0030
ENDCHAR
STARTCHAR 04B3
ENCODING 1203
SWIDTH 514 0
DWIDTH 10 0
BBX 9 14 1 -4
BITMAP
C300
6200
2600
3C00
1800
1C00
3400
6600
C300
C180
0080
0080
0080
0080
ENDCHAR
STARTCHAR 04B4
ENCODING 1204
SWIDTH 822 0
DWIDTH 16 0
BBX 16 18 0 -4
BITMAP
FFC6
FFC6
0C06
0C06
0C06
0C06
0C06
0C06
0C06
0C06
0C06
0C06
0FFF
0FFF
0001
0001
0001
0001
ENDCHAR
STARTCHAR 04B5
ENCODING 1205
SWIDTH 720 0
DWIDTH 14 0
BBX 14 14 0 -4
BITMAP
FF30
1830
1830
1830
1830
1830
1830
1830
1830
1FFC
000C
000C
000C
000C
ENDCHAR
STARTCHAR 04B6
ENCODING 1206
SWIDTH 668 0
DWIDTH 13 0
BBX 11 18 2 -4
BITMAP
80C0
80C0
80C0
80C0
80C0
80C0
80C0
E3C0
7EC0
00C0
00C0
00C0
00E0
00E0
0020
0020
0020
0020
ENDCHAR
STARTCHAR 04B7
ENCODING 1207
SWIDTH 617 0
DWIDTH 12 0
BBX 11 14 1 -4
BITMAP
C080
C080
C080
C080
4180
7E80
1880
0080
0080
00E0
0060
0060
0060
0060
ENDCHAR
STARTCHAR 04B8
ENCODING 1208
SWIDTH 668 0
DWIDTH 13 0
BBX 10 14 2 0
BITMAP
80C0
80C0
80C0
80C0
88C0
88C0
C8C0
EBC0
7EC0
08C0
08C0
08C0
00C0
00C0
ENDCHAR
STARTCHAR 04B9
ENCODING 1209
SWIDTH 565 0
DWIDTH 11 0
BBX 9 10 1 0
BITMAP
C180
C180
C980
C980
4980
7F80
1980
0980
0980
0180
ENDCHAR
STARTCHAR 04BA
ENCODING 1210
SWIDTH 668 0
DWIDTH 13 0
BBX 10 14 2 0
BITMAP
C000
C000
C000
C000
C000
DF00
FBC0
C0C0
C0C0
C0C0
C0C0
C0C0
C0C0
C0C0
ENDCHAR
STARTCHAR 04BB
ENCODING 1211
SWIDTH 617 0
DWIDTH 12 0
BBX 8 15 2 0
BITMAP
80
80
80
80
8C
BF
C3
C1
81
81
81
81
81
81
81
ENDCHAR
STARTCHAR 04BC
ENCODING 1212
SWIDTH 822 0
DWIDTH 16 0
BBX 14 14 1 0
BITMAP
03E0
0F78
0C18
180C
980C
900C
FFFC
7FFC
3000
1800
1800
0C00
0F18
03F8
ENDCHAR
STARTCHAR 04BD
ENCODING 1213
SWIDTH 617 0
DWIDTH 12 0
BBX 12 11 0 0
BITMAP
0180
07E0
0C60
D830
D830
7FF0
1800
1800
1800
0E20
07E0
ENDCHAR
STARTCHAR 04BE
ENCODING 1214
SWIDTH 822 0
DWIDTH 16 0
BBX 14 18 1 -4
BITMAP
03E0
0F78
0C18
180C
980C
900C
FFFC
7FFC
3000
1800
1800
0C00
0F18
03F8
00C0
00C0
00C0
00C0
ENDCHAR
STARTCHAR 04BF
ENCODING 1215
SWIDTH 617 0
DWIDTH 12 0
BBX 12 15 0 -4
BITMAP
0180
07E0
0C60
D830
D830
7FF0
1800
1800
1800
0E20
07E0
0180
0180
0180
0180
ENDCHAR
STARTCHAR 04C0
ENCODING 1216
SWIDTH 308 0
DWIDTH 6 0
BBX 5 14 1 0
BITMAP
F8
60
60
60
60
60
60
60
60
60
60
60
60
F8
ENDCHAR
STARTCHAR 04C1
ENCODING 1217
SWIDTH 822 0
DWIDTH 16 0
BBX 16 18 0 0
BITMAP
0430
0760
03C0
0000
4183
6186
3184
198C
0D98
05B0
07E0
07B0
0DB0
0D98
198C
3186
6186
C183
ENDCHAR
STARTCHAR 04C2
ENCODING 1218
SWIDTH 720 0
DWIDTH 14 0
BBX 14 15 0 0
BITMAP
0860
0C60
07C0
0000
0000
630C
3318
1B30
0F60
07C0
0F60
1B20
3330
6318
C30C
ENDCHAR
STARTCHAR 04C3
ENCODING 1219
SWIDTH 668 0
DWIDTH 13 0
BBX 11 19 2 -5
BITMAP
C180
C380
C300
C600
CC00
D800
F000
FF00
C380
C0C0
C0C0
C040
C060
C040
0040
00C0
01C0
1F80
1E00
ENDCHAR
STARTCHAR 04C4
ENCODING 1220
SWIDTH 514 0
DWIDTH 10 0
BBX 8 15 2 -5
BITMAP
86
8C
98
B0
F8
FE
83
83
83
81
03
03
03
3E
38
ENDCHAR
STARTCHAR 04C5
ENCODING 1221
SWIDTH 668 0
DWIDTH 13 0
BBX 14 18 0 -4
BITMAP
0FF0
0FF0
0C30
0C30
0830
0830
1830
1830
1830
1830
1030
3030
303C
E038
0008
0018
0018
0030
ENDCHAR
STARTCHAR 04C6
ENCODING 1222
SWIDTH 565 0
DWIDTH 11 0
BBX 11 14 0 -4
BITMAP
1FC0
18C0
18C0
18C0
10C0
10C0
30C0
30C0
60C0
E0E0
0060
0060
0040
00C0
ENDCHAR
STARTCHAR 04C7
ENCODING 1223
SWIDTH 720 0
DWIDTH 14 0
BBX 11 19 2 -5
BITMAP
C060
C060
C060
C060
C060
C060
FFE0
FFE0
C060
C060
C060
C060
C060
C040
0040
00C0
00C0
1F80
1E00
ENDCHAR
STARTCHAR 04C8
ENCODING 1224
SWIDTH 617 0
DWIDTH 12 0
BBX 9 15 2 -5
BITMAP
8180
8180
8180
8180
FF80
8180
8180
8180
8180
8180
0180
0180
0300
1F00
1C00
ENDCHAR
STARTCHAR 04C9
ENCODING 1225
SWIDTH 720 0
DWIDTH 14 0
BBX 12 18 2 -4
BITMAP
C060
C060
C060
C060
C060
C060
FFE0
FFE0
C060
C060
C060
C060
C070
C070
0030
0030
0060
0060
ENDCHAR
STARTCHAR 04CA
ENCODING 1226
SWIDTH 617 0
DWIDTH 12 0
BBX 10 14 2 -4
BITMAP
8180
8180
8180
8180
FF80
8180
8180
8180
8180
81C0
0040
00C0
00C0
0080
ENDCHAR
STARTCHAR 04CB
ENCODING 1227
SWIDTH 668 0
DWIDTH 13 0
BBX 10 18 2 -4
BITMAP
80C0
80C0
80C0
80C0
80C0
80C0
80C0
E3C0
7EC0
00C0
00C0
00C0
03C0
03C0
0300
0300
0300
0300
ENDCHAR
STARTCHAR 04CC
ENCODING 1228
SWIDTH 565 0
DWIDTH 11 0
BBX 9 14 1 -4
BITMAP
C080
C080
C080
C080
4180
7E80
1880
0080
0080
0380
0300
0300
0300
0300
ENDCHAR
STARTCHAR 04CD
ENCODING 1229
SWIDTH 874 0
DWIDTH 17 0
BBX 16 18 2 -4
BITMAP
E01C
E01C
A03C
B02C
B02C
D06C
D84C
C8CC
CCCC
CC8C
C58C
C70C
C70F
C30E
0002
0006
0006
000C
ENDCHAR
STARTCHAR 04CE
ENCODING 1230
SWIDTH 720 0
DWIDTH 14 0
BBX 12 14 2 -4
BITMAP
C0E0
E0E0
A1E0
A1E0
B160
9360
9A60
8E60
8E60
8C70
0010
0030
0030
0020
ENDCHAR
STARTCHAR 04CF
ENCODING 1231
SWIDTH 308 0
DWIDTH 6 0
BBX 5 14 1 0
BITMAP
F8
60
60
60
60
60
60
60
60
60
60
60
60
F8
ENDCHAR
STARTCHAR 04D0
ENCODING 1232
SWIDTH 617 0
DWIDTH 12 0
BBX 12 18 0 0
BITMAP
10C0
1980
0F00
0000
0600
0700
0F00
0D00
0980
1980
1880
10C0
3FC0
3FE0
6060
6020
4030
C030
ENDCHAR
STARTCHAR 04D1
ENCODING 1233
SWIDTH 514 0
DWIDTH 10 0
BBX 8 15 1 0
BITMAP
63
63
3E
00
1C
7F
03
01
01
7F
E1
C1
C3
C7
7D
ENDCHAR
STARTCHAR 04D2
ENCODING 1234
SWIDTH 617 0
DWIDTH 12 0
BBX 12 18 0 0
BITMAP
0980
1980
0000
0000
0600
0700
0F00
0D00
0980
1980
1880
10C0
3FC0
3FE0
6060
6020
4030
C030
ENDCHAR
STARTCHAR 04D3
ENCODING 1235
SWIDTH 514 0
DWIDTH 10 0
BBX 8 14 1 0
BITMAP
36
22
00
1C
7F
03
01
01
7F
E1
C1
C3
C7
7D
ENDCHAR
STARTCHAR 04D4
ENCODING 1236
SWIDTH 874 0
DWIDTH 17 0
BBX 16 14 0 0
BITMAP
03FF
03FF
0640
0640
0C40
0C40
087F
187F
1FC0
3FC0
2040
6040
607F
C07F
ENDCHAR
STARTCHAR 04D5
ENCODING 1237
SWIDTH 822 0
DWIDTH 16 0
BBX 15 11 1 0
BITMAP
1830
7EFC
038C
0306
0306
7FFE
C300
C300
C380
C7C4
7CFC
ENDCHAR
STARTCHAR 04D6
ENCODING 1238
SWIDTH 514 0
DWIDTH 10 0
BBX 8 18 2 0
BITMAP
C2
66
3C
00
FF
FF
C0
C0
C0
C0
FE
FE
C0
C0
C0
C0
FF
FF
ENDCHAR
STARTCHAR 04D7
ENCODING 1239
SWIDTH 514 0
DWIDTH 10 0
BBX 9 15 1 0
BITMAP
6100
6300
3E00
0000
0C00
3F00
6300
C180
C180
FF80
C000
C000
4000
7180
3F80
ENDCHAR
STARTCHAR 04D8
ENCODING 1240
SWIDTH 720 0
DWIDTH 14 0
BBX 12 14 1 0
BITMAP
7F80
73C0
0060
0020
0030
0030
FFF0
FFF0
C030
C030
4030
6060
39C0
1F80
ENDCHAR
STARTCHAR 04D9
ENCODING 1241
SWIDTH 514 0
DWIDTH 10 0
BBX 9 11 1 0
BITMAP
3800
FE00
8300
0180
0180
FF80
FF80
C180
C100
6300
3E00
ENDCHAR
STARTCHAR 04DA
ENCODING 1242
SWIDTH 720 0
DWIDTH 14 0
BBX 12 18 1 0
BITMAP
1100
1900
0000
0000
7F80
73C0
0060
0020
0030
0030
FFF0
FFF0
C030
C030
4030
6060
39C0
1F80
ENDCHAR
STARTCHAR 04DB
ENCODING 1243
SWIDTH 514 0
DWIDTH 10 0
BBX 9 14 1 0
BITMAP
2600
2200
0000
3800
FE00
8300
0180
0180
FF80
FF80
C180
C100
6300
3E00
ENDCHAR
STARTCHAR 04DC
ENCODING 1244
SWIDTH 822 0
DWIDTH 16 0
BBX 16 18 0 0
BITMAP
0220
0260
0000
0000
4183
6186
3184
198C
0D98
05B0
07E0
07B0
0DB0
0D98
198C
3186
6186
C183
ENDCHAR
STARTCHAR 04DD
ENCODING 1245
SWIDTH 720 0
DWIDTH 14 0
BBX 14 14 0 0
BITMAP
04C0
04C0
0000
0000
630C
3318
1B30
0F60
07C0
0F60
1B20
3330
6318
C30C
ENDCHAR
STARTCHAR 04DE
ENCODING 1246
SWIDTH 565 0
DWIDTH 11 0
BBX 9 18 1 0
BITMAP
2200
3600
0000
0000
7E00
E300
0180
0180
0180
0300
7E00
7F00
0180
0180
0080
0180
C380
FE00
ENDCHAR
STARTCHAR 04DF
ENCODING 1247
SWIDTH 462 0
DWIDTH 9 0
BBX 8 14 1 0
BITMAP
6C
44
00
38
FE
06
02
06
38
06
03
03
86
FC
ENDCHAR
STARTCHAR 04E0
ENCODING 1248
SWIDTH 565 0
DWIDTH 11 0
BBX 9 14 1 0
BITMAP
FF80
FF80
0300
0600
0C00
1800
3E00
3F00
0180
0180
0180
0180
C300
FE00
ENDCHAR
STARTCHAR 04E1
ENCODING 1249
SWIDTH 462 0
DWIDTH 9 0
BBX 9 15 0 -5
BITMAP
7F80
0300
0600
0C00
1800
3000
3E00
0300
0180
0180
0180
0180
0300
FE00
3800
ENDCHAR
STARTCHAR 04E2
ENCODING 1250
SWIDTH 720 0
DWIDTH 14 0
BBX 11 17 2 0
BITMAP
1F80
1F80
0000
C060
C0E0
C0A0
C1A0
C360
C260
C660
CC60
C860
D860
B060
B060
E060
C060
ENDCHAR
STARTCHAR 04E3
ENCODING 1251
SWIDTH 617 0
DWIDTH 12 0
BBX 9 13 2 0
BITMAP
3E00
0000
0000
8380
8380
8780
8D80
8980
9980
B180
A180
E180
C180
ENDCHAR
STARTCHAR 04E4
ENCODING 1252
SWIDTH 720 0
DWIDTH 14 0
BBX 11 18 2 0
BITMAP
1100
1900
0000
0000
C060
C0E0
C0A0
C1A0
C360
C260
C660
CC60
C860
D860
B060
B060
E060
C060
ENDCHAR
STARTCHAR 04E5
ENCODING 1253
SWIDTH 617 0
DWIDTH 12 0
BBX 9 14 2 0
BITMAP
2600
2200
0000
0000
8380
8380
8780
8D80
8980
9980
B180
A180
E180
C180
ENDCHAR
STARTCHAR 04E6
ENCODING 1254
SWIDTH 771 0
DWIDTH 15 0
BBX 13 18 1 0
BITMAP
0880
0C80
0000
0000
0FC0
3CE0
7030
6030
C018
C018
C018
C018
C018
C018
6030
6030
38E0
1FC0
ENDCHAR
STARTCHAR 04E7
ENCODING 1255
SWIDTH 565 0
DWIDTH 11 0
BBX 10 14 1 0
BITMAP
3300
3200
0000
0C00
3F00
6180
C080
C0C0
C0C0
C0C0
C0C0
4180
6380
3F00
ENDCHAR
STARTCHAR 04E8
ENCODING 1256
SWIDTH 771 0
DWIDTH 15 0
BBX 13 14 1 0
BITMAP
0FC0
3CE0
7030
6030
C018
C018
FFF8
FFF8
C018
C018
6030
6030
38E0
1FC0
ENDCHAR
STARTCHAR 04E9
ENCODING 1257
SWIDTH 565 0
DWIDTH 11 0
BBX 10 11 1 0
BITMAP
0C00
3F00
6180
C080
C0C0
FFC0
C0C0
C0C0
4180
6380
3F00
ENDCHAR
STARTCHAR 04EA
ENCODING 1258
SWIDTH 771 0
DWIDTH 15 0
BBX 13 17 1 0
BITMAP
0C80
0080
0000
0FC0
3CE0
7030
6030
C018
C018
FFF8
FFF8
C018
C018
6030
6030
38E0
1FC0
ENDCHAR
STARTCHAR 04EB
ENCODING 1259
SWIDTH 565 0
DWIDTH 11 0
BBX 10 14 1 0
BITMAP
3300
3200
0000
0C00
3F00
6180
C080
C0C0
FFC0
C0C0
C0C0
4180
6380
3F00
ENDCHAR
STARTCHAR 04EC
ENCODING 1260
SWIDTH 617 0
DWIDTH 12 0
BBX 10 18 1 0
BITMAP
4400
6400
0000
0000
FE00
EF00
0180
0180
00C0
00C0
7FC0
7FC0
00C0
00C0
0080
0180
8700
FE00
ENDCHAR
STARTCHAR 04ED
ENCODING 1261
SWIDTH 462 0
DWIDTH 9 0
BBX 8 14 1 0
BITMAP
CC
48
00
70
FC
06
06
02
7F
03
02
06
8C
F8
ENDCHAR
STARTCHAR 04EE
ENCODING 1262
SWIDTH 617 0
DWIDTH 12 0
BBX 12 17 0 0
BITMAP
1F80
1F80
0000
C030
6030
6060
3060
30C0
18C0
0880
0D80
0500
0700
0200
0600
5C00
7800
ENDCHAR
STARTCHAR 04EF
ENCODING 1263
SWIDTH 462 0
DWIDTH 9 0
BBX 10 18 0 -5
BITMAP
3F00
0000
0000
C0C0
6180
6180
2100
3300
3300
1200
1E00
0E00
0C00
0C00
0800
1800
F000
E000
ENDCHAR
STARTCHAR 04F0
ENCODING 1264
SWIDTH 617 0
DWIDTH 12 0
BBX 12 18 0 0
BITMAP
0880
0980
0000
0000
C030
6030
6060
3060
30C0
18C0
0880
0D80
0500
0700
0200
0600
5C00
7800
ENDCHAR
STARTCHAR 04F1
ENCODING 1265
SWIDTH 462 0
DWIDTH 9 0
BBX 10 19 0 -5
BITMAP
3300
3200
0000
0000
C0C0
6180
6180
2100
3300
3300
1200
1E00
0E00
0C00
0C00
0800
1800
F000
E000
ENDCHAR
STARTCHAR 04F2
ENCODING 1266
SWIDTH 617 0
DWIDTH 12 0
BBX 12 18 0 0
BITMAP
0640
04C0
0980
0000
C030
6030
6060
3060
30C0
18C0
0880
0D80
0500
0700
0200
0600
5C00
7800
ENDCHAR
STARTCHAR 04F3
ENCODING 1267
SWIDTH 462 0
DWIDTH 9 0
BBX 10 20 0 -5
BITMAP
0D80
1980
1300
0000
0000
C0C0
6180
6180
2100
3300
3300
1200
1E00
0E00
0C00
0C00
0800
1800
F000
E000
ENDCHAR
STARTCHAR 04F4
ENCODING 1268
SWIDTH 668 0
DWIDTH 13 0
BBX 10 18 2 0
BITMAP
2200
3600
0000
0000
80C0
80C0
80C0
80C0
80C0
80C0
80C0
E3C0
7EC0
00C0
00C0
00C0
00C0
00C0
ENDCHAR
STARTCHAR 04F5
ENCODING 1269
SWIDTH 565 0
DWIDTH 11 0
BBX 9 14 1 0
BITMAP
3300
3200
0000
0000
C080
C080
C080
C080
4180
7E80
1880
0080
0080
0080
ENDCHAR
STARTCHAR 04F6
ENCODING 1270
SWIDTH 514 0
DWIDTH 10 0
BBX 8 18 2 -4
BITMAP
FF
FF
C0
C0
C0
C0
C0
C0
C0
C0
C0
C0
E0
E0
20
20
20
20
ENDCHAR
STARTCHAR 04F7
ENCODING 1271
SWIDTH 411 0
DWIDTH 8 0
BBX 6 14 2 -4
BITMAP
FC
80
80
80
80
80
80
80
80
E0
60
60
60
60
ENDCHAR
STARTCHAR 04F8
ENCODING 1272
SWIDTH 822 0
DWIDTH 16 0
BBX 13 18 2 0
BITMAP
0880
0980
0000
0000
C018
C018
C018
C018
C018
C018
FE18
FF18
C198
C198
C198
C198
CF18
FE18
ENDCHAR
STARTCHAR 04F9
ENCODING 1273
SWIDTH 771 0
DWIDTH 15 0
BBX 11 14 2 0
BITMAP
1B00
1100
0000
0000
8020
8020
8020
8020
FE20
8720
8320
8320
8720
FE20
ENDCHAR
STARTCHAR 04FA
ENCODING 1274
SWIDTH 514 0
DWIDTH 10 0
BBX 10 18 0 -4
BITMAP
3FC0
3FC0
3000
3000
3000
3000
FF00
FF00
3000
3000
3000
3000
3800
3800
0800
0800
3800
3000
ENDCHAR
STARTCHAR 04FB
ENCODING 1275
SWIDTH 411 0
DWIDTH 8 0
BBX 8 14 0 -4
BITMAP
3F
20
20
20
FE
20
20
20
20
38
18
18
78
70
ENDCHAR
STARTCHAR 04FC
ENCODING 1276
SWIDTH 617 0
DWIDTH 12 0
BBX 12 18 0 -4
BITMAP
6060
60C0
3080
1180
1B00
0E00
0600
0E00
0B00
1900
3180
20C0
60F0
C070
0030
0030
00F0
00E0
ENDCHAR
STARTCHAR 04FD
ENCODING 1277
SWIDTH 514 0
DWIDTH 10 0
BBX 9 14 1 -4
BITMAP
C300
6200
2600
3C00
1800
1C00
3400
6600
C300
C180
0080
0080
0380
0300
ENDCHAR
STARTCHAR 04FE
ENCODING 1278
SWIDTH 565 0
DWIDTH 11 0
BBX 11 14 0 0
BITMAP
6060
60C0
3080
1180
1B00
0E00
7FC0
0E00
0B00
1900
3180
20C0
60C0
C060
ENDCHAR
STARTCHAR 04FF
ENCODING 1279
SWIDTH 514 0
DWIDTH 10 0
BBX 9 10 1 0
BITMAP
C300
6200
2600
3C00
FF00
1C00
3400
6600
C300
C180
ENDCHAR
STARTCHAR 0500
ENCODING 1280
SWIDTH 565 0
DWIDTH 11 0
BBX 9 14 1 0
BITMAP
0080
0080
0080
0080
0080
0080
3F80
7F80
6080
C080
C080
C080
7F80
3F80
ENDCHAR
STARTCHAR 0501
ENCODING 1281
SWIDTH 565 0
DWIDTH 11 0
BBX 9 15 1 0
BITMAP
0080
0080
0080
0080
1880
7E80
6180
C180
C080
C080
C080
C180
C180
6380
3E80
ENDCHAR
STARTCHAR 0502
ENCODING 1282
SWIDTH 874 0
DWIDTH 17 0
BBX 15 14 1 0
BITMAP
0180
0180
0180
0180
0180
0180
1F86
7F86
6186
C186
C186
C186
63CC
3E78
ENDCHAR
STARTCHAR 0503
ENCODING 1283
SWIDTH 874 0
DWIDTH 17 0
BBX 15 15 1 0
BITMAP
0180
0180
0180
0180
1980
7F80
6380
C180
C186
C186
C186
C186
C186
63CE
3E7C
ENDCHAR
STARTCHAR 0504
ENCODING 1284
SWIDTH 874 0
DWIDTH 17 0
BBX 15 14 1 0
BITMAP
7E00
E700
0300
0180
0100
0300
7C06
7E06
0306
0186
0186
0186
01CC
00FC
ENDCHAR
STARTCHAR 0505
ENCODING 1285
SWIDTH 771 0
DWIDTH 15 0
BBX 13 11 1 0
BITMAP
3000
FC00
0600
0600
0618
7818
0E18
0218
0218
0318
01F0
ENDCHAR
STARTCHAR 0506
ENCODING 1286
SWIDTH 617 0
DWIDTH 12 0
BBX 11 18 1 -4
BITMAP
7E00
E700
0180
0180
0180
0300
7C00
7F00
0180
0180
0180
0180
01E0
01E0
0060
0060
0060
0060
ENDCHAR
STARTCHAR 0507
ENCODING 1287
SWIDTH 514 0
DWIDTH 10 0
BBX 9 15 1 -4
BITMAP
3000
FE00
0600
0200
0600
3800
0600
0200
0300
0300
0380
0180
0180
0180
0180
ENDCHAR
STARTCHAR 0508
ENCODING 1288
SWIDTH 977 0
DWIDTH 19 0
BBX 17 14 0 0
BITMAP
0FF000
0FF000
0C3000
083000
083000
083000
183080
183080
183080
183080
103080
303080
303980
E01F00
ENDCHAR
STARTCHAR 0509
ENCODING 1289
SWIDTH 822 0
DWIDTH 16 0
BBX 15 10 0 0
BITMAP
1F80
1880
1880
1886
1086
1086
3086
30C6
60C6
E07C
ENDCHAR
STARTCHAR 050A
ENCODING 1290
SWIDTH 977 0
DWIDTH 19 0
BBX 16 14 2 0
BITMAP
C0C0
C0C0
C0C0
C0C0
C0C0
C0C0
FFC3
FFC3
C0C3
C0C3
C0C3
C0C3
C067
C03E
ENDCHAR
STARTCHAR 050B
ENCODING 1291
SWIDTH 874 0
DWIDTH 17 0
BBX 14 10 2 0
BITMAP
8180
8180
8180
8184
FF84
8184
8184
818C
818C
80F8
ENDCHAR
STARTCHAR 050C
ENCODING 1292
SWIDTH 720 0
DWIDTH 14 0
BBX 13 14 1 0
BITMAP
0FE0
3CE0
7000
6000
4000
C000
C000
C1F8
C018
C018
6010
7030
38E0
0FC0
ENDCHAR
STARTCHAR 050D
ENCODING 1293
SWIDTH 617 0
DWIDTH 12 0
BBX 10 11 1 0
BITMAP
0E00
3F80
6000
C000
C000
C3C0
C3C0
C040
60C0
71C0
3F00
ENDCHAR
STARTCHAR 050E
ENCODING 1294
SWIDTH 668 0
DWIDTH 13 0
BBX 12 14 0 0
BITMAP
FFC0
FFC0
0C00
0C00
0C00
0C00
0C30
0C30
0C30
0C30
0C30
0C30
0670
03E0
ENDCHAR
STARTCHAR 050F
ENCODING 1295
SWIDTH 617 0
DWIDTH 12 0
BBX 11 10 0 0
BITMAP
FF80
0800
0800
0860
0860
0860
0860
0C60
0C60
07C0
ENDCHAR
STARTCHAR 0510
ENCODING 1296
SWIDTH 565 0
DWIDTH 11 0
BBX 10 14 1 0
BITMAP
3F00
73C0
6000
C000
4000
6000
1F00
7F00
E000
C000
C000
C000
70C0
3F80
ENDCHAR
STARTCHAR 0511
ENCODING 1297
SWIDTH 462 0
DWIDTH 9 0
BBX 8 11 1 0
BITMAP
1C
7F
C0
C0
60
3C
E0
C0
C0
E3
7F
ENDCHAR
STARTCHAR 0512
ENCODING 1298
SWIDTH 668 0
DWIDTH 13 0
BBX 13 18 0 -4
BITMAP
0FF0
0FF0
0C30
0C30
0830
0830
1830
1830
1830
1830
1030
3030
3038
E038
0008
0008
0038
0030
ENDCHAR
STARTCHAR 0513
ENCODING 1299
SWIDTH 565 0
DWIDTH 11 0
BBX 11 14 0 -4
BITMAP
1FC0
18C0
18C0
18C0
10C0
10C0
30C0
30C0
60C0
E0E0
0020
0020
00E0
00C0
ENDCHAR
STARTCHAR 0514
ENCODING 1300
SWIDTH 925 0
DWIDTH 18 0
BBX 18 14 0 0
BITMAP
0FC0C0
0FC180
0C6100
082300
083600
081C00
180C00
181C00
181600
183200
106300
304180
30C180
E180C0
ENDCHAR
STARTCHAR 0515
ENCODING 1301
SWIDTH 771 0
DWIDTH 15 0
BBX 15 10 0 0
BITMAP
1F86
198C
18D8
1870
1070
1070
30D8
308C
618C
E306
ENDCHAR
STARTCHAR 0516
ENCODING 1302
SWIDTH 771 0
DWIDTH 15 0
BBX 13 14 2 0
BITMAP
FC18
FF10
C330
C1E0
C1C0
C1C0
C380
FE80
F8C0
C060
C060
C030
C018
C018
ENDCHAR
STARTCHAR 0517
ENCODING 1303
SWIDTH 771 0
DWIDTH 15 0
BBX 13 16 2 -5
BITMAP
0C00
BE18
C330
C1E0
81E0
81C0
81C0
C1E0
C130
E310
BE18
8000
8000
8000
8000
8000
ENDCHAR
STARTCHAR 0518
ENCODING 1304
SWIDTH 874 0
DWIDTH 17 0
BBX 15 14 1 0
BITMAP
1FFE
7FFE
6080
C080
C080
6080
70FE
3FFE
1880
3080
3080
6080
C0FE
C0FE
ENDCHAR
STARTCHAR 0519
ENCODING 1305
SWIDTH 874 0
DWIDTH 17 0
BBX 15 11 1 0
BITMAP
0030
7FFC
C386
C306
C306
FFFE
3F00
3100
6180
C1C6
C07E
ENDCHAR
STARTCHAR 051A
ENCODING 1306
SWIDTH 771 0
DWIDTH 15 0
BBX 13 17 1 -3
BITMAP
0FC0
3CE0
7030
6030
C018
C018
C018
C018
C018
C018
6030
6030
38E0
1FC0
01C0
00E0
0070
ENDCHAR
STARTCHAR 051B
ENCODING 1307
SWIDTH 565 0
DWIDTH 11 0
BBX 9 16 1 -5
BITMAP
1800
3E80
6180
C180
C080
C080
C080
C180
C180
6380
3E80
0080
0080
0080
0080
0080
ENDCHAR
STARTCHAR 051C
ENCODING 1308
SWIDTH 925 0
DWIDTH 18 0
BBX 18 14 0 0
BITMAP
C0C0C0
40C080
61E180
61E180
612180
232100
333300
333300
321300
161A00
1E1E00
1C0E00
0C0E00
0C0C00
ENDCHAR
STARTCHAR 051D
ENCODING 1309
SWIDTH 771 0
DWIDTH 15 0
BBX 15 10 0 0
BITMAP
C386
4386
6284
66CC
26CC
3448
3468
3C78
1838
1830
ENDCHAR
STARTCHAR 051E
ENCODING 1310
SWIDTH 617 0
DWIDTH 12 0
BBX 10 14 2 0
BITMAP
C180
DD80
CF00
C700
CD80
D800
F000
F000
D800
CC00
C600
C300
C180
C1C0
ENDCHAR
STARTCHAR 051F
ENCODING 1311
SWIDTH 514 0
DWIDTH 10 0
BBX 8 10 2 0
BITMAP
96
8C
9C
B2
E0
B0
98
8C
86
83
ENDCHAR
STARTCHAR 0520
ENCODING 1312
SWIDTH 977 0
DWIDTH 19 0
BBX 19 19 0 -5
BITMAP
0FE000
0FE000
0C6000
0C6000
086000
086000
187C00
187F80
1861C0
1860C0
106060
306060
306060
E06060
000060
000040
0000C0
001F80
001F00
ENDCHAR
STARTCHAR 0521
ENCODING 1313
SWIDTH 771 0
DWIDTH 15 0
BBX 15 15 0 -5
BITMAP
1F80
1980
1980
1980
11F8
119C
3186
3186
6182
E182
0002
0006
0006
007C
0078
ENDCHAR
STARTCHAR 0522
ENCODING 1314
SWIDTH 1080 0
DWIDTH 21 0
BBX 18 19 2 -5
BITMAP
C06000
C06000
C06000
C06000
C06000
C06000
FFFC00
FFFF00
C06180
C060C0
C060C0
C06040
C06040
C06040
0000C0
0000C0
0001C0
001F80
001E00
ENDCHAR
STARTCHAR 0523
ENCODING 1315
SWIDTH 874 0
DWIDTH 17 0
BBX 14 15 2 -5
BITMAP
8300
8300
8300
8300
FFF0
8338
830C
830C
8304
8304
0004
000C
000C
00F8
00F0
ENDCHAR
STARTCHAR 0524
ENCODING 1316
SWIDTH 720 0
DWIDTH 14 0
BBX 12 18 2 -4
BITMAP
FFC0
FFC0
C040
C040
C040
C040
C040
C040
C040
C040
C040
C040
C070
C070
0030
0030
0030
0030
ENDCHAR
STARTCHAR 0525
ENCODING 1317
SWIDTH 617 0
DWIDTH 12 0
BBX 10 14 2 -4
BITMAP
FF00
8100
8100
8100
8100
8100
8100
8100
8100
81C0
00C0
00C0
00C0
00C0
ENDCHAR
STARTCHAR 0526
ENCODING 1318
SWIDTH 720 0
DWIDTH 14 0
BBX 12 18 2 -4
BITMAP
C000
C000
C000
C000
C000
DF00
FBC0
C0C0
C0C0
C0C0
C0C0
C0C0
C0F0
C0F0
0030
0030
0030
0030
ENDCHAR
STARTCHAR 0527
ENCODING 1319
SWIDTH 617 0
DWIDTH 12 0
BBX 10 19 2 -4
BITMAP
8000
8000
8000
8000
8C00
BF00
C300
C100
8100
8100
8100
8100
8100
8100
81C0
00C0
00C0
00C0
00C0
ENDCHAR
STARTCHAR 0528
ENCODING 1320
SWIDTH 720 0
DWIDTH 14 0
BBX 12 18 0 -4
BITMAP
3010
3010
3010
3010
3010
3010
3FF0
3FF0
3010
3010
3010
3010
3010
3010
3000
3000
E000
E000
ENDCHAR
STARTCHAR 0529
ENCODING 1321
SWIDTH 617 0
DWIDTH 12 0
BBX 12 15 -1 -5
BITMAP
1030
1030
1030
1030
1FF0
1030
1030
1030
1030
1030
1000
1000
3000
F000
E000
ENDCHAR
STARTCHAR 052A
ENCODING 1322
SWIDTH 1388 0
DWIDTH 27 0
BBX 27 18 0 -4
BITMAP
07E06060
07E060C0
04606180
0C606300
0C606600
0C606C00
087FF800
187FFC00
18606C00
10606600
30606300
30606180
FFF860C0
FFF86060
C0180000
C0180000
C0180000
C0180000
ENDCHAR
STARTCHAR 052B
ENCODING 1323
SWIDTH 1131 0
DWIDTH 22 0
BBX 22 14 0 -4
BITMAP
0F831C
088330
088320
188360
18FFC0
1083C0
308360
308330
608318
FFE30C
C06000
C06000
C06000
C06000
ENDCHAR
STARTCHAR 052C
ENCODING 1324
SWIDTH 668 0
DWIDTH 13 0
BBX 13 18 0 -4
BITMAP
63E0
63E0
6220
6620
6620
6620
6420
7CE0
3FA0
0820
1820
1820
FFF8
FFF8
C018
C018
C018
C018
ENDCHAR
STARTCHAR 052D
ENCODING 1325
SWIDTH 565 0
DWIDTH 11 0
BBX 11 14 0 -4
BITMAP
4FC0
4CC0
4CC0
48C0
69C0
7FC0
18C0
10C0
30C0
FFE0
C020
C020
C020
C020
ENDCHAR
STARTCHAR 052E
ENCODING 1326
SWIDTH 668 0
DWIDTH 13 0
BBX 13 18 0 -4
BITMAP
0FF0
0FF0
0C30
0C30
0830
0830
1830
1830
1830
1830
1030
3030
3038
E038
0008
0008
0008
0008
ENDCHAR
STARTCHAR 052F
ENCODING 1327
SWIDTH 565 0
DWIDTH 11 0
BBX 11 14 0 -4
BITMAP
1FC0
18C0
18C0
18C0
10C0
10C0
30C0
30C0
60C0
E0E0
0060
0060
0060
0060
ENDCHAR
STARTCHAR 0900
ENCODING 2304
SWIDTH 0 0
DWIDTH 0 0
BBX 8 4 -7 13
BITMAP
3E
63
D9
48
ENDCHAR
STARTCHAR 0901
ENCODING 2305
SWIDTH 0 0
DWIDTH 0 0
BBX 8 4 -7 13
BITMAP
D9
43
7E
1C
ENDCHAR
STARTCHAR 0902
ENCODING 2306
SWIDTH 0 0
DWIDTH 0 0
BBX 1 2 -3 14
BITMAP
80
80
ENDCHAR
STARTCHAR 0903
ENCODING 2307
SWIDTH 257 0
DWIDTH 5 0
BBX 2 9 2 1
BITMAP
80
C0
80
00
00
00
80
C0
C0
ENDCHAR
STARTCHAR 0904
ENCODING 2308
SWIDTH 720 0
DWIDTH 14 0
BBX 14 17 1 0
BITMAP
0400
07C0
01E0
0030
0030
3E7C
2310
0310
0310
0E10
87F0
C3D0
4110
6310
3F10
0010
0010
ENDCHAR
STARTCHAR 0905
ENCODING 2309
SWIDTH 720 0
DWIDTH 14 0
BBX 14 12 1 0
BITMAP
3E7C
2310
0310
0310
0E10
87F0
C3D0
4110
6310
3F10
0010
0010
ENDCHAR
STARTCHAR 0906
ENCODING 2310
SWIDTH 977 0
DWIDTH 19 0
BBX 19 12 1 0
BITMAP
3E7FE0
231080
031080
031080
0E1080
87F080
C3D080
411080
631080
3F1080
001080
001080
ENDCHAR
STARTCHAR 0907
ENCODING 2311
SWIDTH 462 0
DWIDTH 9 0
BBX 10 14 0 -2
BITMAP
FFC0
0300
0300
3F00
6000
6000
6E00
3F00
0180
0180
7300
7E00
0E00
0300
ENDCHAR
STARTCHAR 0908
ENCODING 2312
SWIDTH 462 0
DWIDTH 9 0
BBX 10 19 0 -2
BITMAP
07C0
0600
0400
0400
0600
FFC0
0300
0300
3F00
6000
6000
6E00
3F00
0180
0180
7300
7E00
0E00
0300
ENDCHAR
STARTCHAR 0909
ENCODING 2313
SWIDTH 514 0
DWIDTH 10 0
BBX 11 12 0 0
BITMAP
FFE0
0180
0080
0080
0180
0700
4180
6080
20C0
30C0
1D80
0F00
ENDCHAR
STARTCHAR 090A
ENCODING 2314
SWIDTH 720 0
DWIDTH 14 0
BBX 15 12 0 0
BITMAP
FFFE
0180
0080
0080
0180
0700
41F8
60CC
20CC
30CC
1D8C
0F08
ENDCHAR
STARTCHAR 090B
ENCODING 2315
SWIDTH 822 0
DWIDTH 16 0
BBX 17 13 0 -1
BITMAP
FFFF80
018000
018000
798800
7D9C00
07BC00
03F800
078C00
1D9C00
319000
219000
019F00
000600
ENDCHAR
STARTCHAR 090C
ENCODING 2316
SWIDTH 668 0
DWIDTH 13 0
BBX 14 14 0 -2
BITMAP
FFFC
0060
0060
0060
3DF0
6718
4218
6618
6010
3070
18C0
0CC0
00C4
007C
ENDCHAR
STARTCHAR 090D
ENCODING 2317
SWIDTH 514 0
DWIDTH 10 0
BBX 11 21 0 -4
BITMAP
3040
10C0
1F80
0700
0000
FFE0
2080
2080
2080
2080
2080
2180
2300
3000
1C00
0700
0180
0080
0080
0180
0080
ENDCHAR
STARTCHAR 090E
ENCODING 2318
SWIDTH 514 0
DWIDTH 10 0
BBX 11 21 0 -4
BITMAP
2000
3E00
0F00
0180
0080
FFE0
2080
2080
2080
2080
2080
2180
2300
3000
1C00
0700
0180
0080
0080
0180
0080
ENDCHAR
STARTCHAR 090F
ENCODING 2319
SWIDTH 514 0
DWIDTH 10 0
BBX 11 16 0 -4
BITMAP
FFE0
2080
2080
2080
2080
2080
2180
2300
3000
1C00
0700
0180
0080
0080
0180
0080
ENDCHAR
STARTCHAR 0910
ENCODING 2320
SWIDTH 514 0
DWIDTH 10 0
BBX 11 21 0 -4
BITMAP
1E00
0300
0100
0180
0080
FFE0
2080
2080
2080
2080
2080
2180
2300
3000
1C00
0700
0180
0080
0080
0180
0080
ENDCHAR
STARTCHAR 0911
ENCODING 2321
SWIDTH 977 0
DWIDTH 19 0
BBX 20 17 1 0
BITMAP
000830
000C60
0007E0
000380
000000
3E7FE0
231080
031080
031080
0E1080
87F080
C3D080
411080
631080
3F1080
001080
001080
ENDCHAR
STARTCHAR 0912
ENCODING 2322
SWIDTH 977 0
DWIDTH 19 0
BBX 19 17 1 0
BITMAP
002000
003E00
000F00
000180
000180
3E7FE0
231080
031080
031080
0E1080
87F080
C3D080
411080
631080
3F1080
001080
001080
ENDCHAR
STARTCHAR 0913
ENCODING 2323
SWIDTH 977 0
DWIDTH 19 0
BBX 19 17 1 0
BITMAP
001E00
000300
000100
000180
000180
3E7FE0
231080
031080
031080
0E1080
87F080
C3D080
411080
631080
3F1080
001080
001080
ENDCHAR
STARTCHAR 0914
ENCODING 2324
SWIDTH 977 0
DWIDTH 19 0
BBX 19 17 1 0
BITMAP
001E00
000300
001D00
001380
000180
3E7FE0
231080
031080
031080
0E1080
87F080
C3D080
411080
631080
3F1080
001080
001080
ENDCHAR
STARTCHAR 0915
ENCODING 2325
SWIDTH 720 0
DWIDTH 14 0
BBX 15 12 0 0
BITMAP
FFFE
0180
0180
1F80
71B0
61F8
418C
618C
3F8C
1D8C
0198
0180
ENDCHAR
STARTCHAR 0916
ENCODING 2326
SWIDTH 771 0
DWIDTH 15 0
BBX 16 12 0 0
BITMAP
FFFF
0C04
0C04
0CF4
6D84
7984
7184
31FC
1874
0C04
07FC
01F4
ENDCHAR
STARTCHAR 0917
ENCODING 2327
SWIDTH 514 0
DWIDTH 10 0
BBX 11 12 0 0
BITMAP
FFE0
3080
3080
3080
3080
7080
7080
7080
0080
0080
0080
0080
ENDCHAR
STARTCHAR 0918
ENCODING 2328
SWIDTH 565 0
DWIDTH 11 0
BBX 12 12 0 0
BITMAP
FFF0
60C0
40C0
60C0
3CC0
30C0
20C0
20C0
3FC0
0EC0
00C0
00C0
ENDCHAR
STARTCHAR 0919
ENCODING 2329
SWIDTH 617 0
DWIDTH 12 0
BBX 13 12 0 0
BITMAP
FFF8
0080
0080
1F80
1820
1030
1F00
0FC0
4040
6040
3DC0
0F80
ENDCHAR
STARTCHAR 091A
ENCODING 2330
SWIDTH 617 0
DWIDTH 12 0
BBX 13 12 0 0
BITMAP
FFF8
0060
0060
7F60
7E60
1860
1060
10E0
1FE0
0760
0060
0060
ENDCHAR
STARTCHAR 091B
ENCODING 2331
SWIDTH 668 0
DWIDTH 13 0
BBX 14 12 0 0
BITMAP
FFFC
0040
0040
7DF0
6110
4118
7D98
1CD0
3030
3060
39C0
1F80
ENDCHAR
STARTCHAR 091C
ENCODING 2332
SWIDTH 720 0
DWIDTH 14 0
BBX 15 12 0 0
BITMAP
FFFE
0018
0018
03F8
47F8
6318
2198
3198
1998
0F18
0018
0018
ENDCHAR
STARTCHAR 091D
ENCODING 2333
SWIDTH 720 0
DWIDTH 14 0
BBX 15 14 0 -2
BITMAP
FFFE
0318
0318
3F18
6018
6018
6E18
3FF8
0198
0198
7318
7E18
0E00
0300
ENDCHAR
STARTCHAR 091E
ENCODING 2334
SWIDTH 720 0
DWIDTH 14 0
BBX 15 12 0 0
BITMAP
FFFE
0018
0018
0618
0F98
4098
60F8
3098
1F98
0E18
0018
0018
ENDCHAR
STARTCHAR 091F
ENCODING 2335
SWIDTH 462 0
DWIDTH 9 0
BBX 10 12 0 0
BITMAP
FFC0
0200
0200
0200
1E00
3000
6000
4000
6000
6000
3B80
1F00
ENDCHAR
STARTCHAR 0920
ENCODING 2336
SWIDTH 565 0
DWIDTH 11 0
BBX 12 12 0 0
BITMAP
FFF0
0200
0200
0200
1F00
31C0
60C0
4040
6040
6040
39C0
1F00
ENDCHAR
STARTCHAR 0921
ENCODING 2337
SWIDTH 565 0
DWIDTH 11 0
BBX 12 12 0 0
BITMAP
FFF0
0080
0080
1F80
1800
1000
1F00
0FC0
4040
6040
3DC0
0F80
ENDCHAR
STARTCHAR 0922
ENCODING 2338
SWIDTH 514 0
DWIDTH 10 0
BBX 11 12 0 0
BITMAP
FFE0
0200
0200
0E00
3E00
6000
6100
47C0
6440
6440
3DC0
1F00
ENDCHAR
STARTCHAR 0923
ENCODING 2339
SWIDTH 720 0
DWIDTH 14 0
BBX 14 12 0 0
BITMAP
FFFC
2110
2110
2110
2110
2110
2110
3310
1E10
0010
0010
0010
ENDCHAR
STARTCHAR 0924
ENCODING 2340
SWIDTH 565 0
DWIDTH 11 0
BBX 11 12 0 0
BITMAP
FFE0
0080
0080
0080
1F80
3F80
6080
4080
6080
2080
3080
1880
ENDCHAR
STARTCHAR 0925
ENCODING 2341
SWIDTH 617 0
DWIDTH 12 0
BBX 12 12 1 0
BITMAP
F9F0
88C0
8CC0
E8C0
18C0
30C0
60C0
61C0
3FC0
00C0
00C0
00C0
ENDCHAR
STARTCHAR 0926
ENCODING 2342
SWIDTH 514 0
DWIDTH 10 0
BBX 10 13 0 -1
BITMAP
FFC0
0200
0200
1E00
3E00
6000
4000
6100
6380
3F80
0F00
0180
0080
ENDCHAR
STARTCHAR 0927
ENCODING 2343
SWIDTH 565 0
DWIDTH 11 0
BBX 11 12 1 0
BITMAP
7BE0
D880
9880
C080
7880
3880
6080
6180
7380
3E80
0080
0080
ENDCHAR
STARTCHAR 0928
ENCODING 2344
SWIDTH 514 0
DWIDTH 10 0
BBX 11 12 0 0
BITMAP
FFE0
0180
0180
0180
0180
7F80
7180
3180
0180
0180
0180
0180
ENDCHAR
STARTCHAR 0929
ENCODING 2345
SWIDTH 514 0
DWIDTH 10 0
BBX 11 12 0 0
BITMAP
FFE0
0180
0180
0180
0180
7F80
7180
3180
0180
0180
1180
3980
ENDCHAR
STARTCHAR 092A
ENCODING 2346
SWIDTH 565 0
DWIDTH 11 0
BBX 11 12 0 0
BITMAP
FFE0
2080
2080
2080
2080
2080
2080
3380
1E80
0080
0080
0080
ENDCHAR
STARTCHAR 092B
ENCODING 2347
SWIDTH 720 0
DWIDTH 14 0
BBX 15 12 0 0
BITMAP
FFFE
2180
2180
2180
21B0
21FC
218C
3384
1F8C
018C
0188
0180
ENDCHAR
STARTCHAR 092C
ENCODING 2348
SWIDTH 565 0
DWIDTH 11 0
BBX 11 12 0 0
BITMAP
FFE0
0080
0080
1E80
7880
6880
4480
6780
3F80
1C80
0080
0080
ENDCHAR
STARTCHAR 092D
ENCODING 2349
SWIDTH 668 0
DWIDTH 13 0
BBX 13 12 1 0
BITMAP
F9F8
9860
8860
E860
0860
0860
3FE0
3860
1860
0060
0060
0060
ENDCHAR
STARTCHAR 092E
ENCODING 2350
SWIDTH 565 0
DWIDTH 11 0
BBX 12 12 0 0
BITMAP
FFF0
30C0
30C0
30C0
30C0
30C0
7FC0
70C0
30C0
00C0
00C0
00C0
ENDCHAR
STARTCHAR 092F
ENCODING 2351
SWIDTH 565 0
DWIDTH 11 0
BBX 12 12 0 0
BITMAP
FFF0
10C0
18C0
18C0
30C0
70C0
60C0
21C0
3FC0
00C0
00C0
00C0
ENDCHAR
STARTCHAR 0930
ENCODING 2352
SWIDTH 360 0
DWIDTH 7 0
BBX 8 12 0 0
BITMAP
FF
04
06
06
6C
7C
70
30
18
0C
06
02
ENDCHAR
STARTCHAR 0931
ENCODING 2353
SWIDTH 360 0
DWIDTH 7 0
BBX 8 12 0 0
BITMAP
FF
04
06
06
6C
7C
70
30
18
0C
66
62
ENDCHAR
STARTCHAR 0932
ENCODING 2354
SWIDTH 668 0
DWIDTH 13 0
BBX 13 12 0 0
BITMAP
FFF8
0020
0020
0020
3DE0
6720
4220
6620
6020
3020
1820
0C20
ENDCHAR
STARTCHAR 0933
ENCODING 2355
SWIDTH 720 0
DWIDTH 14 0
BBX 15 11 0 1
BITMAP
FFFE
0030
0030
0830
3EF8
638C
610C
430C
630C
3FF8
1C70
ENDCHAR
STARTCHAR 0934
ENCODING 2356
SWIDTH 720 0
DWIDTH 14 0
BBX 15 15 0 -3
BITMAP
FFFE
0030
0030
0830
3EF8
638C
610C
430C
630C
3FF8
1C70
0000
0000
1800
0800
ENDCHAR
STARTCHAR 0935
ENCODING 2357
SWIDTH 514 0
DWIDTH 10 0
BBX 11 12 0 0
BITMAP
FFE0
0080
0080
1E80
7280
6080
4080
6180
3F80
1C80
0080
0080
ENDCHAR
STARTCHAR 0936
ENCODING 2358
SWIDTH 668 0
DWIDTH 13 0
BBX 13 12 1 0
BITMAP
79F8
CC40
C440
7440
3440
0C40
F840
F040
1840
0C40
0640
0640
ENDCHAR
STARTCHAR 0937
ENCODING 2359
SWIDTH 565 0
DWIDTH 11 0
BBX 12 12 0 0
BITMAP
FFF0
30C0
38C0
2CC0
24C0
22C0
23C0
33C0
1FC0
00C0
00C0
00C0
ENDCHAR
STARTCHAR 0938
ENCODING 2360
SWIDTH 668 0
DWIDTH 13 0
BBX 13 12 0 0
BITMAP
FFF8
0C20
0C20
0C20
6C20
7860
7FE0
3020
1020
0820
0E20
0220
ENDCHAR
STARTCHAR 0939
ENCODING 2361
SWIDTH 514 0
DWIDTH 10 0
BBX 11 15 0 -3
BITMAP
FFE0
0180
0180
3F80
6000
6000
3F00
3F80
6080
6080
6180
2100
3000
1C00
0800
ENDCHAR
STARTCHAR 093A
ENCODING 2362
SWIDTH 0 0
DWIDTH 0 0
BBX 1 4 -3 12
BITMAP
80
80
80
80
ENDCHAR
STARTCHAR 093B
ENCODING 2363
SWIDTH 257 0
DWIDTH 5 0
BBX 5 16 0 0
BITMAP
20
20
20
20
F8
20
20
20
20
20
20
20
20
20
20
20
ENDCHAR
STARTCHAR 093C
ENCODING 2364
SWIDTH 0 0
DWIDTH 0 0
BBX 3 3 -7 -4
BITMAP
40
E0
40
ENDCHAR
STARTCHAR 093D
ENCODING 2365
SWIDTH 462 0
DWIDTH 9 0
BBX 7 11 1 1
BITMAP
3E
60
60
20
38
0C
06
86
C2
66
3C
ENDCHAR
STARTCHAR 093E
ENCODING 2366
SWIDTH 257 0
DWIDTH 5 0
BBX 5 12 0 0
BITMAP
F8
20
20
20
20
20
20
20
20
20
20
20
ENDCHAR
STARTCHAR 093F
ENCODING 2367
SWIDTH 257 0
DWIDTH 5 0
BBX 13 17 0 0
BITMAP
3F80
60E0
6030
6018
6008
F800
2000
2000
2000
2000
2000
2000
2000
2000
2000
2000
2000
ENDCHAR
STARTCHAR 0940
ENCODING 2368
SWIDTH 257 0
DWIDTH 5 0
BBX 9 17 -4 0
BITMAP
F800
CC00
8400
8600
C200
0F80
0200
0200
0200
0200
0200
0200
0200
0200
0200
0200
0200
ENDCHAR
STARTCHAR 0941
ENCODING 2369
SWIDTH 0 0
DWIDTH 0 0
BBX 8 5 -8 -5
BITMAP
1F
81
C1
63
3E
ENDCHAR
STARTCHAR 0942
ENCODING 2370
SWIDTH 0 0
DWIDTH 0 0
BBX 9 5 -6 -5
BITMAP
FC00
8600
8300
8180
F800
ENDCHAR
STARTCHAR 0943
ENCODING 2371
SWIDTH 0 0
DWIDTH 0 0
BBX 6 5 -5 -5
BITMAP
60
C0
80
C8
7C
ENDCHAR
STARTCHAR 0944
ENCODING 2372
SWIDTH 0 0
DWIDTH 0 0
BBX 6 8 -5 -8
BITMAP
60
C0
80
F8
70
40
7C
38
ENDCHAR
STARTCHAR 0945
ENCODING 2373
SWIDTH 0 0
DWIDTH 0 0
BBX 8 4 -7 13
BITMAP
C1
43
7E
1C
ENDCHAR
STARTCHAR 0946
ENCODING 2374
SWIDTH 0 0
DWIDTH 0 0
BBX 7 5 -9 12
BITMAP
80
F8
3C
06
02
ENDCHAR
STARTCHAR 0947
ENCODING 2375
SWIDTH 0 0
DWIDTH 0 0
BBX 6 5 -8 12
BITMAP
F0
18
08
0C
04
ENDCHAR
STARTCHAR 0948
ENCODING 2376
SWIDTH 0 0
DWIDTH 0 0
BBX 6 5 -8 12
BITMAP
F0
18
E8
9C
0C
ENDCHAR
STARTCHAR 0949
ENCODING 2377
SWIDTH 257 0
DWIDTH 5 0
BBX 8 17 -2 0
BITMAP
83
C2
7E
38
00
3E
08
08
08
08
08
08
08
08
08
08
08
ENDCHAR
STARTCHAR 094A
ENCODING 2378
SWIDTH 257 0
DWIDTH 5 0
BBX 9 17 -4 0
BITMAP
C000
7800
3C00
0600
0200
0F80
0200
0200
0200
0200
0200
0200
0200
0200
0200
0200
0200
ENDCHAR
STARTCHAR 094B
ENCODING 2379
SWIDTH 257 0
DWIDTH 5 0
BBX 8 17 -3 0
BITMAP
F0
18
08
0C
04
1F
04
04
04
04
04
04
04
04
04
04
04
ENDCHAR
STARTCHAR 094C
ENCODING 2380
SWIDTH 257 0
DWIDTH 5 0
BBX 8 17 -3 0
BITMAP
F0
18
E8
9C
0C
1F
04
04
04
04
04
04
04
04
04
04
04
ENDCHAR
STARTCHAR 094D
ENCODING 2381
SWIDTH 0 0
DWIDTH 0 0
BBX 6 4 -3 -5
BITMAP
E0
30
08
0C
ENDCHAR
STARTCHAR 094E
ENCODING 2382
SWIDTH 257 0
DWIDTH 5 0
BBX 4 12 2 0
BITMAP
F0
C0
C0
C0
C0
C0
C0
C0
C0
C0
C0
C0
ENDCHAR
STARTCHAR 094F
ENCODING 2383
SWIDTH 257 0
DWIDTH 5 0
BBX 9 17 -4 0
BITMAP
1800
8E00
FB00
7D00
0500
0F80
0200
0200
0200
0200
0200
0200
0200
0200
0200
0200
0200
ENDCHAR
STARTCHAR 0950
ENCODING 2384
SWIDTH 874 0
DWIDTH 17 0
BBX 16 15 1 2
BITMAP
0048
026C
0318
01F0
0000
3E00
230C
033E
0323
0E63
87C3
C3A6
413E
6300
3F00
ENDCHAR
STARTCHAR 0951
ENCODING 2385
SWIDTH 0 0
DWIDTH 0 0
BBX 1 4 -3 13
BITMAP
80
80
80
80
ENDCHAR
STARTCHAR 0952
ENCODING 2386
SWIDTH 0 0
DWIDTH 0 0
BBX 6 2 -8 -3
BITMAP
FC
FC
ENDCHAR
STARTCHAR 0953
ENCODING 2387
SWIDTH 0 0
DWIDTH 0 0
BBX 3 4 -5 13
BITMAP
C0
40
60
20
ENDCHAR
STARTCHAR 0954
ENCODING 2388
SWIDTH 0 0
DWIDTH 0 0
BBX 3 4 -3 13
BITMAP
60
C0
C0
80
ENDCHAR
STARTCHAR 0955
ENCODING 2389
SWIDTH 0 0
DWIDTH 0 0
BBX 7 4 -6 13
BITMAP
86
FC
38
FC
ENDCHAR
STARTCHAR 0956
ENCODING 2390
SWIDTH 0 0
DWIDTH 0 0
BBX 7 3 -9 -4
BITMAP
02
FE
30
ENDCHAR
STARTCHAR 0957
ENCODING 2391
SWIDTH 0 0
DWIDTH 0 0
BBX 8 4 -10 -4
BITMAP
E7
3C
43
7E
ENDCHAR
STARTCHAR 0958
ENCODING 2392
SWIDTH 720 0
DWIDTH 14 0
BBX 15 13 0 -1
BITMAP
FFFE
0180
0180
1F80
71B0
61F8
418C
618C
3F8C
1D8C
0198
3180
3000
ENDCHAR
STARTCHAR 0959
ENCODING 2393
SWIDTH 771 0
DWIDTH 15 0
BBX 16 12 0 0
BITMAP
FFFF
0C04
0C04
0CF4
6D84
7984
7184
31FC
1874
0C04
67FC
61F4
ENDCHAR
STARTCHAR 095A
ENCODING 2394
SWIDTH 514 0
DWIDTH 10 0
BBX 11 12 0 0
BITMAP
FFE0
3080
3080
3080
3080
7080
7080
7080
0080
0080
3080
3080
ENDCHAR
STARTCHAR 095B
ENCODING 2395
SWIDTH 720 0
DWIDTH 14 0
BBX 15 14 0 -2
BITMAP
FFFE
0018
0018
03F8
47F8
6318
2198
3198
1998
0F18
0018
0018
0C00
0C00
ENDCHAR
STARTCHAR 095C
ENCODING 2396
SWIDTH 565 0
DWIDTH 11 0
BBX 12 16 0 -4
BITMAP
FFF0
0080
0080
1F80
1800
1000
1F00
0FC0
4040
6040
3DC0
0F80
0000
0000
0600
0600
ENDCHAR
STARTCHAR 095D
ENCODING 2397
SWIDTH 514 0
DWIDTH 10 0
BBX 11 16 0 -4
BITMAP
FFE0
0200
0200
0E00
3E00
6000
6100
47C0
6440
6440
3DC0
1F00
0000
0400
0C00
0400
ENDCHAR
STARTCHAR 095E
ENCODING 2398
SWIDTH 720 0
DWIDTH 14 0
BBX 15 13 0 -1
BITMAP
FFFE
2180
2180
2180
21B0
21FC
218C
3384
1F8C
018C
0188
3180
3000
ENDCHAR
STARTCHAR 095F
ENCODING 2399
SWIDTH 565 0
DWIDTH 11 0
BBX 12 13 0 -1
BITMAP
FFF0
10C0
18C0
18C0
30C0
70C0
60C0
21C0
3FC0
00C0
00C0
30C0
3000
ENDCHAR
STARTCHAR 0960
ENCODING 2400
SWIDTH 822 0
DWIDTH 16 0
BBX 17 15 0 -3
BITMAP
FFFF80
018000
018000
798800
7D9C00
07BC00
03F800
078C00
1D9C00
319000
219100
018F00
001800
000880
000F80
ENDCHAR
STARTCHAR 0961
ENCODING 2401
SWIDTH 668 0
DWIDTH 13 0
BBX 14 16 0 -4
BITMAP
FFFC
0060
0060
0060
3DF0
6718
4218
6618
6078
30C0
18C0
0C7C
0078
0040
007C
003C
ENDCHAR
STARTCHAR 0962
ENCODING 2402
SWIDTH 0 0
DWIDTH 0 0
BBX 10 8 -9 -8
BITMAP
7780
DC80
8880
C180
6300
3600
03C0
0180
ENDCHAR
STARTCHAR 0963
ENCODING 2403
SWIDTH 0 0
DWIDTH 0 0
BBX 12 8 -9 -8
BITMAP
7700
DC80
8980
C100
61E0
3180
00F0
0060
ENDCHAR
STARTCHAR 0964
ENCODING 2404
SWIDTH 360 0
DWIDTH 7 0
BBX 1 12 4 0
BITMAP
80
80
80
80
80
80
80
80
80
80
80
80
ENDCHAR
STARTCHAR 0965
ENCODING 2405
SWIDTH 565 0
DWIDTH 11 0
BBX 6 12 4 0
BITMAP
8C
8C
8C
8C
8C
8C
8C
8C
8C
8C
8C
8C
ENDCHAR
STARTCHAR 0966
ENCODING 2406
SWIDTH 514 0
DWIDTH 10 0
BBX 8 8 1 2
BITMAP
3E
67
43
C1
41
63
7E
18
ENDCHAR
STARTCHAR 0967
ENCODING 2407
SWIDTH 514 0
DWIDTH 10 0
BBX 5 14 3 -2
BITMAP
F8
98
88
D8
38
70
C0
C0
70
38
08
08
18
08
ENDCHAR
STARTCHAR 0968
ENCODING 2408
SWIDTH 514 0
DWIDTH 10 0
BBX 7 12 2 0
BITMAP
F8
8C
06
06
04
0C
F8
F0
18
0C
06
02
ENDCHAR
STARTCHAR 0969
ENCODING 2409
SWIDTH 514 0
DWIDTH 10 0
BBX 7 13 2 -1
BITMAP
F8
8C
04
0C
38
0C
06
06
EC
F8
18
0C
06
ENDCHAR
STARTCHAR 096A
ENCODING 2410
SWIDTH 514 0
DWIDTH 10 0
BBX 9 12 1 0
BITMAP
C180
C100
4300
6600
3600
1C00
1C00
3600
6200
6200
3600
3C00
ENDCHAR
STARTCHAR 096B
ENCODING 2411
SWIDTH 514 0
DWIDTH 10 0
BBX 9 13 2 -1
BITMAP
C000
C000
8000
8000
8000
CE00
EE00
3E00
0400
0600
0200
0300
0180
ENDCHAR
STARTCHAR 096C
ENCODING 2412
SWIDTH 514 0
DWIDTH 10 0
BBX 8 13 2 -1
BITMAP
7C
C0
C0
C0
78
60
40
47
77
3E
02
03
01
ENDCHAR
STARTCHAR 096D
ENCODING 2413
SWIDTH 514 0
DWIDTH 10 0
BBX 9 10 1 1
BITMAP
8000
9F00
D300
D180
DF80
4780
6180
6180
3B00
1E00
ENDCHAR
STARTCHAR 096E
ENCODING 2414
SWIDTH 514 0
DWIDTH 10 0
BBX 9 12 1 0
BITMAP
0200
0600
0C00
1800
3800
3000
6000
4000
C000
C000
7780
3E00
ENDCHAR
STARTCHAR 096F
ENCODING 2415
SWIDTH 514 0
DWIDTH 10 0
BBX 9 13 1 -2
BITMAP
7C00
6600
C600
C600
6600
3C00
1800
0C00
0600
0380
0180
0080
0180
ENDCHAR
STARTCHAR 0970
ENCODING 2416
SWIDTH 411 0
DWIDTH 8 0
BBX 6 6 1 5
BITMAP
38
6C
C4
C4
78
30
ENDCHAR
STARTCHAR 0971
ENCODING 2417
SWIDTH 308 0
DWIDTH 6 0
BBX 2 3 2 10
BITMAP
40
C0
40
ENDCHAR
STARTCHAR 0972
ENCODING 2418
SWIDTH 720 0
DWIDTH 14 0
BBX 15 17 1 0
BITMAP
0106
0184
00FC
0070
0000
3E7C
2310
0310
0310
0E10
87F0
C3D0
4110
6310
3F10
0010
0010
ENDCHAR
STARTCHAR 0973
ENCODING 2419
SWIDTH 720 0
DWIDTH 14 0
BBX 14 16 1 0
BITMAP
0010
0010
0010
0010
3E7C
2310
0310
0310
0E10
87F0
C3D0
4110
6310
3F10
0010
0010
ENDCHAR
STARTCHAR 0974
ENCODING 2420
SWIDTH 977 0
DWIDTH 19 0
BBX 19 16 1 0
BITMAP
000080
000080
000080
000080
3E7FE0
231080
031080
031080
0E1080
87F080
C3D080
411080
631080
3F1080
001080
001080
ENDCHAR
STARTCHAR 0975
ENCODING 2421
SWIDTH 977 0
DWIDTH 19 0
BBX 19 17 1 0
BITMAP
000600
006380
003EC0
001F40
0001C0
3E7FE0
231080
031080
031080
0E1080
87F080
C3D080
411080
631080
3F1080
001080
001080
ENDCHAR
STARTCHAR 0976
ENCODING 2422
SWIDTH 720 0
DWIDTH 14 0
BBX 14 16 1 -4
BITMAP
3E7C
2310
0310
0310
0E10
87F0
C3D0
4110
6310
3F10
0010
0010
0000
0800
0FE0
0180
ENDCHAR
STARTCHAR 0977
ENCODING 2423
SWIDTH 720 0
DWIDTH 14 0
BBX 14 17 1 -5
BITMAP
3E7C
2310
0310
0310
0E10
87F0
C3D0
4110
6310
3F10
0010
0010
0000
0E70
03C0
0C20
07E0
ENDCHAR
STARTCHAR 0978
ENCODING 2424
SWIDTH 514 0
DWIDTH 10 0
BBX 11 11 0 1
BITMAP
FFE0
3000
3000
3000
7F80
7080
70C0
30C0
00C0
00C0
0180
ENDCHAR
STARTCHAR 0979
ENCODING 2425
SWIDTH 720 0
DWIDTH 14 0
BBX 15 14 0 -2
BITMAP
FFFE
0018
0018
43F8
4318
6118
3198
3198
1F98
0618
1998
1998
0600
0600
ENDCHAR
STARTCHAR 097A
ENCODING 2426
SWIDTH 565 0
DWIDTH 11 0
BBX 12 12 0 0
BITMAP
FFF0
10C0
18C0
1CC0
34C0
76C0
63C0
21C0
3FC0
00C0
00C0
00C0
ENDCHAR
STARTCHAR 097B
ENCODING 2427
SWIDTH 514 0
DWIDTH 10 0
BBX 11 12 0 0
BITMAP
FFE0
3080
3080
3080
3080
7080
7080
3080
0080
0080
0080
3F80
ENDCHAR
STARTCHAR 097C
ENCODING 2428
SWIDTH 720 0
DWIDTH 14 0
BBX 14 12 0 0
BITMAP
FFFC
0010
0010
43F0
4310
6110
3190
3190
1F90
0610
0010
3FF0
ENDCHAR
STARTCHAR 097D
ENCODING 2429
SWIDTH 462 0
DWIDTH 9 0
BBX 7 12 1 0
BITMAP
FC
06
02
02
06
0C
38
30
30
30
30
30
ENDCHAR
STARTCHAR 097E
ENCODING 2430
SWIDTH 565 0
DWIDTH 11 0
BBX 12 12 0 0
BITMAP
FFF0
0080
0080
1F80
1000
1B00
0FC0
4040
7040
1FC0
0000
7FC0
ENDCHAR
STARTCHAR 097F
ENCODING 2431
SWIDTH 565 0
DWIDTH 11 0
BBX 11 12 0 0
BITMAP
FFE0
0080
0080
3E80
7880
6C80
6480
6380
3F80
0080
0080
3F80
ENDCHAR
STARTCHAR 1AB0
ENCODING 6832
SWIDTH 0 0
DWIDTH 0 0
BBX 12 3 -6 12
BITMAP
30C0
79E0
CF30
ENDCHAR
STARTCHAR 1AB1
ENCODING 6833
SWIDTH 0 0
DWIDTH 0 0
BBX 10 4 -5 12
BITMAP
1C00
9240
D2C0
1E00
ENDCHAR
STARTCHAR 1AB2
ENCODING 6834
SWIDTH 0 0
DWIDTH 0 0
BBX 8 4 -4 12
BITMAP
E7
99
99
E7
ENDCHAR
STARTCHAR 1AB3
ENCODING 6835
SWIDTH 0 0
DWIDTH 0 0
BBX 4 4 -2 12
BITMAP
40
40
D0
60
ENDCHAR
STARTCHAR 1AB4
ENCODING 6836
SWIDTH 0 0
DWIDTH 0 0
BBX 6 5 -3 12
BITMAP
30
30
00
CC
CC
ENDCHAR
STARTCHAR 1AB5
ENCODING 6837
SWIDTH 0 0
DWIDTH 0 0
BBX 8 4 -4 -5
BITMAP
A1
66
67
80
ENDCHAR
STARTCHAR 1AB6
ENCODING 6838
SWIDTH 0 0
DWIDTH 0 0
BBX 20 4 -10 -5
BITMAP
3060C0
68F160
4C9320
870E10
ENDCHAR
STARTCHAR 1AB7
ENCODING 6839
SWIDTH 0 0
DWIDTH 0 0
BBX 2 4 -1 -4
BITMAP
80
80
80
C0
ENDCHAR
STARTCHAR 1AB8
ENCODING 6840
SWIDTH 0 0
DWIDTH 0 0
BBX 6 4 -3 -4
BITMAP
C8
C8
C8
CC
ENDCHAR
STARTCHAR 1AB9
ENCODING 6841
SWIDTH 0 0
DWIDTH 0 0
BBX 4 6 -12 -5
BITMAP
10
20
20
40
40
80
ENDCHAR
STARTCHAR 1ABA
ENCODING 6842
SWIDTH 0 0
DWIDTH 0 0
BBX 3 6 -10 -5
BITMAP
20
20
40
C0
C0
80
ENDCHAR
STARTCHAR 1ABB
ENCODING 6843
SWIDTH 0 0
DWIDTH 0 0
BBX 8 4 -4 12
BITMAP
83
81
81
83
ENDCHAR
STARTCHAR 1ABC
ENCODING 6844
SWIDTH 0 0
DWIDTH 0 0
BBX 12 4 -6 12
BITMAP
A0D0
A050
A050
A0D0
ENDCHAR
STARTCHAR 1ABD
ENCODING 6845
SWIDTH 0 0
DWIDTH 0 0
BBX 8 5 -4 -5
BITMAP
42
81
81
81
42
ENDCHAR
STARTCHAR 1ABE
ENCODING 6846
SWIDTH 0 0
DWIDTH 0 0
BBX 16 4 -8 2
BITMAP
C003
8001
8001
4002
ENDCHAR
STARTCHAR 1ABF
ENCODING 6847
SWIDTH 0 0
DWIDTH 0 0
BBX 6 4 -3 -5
BITMAP
B4
B4
D4
48
ENDCHAR
STARTCHAR 1AC0
ENCODING 6848
SWIDTH 0 0
DWIDTH 0 0
BBX 6 4 -3 -5
BITMAP
48
D8
B4
B4
ENDCHAR
STARTCHAR 1C80
ENCODING 7296
SWIDTH 514 0
DWIDTH 10 0
BBX 9 15 1 0
BITMAP
0F00
3100
6180
6180
FF00
C000
C000
C000
C000
DE00
F300
4180
6180
7180
1F00
ENDCHAR
STARTCHAR 1C81
ENCODING 7297
SWIDTH 565 0
DWIDTH 11 0
BBX 11 15 0 -5
BITMAP
0F80
0880
0880
1880
1880
1080
3080
6080
FFE0
C060
C060
C060
C060
C060
C060
ENDCHAR
STARTCHAR 1C82
ENCODING 7298
SWIDTH 411 0
DWIDTH 8 0
BBX 7 11 1 0
BITMAP
10
7C
44
C6
C6
C6
C6
C6
C6
6C
78
ENDCHAR
STARTCHAR 1C83
ENCODING 7299
SWIDTH 565 0
DWIDTH 11 0
BBX 10 11 1 0
BITMAP
0700
3FC0
6000
C000
C000
C000
C000
C000
6000
7040
1FC0
ENDCHAR
STARTCHAR 1C84
ENCODING 7300
SWIDTH 360 0
DWIDTH 7 0
BBX 8 14 -1 0
BITMAP
FF
FE
06
06
06
06
04
04
0C
0C
0C
0C
08
18
ENDCHAR
STARTCHAR 1C85
ENCODING 7301
SWIDTH 874 0
DWIDTH 17 0
BBX 14 10 2 0
BITMAP
FFFC
830C
830C
830C
830C
830C
830C
830C
830C
830C
ENDCHAR
STARTCHAR 1C86
ENCODING 7302
SWIDTH 617 0
DWIDTH 12 0
BBX 12 15 -1 0
BITMAP
F800
F800
1800
1800
1800
1800
1800
1800
1800
1FE0
1830
1810
1830
1870
1FE0
ENDCHAR
STARTCHAR 1C87
ENCODING 7303
SWIDTH 617 0
DWIDTH 12 0
BBX 11 15 0 0
BITMAP
3000
3000
3000
3000
3000
FE00
3000
3000
3000
3FC0
3060
3020
3020
30E0
3FC0
ENDCHAR
STARTCHAR 1C88
ENCODING 7304
SWIDTH 565 0
DWIDTH 11 0
BBX 10 15 1 0
BITMAP
C0C0
6180
6100
3300
1600
1C00
3F00
6180
C080
C0C0
C0C0
C0C0
C180
6380
3F00
ENDCHAR
STARTCHAR 1CD0
ENCODING 7376
SWIDTH 0 0
DWIDTH 0 0
BBX 7 5 -7 18
BITMAP
10
38
28
44
C6
ENDCHAR
STARTCHAR 1CD1
ENCODING 7377
SWIDTH 0 0
DWIDTH 0 0
BBX 7 6 -7 18
BITMAP
30
28
6C
54
D6
10
ENDCHAR
STARTCHAR 1CD2
ENCODING 7378
SWIDTH 0 0
DWIDTH 0 0
BBX 7 2 -7 19
BITMAP
FE
FE
ENDCHAR
STARTCHAR 1CD3
ENCODING 7379
SWIDTH 257 0
DWIDTH 5 0
BBX 4 4 1 13
BITMAP
90
A0
A0
A0
ENDCHAR
STARTCHAR 1CD4
ENCODING 7380
SWIDTH 0 0
DWIDTH 0 0
BBX 5 1 -5 5
BITMAP
F8
ENDCHAR
STARTCHAR 1CD5
ENCODING 7381
SWIDTH 0 0
DWIDTH 0 0
BBX 8 3 -9 -4
BITMAP
89
D9
7F
ENDCHAR
STARTCHAR 1CD6
ENCODING 7382
SWIDTH 0 0
DWIDTH 0 0
BBX 6 4 -8 -5
BITMAP
80
80
FC
FC
ENDCHAR
STARTCHAR 1CD7
ENCODING 7383
SWIDTH 0 0
DWIDTH 0 0
BBX 7 4 -9 -5
BITMAP
60
C0
C0
7E
ENDCHAR
STARTCHAR 1CD8
ENCODING 7384
SWIDTH 0 0
DWIDTH 0 0
BBX 8 4 -7 -5
BITMAP
C1
43
67
3C
ENDCHAR
STARTCHAR 1CD9
ENCODING 7385
SWIDTH 0 0
DWIDTH 0 0
BBX 7 4 -5 -5
BITMAP
70
D8
8E
80
ENDCHAR
STARTCHAR 1CDA
ENCODING 7386
SWIDTH 0 0
DWIDTH 0 0
BBX 3 4 -4 13
BITMAP
A0
A0
A0
A0
ENDCHAR
STARTCHAR 1CDB
ENCODING 7387
SWIDTH 0 0
DWIDTH 0 0
BBX 5 4 -5 13
BITMAP
A8
A8
A8
A8
ENDCHAR
STARTCHAR 1CDC
ENCODING 7388
SWIDTH 0 0
DWIDTH 0 0
BBX 1 4 -3 -5
BITMAP
80
80
80
80
ENDCHAR
STARTCHAR 1CDD
ENCODING 7389
SWIDTH 0 0
DWIDTH 0 0
BBX 3 3 -4 -5
BITMAP
40
E0
40
ENDCHAR
STARTCHAR 1CDE
ENCODING 7390
SWIDTH 0 0
DWIDTH 0 0
BBX 5 2 -6 -4
BITMAP
90
D8
ENDCHAR
STARTCHAR 1CDF
ENCODING 7391
SWIDTH 0 0
DWIDTH 0 0
BBX 8 2 -9 -4
BITMAP
52
DB
ENDCHAR
STARTCHAR 1CE0
ENCODING 7392
SWIDTH 0 0
DWIDTH 0 0
BBX 7 4 1 11
BITMAP
FE
80
80
E0
ENDCHAR
STARTCHAR 1CE1
ENCODING 7393
SWIDTH 360 0
DWIDTH 7 0
BBX 9 20 -1 -3
BITMAP
0300
0F80
0C00
0800
0800
0800
0800
0C00
0C00
0C00
0C00
0C00
0C00
0400
0400
0400
0C00
0C00
1800
F000
ENDCHAR
STARTCHAR 1CE2
ENCODING 7394
SWIDTH 0 0
DWIDTH 0 0
BBX 5 1 -5 5
BITMAP
F8
ENDCHAR
STARTCHAR 1CE3
ENCODING 7395
SWIDTH 0 0
DWIDTH 0 0
BBX 5 6 -2 5
BITMAP
60
30
18
08
08
F8
ENDCHAR
STARTCHAR 1CE4
ENCODING 7396
SWIDTH 0 0
DWIDTH 0 0
BBX 6 6 1 5
BITMAP
30
60
C0
80
80
FC
ENDCHAR
STARTCHAR 1CE5
ENCODING 7397
SWIDTH 0 0
DWIDTH 0 0
BBX 6 6 1 -1
BITMAP
7C
C0
80
C0
60
30
ENDCHAR
STARTCHAR 1CE6
ENCODING 7398
SWIDTH 0 0
DWIDTH 0 0
BBX 5 6 -2 -1
BITMAP
F8
18
08
18
30
60
ENDCHAR
STARTCHAR 1CE7
ENCODING 7399
SWIDTH 0 0
DWIDTH 0 0
BBX 7 10 -2 5
BITMAP
78
FC
C6
C0
60
30
18
08
08
F8
ENDCHAR
STARTCHAR 1CE8
ENCODING 7400
SWIDTH 0 0
DWIDTH 0 0
BBX 8 10 -1 -4
BITMAP
1F
30
20
30
18
0C
06
C6
66
3C
ENDCHAR
STARTCHAR 1CE9
ENCODING 7401
SWIDTH 771 0
DWIDTH 15 0
BBX 14 12 1 0
BITMAP
3CF0
6598
C588
ECC8
F86C
C00C
C00C
C008
4018
6030
3CF0
0FC0
ENDCHAR
STARTCHAR 1CEA
ENCODING 7402
SWIDTH 720 0
DWIDTH 14 0
BBX 13 12 1 0
BITMAP
F8F0
8998
8998
E9B0
18C0
3060
6020
6030
6030
6020
39E0
1F80
ENDCHAR
STARTCHAR 1CEB
ENCODING 7403
SWIDTH 720 0
DWIDTH 14 0
BBX 13 12 1 0
BITMAP
F800
89E0
8930
EB10
1998
30F8
6018
6018
6010
6030
39E0
1F80
ENDCHAR
STARTCHAR 1CEC
ENCODING 7404
SWIDTH 822 0
DWIDTH 16 0
BBX 15 12 1 0
BITMAP
F800
89E0
8B20
EB30
1930
30F0
603C
6034
6036
6066
39CC
1F84
ENDCHAR
STARTCHAR 1CED
ENCODING 7405
SWIDTH 0 0
DWIDTH 0 0
BBX 5 4 -3 -5
BITMAP
C0
60
38
18
ENDCHAR
STARTCHAR 1CEE
ENCODING 7406
SWIDTH 514 0
DWIDTH 10 0
BBX 9 12 1 0
BITMAP
7C00
C000
C000
C000
6180
3D80
6000
6000
6000
6300
3300
1E00
ENDCHAR
STARTCHAR 1CEF
ENCODING 7407
SWIDTH 411 0
DWIDTH 8 0
BBX 7 12 1 0
BITMAP
3E
60
C8
CC
C0
76
3E
60
4C
44
64
3C
ENDCHAR
STARTCHAR 1CF0
ENCODING 7408
SWIDTH 514 0
DWIDTH 10 0
BBX 9 12 1 0
BITMAP
3C00
2600
2000
3100
1980
1800
7E00
C300
8180
C180
E700
3E00
ENDCHAR
STARTCHAR 1CF1
ENCODING 7409
SWIDTH 462 0
DWIDTH 9 0
BBX 8 11 1 -1
BITMAP
30
64
C6
84
80
FE
03
01
63
66
0C
ENDCHAR
STARTCHAR 1CF2
ENCODING 7410
SWIDTH 462 0
DWIDTH 9 0
BBX 8 9 1 1
BITMAP
81
C3
63
3E
00
3C
66
C3
81
ENDCHAR
STARTCHAR 1CF3
ENCODING 7411
SWIDTH 514 0
DWIDTH 10 0
BBX 9 9 1 1
BITMAP
8000
C380
6600
3400
3400
3400
3600
E380
C180
ENDCHAR
STARTCHAR 1CF4
ENCODING 7412
SWIDTH 0 0
DWIDTH 0 0
BBX 8 4 -7 18
BITMAP
40
C1
63
3E
ENDCHAR
STARTCHAR 1CF5
ENCODING 7413
SWIDTH 514 0
DWIDTH 10 0
BBX 8 9 1 0
BITMAP
C3
43
66
3C
18
3C
36
62
C3
ENDCHAR
STARTCHAR 1CF6
ENCODING 7414
SWIDTH 617 0
DWIDTH 12 0
BBX 10 4 1 4
BITMAP
8C40
CC40
CCC0
7B80
ENDCHAR
STARTCHAR 1CF8
ENCODING 7416
SWIDTH 0 0
DWIDTH 0 0
BBX 4 4 -4 13
BITMAP
E0
90
90
E0
ENDCHAR
STARTCHAR 1CF9
ENCODING 7417
SWIDTH 0 0
DWIDTH 0 0
BBX 9 4 -7 13
BITMAP
7700
9480
9480
7700
ENDCHAR
STARTCHAR 1D00
ENCODING 7424
SWIDTH 514 0
DWIDTH 10 0
BBX 10 10 0 0
BITMAP
0C00
0E00
1E00
1200
3300
3F00
3F80
6180
6080
C0C0
ENDCHAR
STARTCHAR 1D01
ENCODING 7425
SWIDTH 668 0
DWIDTH 13 0
BBX 13 10 0 0
BITMAP
07F8
0D80
0D80
1980
19F0
3F80
3F80
6180
6180
C1F8
ENDCHAR
STARTCHAR 1D02
ENCODING 7426
SWIDTH 822 0
DWIDTH 16 0
BBX 15 11 1 0
BITMAP
3838
FE7C
8386
0386
0106
FF1C
FFF0
C100
C380
678C
3CFC
ENDCHAR
STARTCHAR 1D03
ENCODING 7427
SWIDTH 565 0
DWIDTH 11 0
BBX 11 10 0 0
BITMAP
3F80
20C0
20C0
20C0
FFE0
20C0
2040
2040
21C0
3F80
ENDCHAR
STARTCHAR 1D04
ENCODING 7428
SWIDTH 514 0
DWIDTH 10 0
BBX 8 11 1 0
BITMAP
04
3F
60
40
C0
C0
C0
C0
60
71
3F
ENDCHAR
STARTCHAR 1D05
ENCODING 7429
SWIDTH 565 0
DWIDTH 11 0
BBX 8 10 2 0
BITMAP
FE
87
83
81
81
81
83
83
8E
FC
ENDCHAR
STARTCHAR 1D06
ENCODING 7430
SWIDTH 565 0
DWIDTH 11 0
BBX 9 10 1 0
BITMAP
7E00
6380
6180
6080
F880
F880
6180
6180
6700
7E00
ENDCHAR
STARTCHAR 1D07
ENCODING 7431
SWIDTH 462 0
DWIDTH 9 0
BBX 6 10 2 0
BITMAP
FC
80
80
80
FC
80
80
80
80
FC
ENDCHAR
STARTCHAR 1D08
ENCODING 7432
SWIDTH 462 0
DWIDTH 9 0
BBX 8 11 1 0
BITMAP
38
FE
02
03
02
3E
3C
06
02
86
FC
ENDCHAR
STARTCHAR 1D09
ENCODING 7433
SWIDTH 257 0
DWIDTH 5 0
BBX 2 14 2 -4
BITMAP
C0
C0
C0
C0
C0
C0
C0
C0
C0
C0
00
00
C0
C0
ENDCHAR
STARTCHAR 1D0A
ENCODING 7434
SWIDTH 308 0
DWIDTH 6 0
BBX 4 10 1 0
BITMAP
30
30
30
30
30
30
30
30
30
E0
ENDCHAR
STARTCHAR 1D0B
ENCODING 7435
SWIDTH 462 0
DWIDTH 9 0
BBX 7 10 2 0
BITMAP
86
8C
98
B0
F0
F0
98
8C
86
86
ENDCHAR
STARTCHAR 1D0C
ENCODING 7436
SWIDTH 411 0
DWIDTH 8 0
BBX 7 10 1 0
BITMAP
40
40
40
58
70
E0
C0
40
40
7E
ENDCHAR
STARTCHAR 1D0D
ENCODING 7437
SWIDTH 720 0
DWIDTH 14 0
BBX 10 10 2 0
BITMAP
C0C0
E1C0
E1C0
A140
B340
9240
9E40
9E40
8C40
8C40
ENDCHAR
STARTCHAR 1D0E
ENCODING 7438
SWIDTH 617 0
DWIDTH 12 0
BBX 8 10 2 0
BITMAP
83
87
87
8D
99
99
B1
E1
E1
C1
ENDCHAR
ENDFONT
